<svg xmlns="http://www.w3.org/2000/svg" xmlns:xlink="http://www.w3.org/1999/xlink" width="156" height="159" viewBox="0 0 156 159"><defs><clipPath id="a"><rect width="156" height="159" transform="translate(0 0)" fill="none"/></clipPath><linearGradient id="b" x1="-0.095" y1="1.159" x2="1.124" y2="1.159" gradientUnits="objectBoundingBox"><stop offset="0" stop-color="#a31fa9"/><stop offset="0.07" stop-color="#8b17a0"/><stop offset="0.15" stop-color="#740f98"/><stop offset="0.24" stop-color="#640a92"/><stop offset="0.34" stop-color="#5b078f"/><stop offset="0.48" stop-color="#58068e"/><stop offset="0.63" stop-color="#4d22a3"/><stop offset="0.94" stop-color="#3168da"/><stop offset="1" stop-color="#2c75e4"/></linearGradient><linearGradient id="c" x1="0.048" y1="1.839" x2="0.99" y2="1.442" gradientUnits="objectBoundingBox"><stop offset="0" stop-color="#8d139b"/><stop offset="0.17" stop-color="#851ba1"/><stop offset="0.43" stop-color="#6e33b2"/><stop offset="0.76" stop-color="#4958cd"/><stop offset="1" stop-color="#2979e4"/></linearGradient><linearGradient id="d" x1="244.677" y1="1.834" x2="356.686" y2="1.834" xlink:href="#b"/><linearGradient id="e" x1="-30.672" y1="-78.68" x2="-2.224" y2="-4.755" xlink:href="#c"/><linearGradient id="f" x1="244.681" y1="2.509" x2="356.69" y2="2.509" xlink:href="#b"/><linearGradient id="g" x1="-32.059" y1="-81.585" x2="-3.605" y2="-7.666" xlink:href="#c"/><linearGradient id="h" x1="307.4" y1="3.184" x2="419.411" y2="3.184" gradientUnits="objectBoundingBox"><stop offset="0" stop-color="#5619a4"/><stop offset="0.07" stop-color="#8b17a0"/><stop offset="0.15" stop-color="#740f98"/><stop offset="0.24" stop-color="#640a92"/><stop offset="0.34" stop-color="#5b078f"/><stop offset="0.48" stop-color="#58068e"/><stop offset="0.63" stop-color="#4d22a3"/><stop offset="0.94" stop-color="#3168da"/><stop offset="1" stop-color="#2c75e4"/></linearGradient><linearGradient id="i" x1="0.045" y1="3.865" x2="0.987" y2="3.468" gradientUnits="objectBoundingBox"><stop offset="0" stop-color="#267fe5"/><stop offset="0.17" stop-color="#2c87e7"/><stop offset="0.44" stop-color="#3d9feb"/><stop offset="0.78" stop-color="#59c4f2"/><stop offset="1" stop-color="#6ee1f8"/></linearGradient><linearGradient id="j" y1="4.694" x2="1" y2="4.694" gradientUnits="objectBoundingBox"><stop offset="0" stop-color="#6de0f6"/><stop offset="0.16" stop-color="#68d8f5"/><stop offset="0.41" stop-color="#5ac0f1"/><stop offset="0.73" stop-color="#439bea"/><stop offset="1" stop-color="#2c75e4"/></linearGradient><linearGradient id="k" x1="307.397" y1="-0.319" x2="419.406" y2="-0.319" xlink:href="#b"/><linearGradient id="l" x1="-6.783" y1="-18.75" x2="21.671" y2="55.171" xlink:href="#c"/><linearGradient id="m" x1="307.397" y1="0.355" x2="419.406" y2="0.355" xlink:href="#b"/><linearGradient id="n" x1="-8.153" y1="-21.653" x2="20.283" y2="52.286" xlink:href="#c"/><linearGradient id="o" x1="307.397" y1="1.03" x2="419.406" y2="1.03" xlink:href="#b"/><linearGradient id="p" x1="-9.544" y1="-24.564" x2="18.917" y2="49.348" xlink:href="#c"/><linearGradient id="q" x1="307.399" y1="1.706" x2="419.408" y2="1.706" xlink:href="#h"/><linearGradient id="r" x1="-10.914" y1="-27.452" x2="17.543" y2="46.464" xlink:href="#i"/><linearGradient id="s" x1="327.501" y1="2.74" x2="396.621" y2="2.74" xlink:href="#j"/><linearGradient id="t" x1="181.591" y1="-0.198" x2="293.611" y2="-0.198" xlink:href="#b"/><linearGradient id="u" x1="-46.223" y1="-120.966" x2="-17.754" y2="-47.081" xlink:href="#c"/><linearGradient id="v" x1="181.59" y1="0.477" x2="293.61" y2="0.477" xlink:href="#b"/><linearGradient id="w" x1="-47.489" y1="-123.816" x2="-19.054" y2="-49.877" xlink:href="#c"/><linearGradient id="x" x1="181.59" y1="1.152" x2="293.61" y2="1.152" xlink:href="#b"/><linearGradient id="y" x1="-48.898" y1="-126.685" x2="-20.444" y2="-52.767" xlink:href="#c"/><linearGradient id="z" x1="307.401" y1="1.828" x2="419.41" y2="1.828" xlink:href="#h"/><linearGradient id="aa" x1="-50.29" y1="-129.616" x2="-21.834" y2="-55.7" xlink:href="#i"/><linearGradient id="ab" x1="201.689" y1="2.901" x2="270.809" y2="2.901" xlink:href="#j"/><linearGradient id="ac" x1="244.31" y1="-1.676" x2="356.331" y2="-1.676" xlink:href="#b"/><linearGradient id="ad" x1="-23.628" y1="-63.858" x2="4.828" y2="10.056" xlink:href="#c"/><linearGradient id="ae" x1="244.31" y1="-1.002" x2="356.33" y2="-1.002" xlink:href="#b"/><linearGradient id="af" x1="-24.994" y1="-66.804" x2="3.442" y2="7.138" xlink:href="#c"/><linearGradient id="ag" x1="244.31" y1="-0.326" x2="356.33" y2="-0.326" xlink:href="#b"/><linearGradient id="ah" x1="-26.397" y1="-69.782" x2="2.033" y2="4.149" xlink:href="#c"/><linearGradient id="ai" x1="307.4" y1="0.349" x2="419.411" y2="0.349" xlink:href="#h"/><linearGradient id="aj" x1="-28.654" y1="-70.569" x2="-9.486" y2="-20.746" xlink:href="#i"/></defs><g transform="translate(0 0)"><g transform="translate(0 0)" clip-path="url(#a)"><g transform="translate(-0.252 -0.007)"><g transform="translate(0 66.494)" opacity="0.8"><path d="M74.4,103.782,46.363,87.6c-1.988-1.155-1.744-3.165.56-4.492L73.841,67.585c2.3-1.327,5.784-1.471,7.779-.322l28.037,16.189c2,1.148,1.744,3.158-.56,4.492L82.179,103.467C79.876,104.794,76.4,104.938,74.4,103.782Z" transform="translate(0.252 -66.487)" fill="#0c0f38" opacity="0.8" style="isolation:isolate"/><path d="M119.387,131.927,91.4,115.745c-2-1.155-1.744-3.165.552-4.492L118.87,95.709c2.3-1.328,5.784-1.471,7.779-.323l28.038,16.19c2,1.148,1.744,3.164-.56,4.492L127.209,131.6C124.884,132.939,121.4,133.083,119.387,131.927Z" transform="translate(0.252 -66.487)" fill="#a8a8c1" opacity="0.2" style="isolation:isolate"/><path d="M29.133,129.624,1.1,113.441c-2-1.155-1.744-3.164.553-4.492L28.573,93.42a8.76,8.76,0,0,1,7.772-.323l28.037,16.189c1.995,1.149,1.744,3.158-.56,4.493L36.9,129.3C34.608,130.629,31.12,130.779,29.133,129.624Z" transform="translate(0.252 -66.487)" fill="#a8a8c1" opacity="0.2" style="isolation:isolate"/><path d="M74.177,157.769,46.139,141.587c-1.995-1.156-1.743-3.165.56-4.493l26.918-15.543c2.3-1.328,5.784-1.471,7.772-.323l28.037,16.189c1.995,1.148,1.744,3.158-.559,4.493L81.949,157.446C79.616,158.774,76.129,158.924,74.177,157.769Z" transform="translate(0.252 -66.487)" fill="#a8a8c1" opacity="0.2" style="isolation:isolate"/></g><path d="M74.407,96.29,46.376,80.108c-1.995-1.155-1.743-3.165.553-4.492L73.847,60.072c2.3-1.328,5.784-1.471,7.779-.323l28.037,16.19c1.995,1.148,1.744,3.164-.559,4.492L82.186,95.967C79.918,97.273,76.4,97.417,74.407,96.29Z" transform="translate(0.252 0.007)" fill="#0c0f38"/><g transform="translate(45.256 38.569)" opacity="0.4"><path d="M111.006,57.625H97.1L81.619,48.683c-2-1.148-5.475-1-7.779.323L58.921,57.618H45.028v9.329a2.259,2.259,0,0,0,1.334,2.088L74.4,85.217c1.995,1.156,5.475,1.012,7.779-.315L109.1,69.358a3.33,3.33,0,0,0,1.894-2.411Z" transform="translate(-45.004 -38.562)" opacity="0.4" fill="url(#b)" style="isolation:isolate"/><path d="M45.91,67.585V58.256H59.825l14.919-8.611a8.76,8.76,0,0,1,7.772-.323l15.458,8.934h13.032v-.638H97.1L81.619,48.676c-2-1.148-5.475-1-7.779.323L58.921,57.611H45.028V66.94a2.259,2.259,0,0,0,1.334,2.088l.158.093a1.969,1.969,0,0,1-.61-1.536Z" transform="translate(-45.004 -38.562)" fill="#d4088c" opacity="0.4" style="isolation:isolate"/><path d="M74.4,75.895l-28.037-16.2c-1.988-1.149-1.744-3.158.56-4.493L73.839,39.663c2.3-1.328,5.784-1.479,7.779-.323l28.037,16.182c2,1.156,1.744,3.165-.559,4.492L82.177,75.558A8.573,8.573,0,0,1,74.4,75.895Z" transform="translate(-45.004 -38.562)" opacity="0.4" fill="url(#c)" style="isolation:isolate"/><path d="M109.656,55.537,81.618,39.354a7.208,7.208,0,0,0-3.925-.76,6.5,6.5,0,0,1,2.827.76l28.038,16.183c2,1.155,1.744,3.164-.56,4.492L81.08,75.573a8.792,8.792,0,0,1-3.853,1.076,9.141,9.141,0,0,0,4.951-1.076L109.1,60.029C111.4,58.7,111.651,56.692,109.656,55.537Z" transform="translate(-45.004 -38.562)" fill="#6ee8fc" opacity="0.4" style="isolation:isolate"/><path d="M77.836,72.042a5.36,5.36,0,0,1-2.634-.61L54.326,59.383a1.966,1.966,0,0,1-1.119-1.658,2.619,2.619,0,0,1,1.536-2.1L74.786,44.055a6.714,6.714,0,0,1,6.028-.244L101.69,55.867a1.947,1.947,0,0,1,1.119,1.672,2.611,2.611,0,0,1-1.536,2.095L81.23,71.174A6.957,6.957,0,0,1,77.836,72.042Zm.344-28.361a6.46,6.46,0,0,0-3.157.79L54.987,56.039a2.149,2.149,0,0,0-1.3,1.686,1.508,1.508,0,0,0,.882,1.242L75.446,71.016a6.156,6.156,0,0,0,5.547-.237l20.043-11.568a2.151,2.151,0,0,0,1.292-1.687,1.493,1.493,0,0,0-.875-1.241L80.577,44.227A4.917,4.917,0,0,0,78.18,43.681Z" transform="translate(-45.004 -38.562)" fill="#480689" opacity="0.4" style="isolation:isolate"/><path d="M75.662,75.9l-28.037-16.2c-1.995-1.148-1.744-3.158.552-4.493L75.1,39.663a8.818,8.818,0,0,1,3.789-1.077,9.184,9.184,0,0,0-5.024,1.077L46.907,55.214c-2.3,1.335-2.547,3.344-.56,4.492L74.385,75.9a7.312,7.312,0,0,0,3.99.717A6.421,6.421,0,0,1,75.662,75.9Z" transform="translate(-45.004 -38.562)" fill="#d4088c" opacity="0.4" style="isolation:isolate"/></g><g transform="translate(45.256 25.714)" opacity="0.5"><path d="M111.006,44.765H97.1L81.619,35.831c-2-1.156-5.475-1.005-7.779.323L58.921,44.765H45.027v9.329a2.262,2.262,0,0,0,1.335,2.081L74.4,72.365c1.995,1.148,5.475,1.005,7.779-.323L109.1,56.5a3.329,3.329,0,0,0,1.894-2.4Z" transform="translate(-45.004 -25.706)" opacity="0.5" fill="url(#d)" style="isolation:isolate"/><path d="M45.91,54.74V45.411H59.825L74.744,36.8c2.3-1.328,5.784-1.472,7.772-.323L98,45.418h13.032v-.646H97.1L81.619,35.838c-2-1.155-5.475-1.005-7.779.323L58.921,44.772H45.027V54.1a2.262,2.262,0,0,0,1.335,2.082l.158.093a1.969,1.969,0,0,1-.61-1.536Z" transform="translate(-45.004 -25.706)" fill="#d4088c" opacity="0.5" style="isolation:isolate"/><path d="M74.4,63.036,46.361,46.846c-1.988-1.148-1.744-3.157.56-4.485L73.839,26.817c2.3-1.327,5.784-1.471,7.779-.323l28.037,16.19c2,1.148,1.744,3.158-.559,4.485L82.177,62.713C79.874,64.04,76.394,64.184,74.4,63.036Z" transform="translate(-45.004 -25.706)" opacity="0.5" fill="url(#e)" style="isolation:isolate"/><path d="M109.656,42.684,81.618,26.5a7.265,7.265,0,0,0-3.925-.761,6.5,6.5,0,0,1,2.827.761l28.038,16.189c2,1.148,1.744,3.158-.56,4.485L81.08,62.713A8.871,8.871,0,0,1,77.227,63.8a9.135,9.135,0,0,0,4.951-1.083L109.1,47.169C111.4,45.842,111.651,43.832,109.656,42.684Z" transform="translate(-45.004 -25.706)" fill="#6ee8fc" opacity="0.5" style="isolation:isolate"/><path d="M77.836,59.182a5.36,5.36,0,0,1-2.634-.61L54.326,46.523a1.958,1.958,0,0,1-1.119-1.657,2.633,2.633,0,0,1,1.536-2.1L74.786,31.195a6.694,6.694,0,0,1,6.028-.237L101.69,43.007a1.944,1.944,0,0,1,1.119,1.658,2.633,2.633,0,0,1-1.536,2.1L81.23,58.335A6.959,6.959,0,0,1,77.836,59.182Zm-2.39-1.019a6.154,6.154,0,0,0,5.547-.244l20.043-11.568a2.152,2.152,0,0,0,1.292-1.686,1.5,1.5,0,0,0-.875-1.242L80.577,31.367a6.17,6.17,0,0,0-5.554.244L54.987,43.186a2.152,2.152,0,0,0-1.3,1.687,1.5,1.5,0,0,0,.882,1.241Z" transform="translate(-45.004 -25.706)" fill="#480689" opacity="0.5" style="isolation:isolate"/><path d="M75.662,63.036,47.625,46.846c-1.995-1.148-1.744-3.157.552-4.485L75.1,26.817a8.83,8.83,0,0,1,3.789-1.076,9.183,9.183,0,0,0-5.024,1.076L46.907,42.361c-2.3,1.328-2.547,3.337-.56,4.485l28.038,16.19a7.3,7.3,0,0,0,3.99.753A6.41,6.41,0,0,1,75.662,63.036Z" transform="translate(-45.004 -25.706)" fill="#d4088c" opacity="0.5" style="isolation:isolate"/></g><g transform="translate(45.256 12.864)" opacity="0.7"><path d="M111.006,31.905H97.1L81.619,22.971c-2-1.148-5.475-1.005-7.779.323L58.921,31.905H45.028v9.329a2.252,2.252,0,0,0,1.334,2.081L74.4,59.505c1.995,1.148,5.475,1,7.779-.323L109.1,43.638a3.329,3.329,0,0,0,1.894-2.4Z" transform="translate(-45.004 -12.857)" opacity="0.7" fill="url(#f)" style="isolation:isolate"/><path d="M45.91,41.887V32.558H59.825l14.919-8.611c2.3-1.335,5.784-1.478,7.772-.323L98,32.558h13.032v-.645H97.1L81.619,22.978c-2-1.148-5.475-1.005-7.779.323L58.921,31.913H45.028v9.329a2.252,2.252,0,0,0,1.334,2.081l.158.093a1.961,1.961,0,0,1-.61-1.529Z" transform="translate(-45.004 -12.857)" fill="#d4088c" opacity="0.7" style="isolation:isolate"/><path d="M74.4,50.176,46.361,33.994c-1.988-1.156-1.744-3.165.56-4.493L73.839,13.958c2.3-1.328,5.784-1.472,7.779-.323l28.037,16.189c2,1.148,1.744,3.158-.559,4.492L82.177,49.853C79.874,51.188,76.394,51.331,74.4,50.176Z" transform="translate(-45.004 -12.857)" opacity="0.7" fill="url(#g)" style="isolation:isolate"/><path d="M109.656,29.824,81.618,13.635a7.2,7.2,0,0,0-3.925-.718,6.5,6.5,0,0,1,2.827.718l28.038,16.189c2,1.148,1.744,3.158-.56,4.493L81.08,49.853a8.788,8.788,0,0,1-3.853,1.084,9.145,9.145,0,0,0,4.951-1.084L109.1,34.317C111.4,32.982,111.651,30.987,109.656,29.824Z" transform="translate(-45.004 -12.857)" fill="#6ee8fc" opacity="0.7" style="isolation:isolate"/><path d="M77.836,46.322a5.438,5.438,0,0,1-2.634-.6L54.326,33.663a1.958,1.958,0,0,1-1.119-1.657,2.615,2.615,0,0,1,1.536-2.1L74.786,18.335a6.693,6.693,0,0,1,6.028-.237L101.69,30.147a1.957,1.957,0,0,1,1.119,1.665,2.617,2.617,0,0,1-1.536,2.1L81.23,45.476A6.958,6.958,0,0,1,77.836,46.322Zm-2.39-.983a6.133,6.133,0,0,0,5.547-.244l20.043-11.568a2.154,2.154,0,0,0,1.292-1.679,1.5,1.5,0,0,0-.875-1.249L80.577,18.55a6.171,6.171,0,0,0-5.554.237L54.987,30.362a2.154,2.154,0,0,0-1.3,1.68,1.512,1.512,0,0,0,.882,1.248Z" transform="translate(-45.004 -12.857)" fill="#480689" opacity="0.7" style="isolation:isolate"/><path d="M75.662,50.176,47.625,33.994c-1.995-1.156-1.744-3.165.552-4.493L75.1,13.958a8.818,8.818,0,0,1,3.789-1.077,9.175,9.175,0,0,0-5.024,1.077L46.907,29.5c-2.3,1.328-2.547,3.337-.56,4.493L74.385,50.176a7.248,7.248,0,0,0,3.99.718A6.437,6.437,0,0,1,75.662,50.176Z" transform="translate(-45.004 -12.857)" fill="#d4088c" opacity="0.7" style="isolation:isolate"/></g><path d="M111.006,19.053H97.1L81.619,10.111c-2-1.148-5.475-1-7.779.323L58.921,19.046H45.028v9.329a2.259,2.259,0,0,0,1.334,2.088L74.4,46.645c1.995,1.156,5.475,1.012,7.779-.323L109.1,30.786a3.33,3.33,0,0,0,1.894-2.411Z" transform="translate(0.252 0.007)" fill="url(#h)"/><path d="M45.91,29.028V19.7H59.825l14.919-8.612a8.763,8.763,0,0,1,7.772-.323L98,19.7h13.032V19.06H97.1L81.619,10.118c-2-1.148-5.475-1-7.779.323L58.921,19.053H45.028v9.329a2.259,2.259,0,0,0,1.334,2.088l.158.086a1.952,1.952,0,0,1-.61-1.528Z" transform="translate(0.252 0.007)" fill="#d4088c"/><path d="M74.4,37.323,46.361,21.134c-1.988-1.148-1.744-3.165.56-4.492L73.839,1.105c2.3-1.335,5.784-1.478,7.779-.323l28.037,16.183c2,1.155,1.744,3.164-.559,4.492L82.177,37C79.874,38.328,76.394,38.472,74.4,37.323Z" transform="translate(0.252 0.007)" fill="url(#i)"/><path d="M109.656,16.965,81.618.782a7.208,7.208,0,0,0-3.925-.76,6.5,6.5,0,0,1,2.827.76l28.038,16.183c2,1.155,1.744,3.164-.56,4.492L81.08,37a8.872,8.872,0,0,1-3.853,1.077A9.19,9.19,0,0,0,82.178,37L109.1,21.457C111.4,20.129,111.651,18.12,109.656,16.965Z" transform="translate(0.252 0.007)" fill="#6ee8fc"/><path d="M77.836,33.463a5.348,5.348,0,0,1-2.634-.6L54.326,20.811a1.979,1.979,0,0,1-1.119-1.665,2.621,2.621,0,0,1,1.536-2.095L74.786,5.483a6.714,6.714,0,0,1,6.028-.244L101.69,17.287a1.965,1.965,0,0,1,1.119,1.665,2.611,2.611,0,0,1-1.536,2.1L81.23,32.623A7.039,7.039,0,0,1,77.836,33.463Zm-2.39-1.041a6.153,6.153,0,0,0,5.547-.237L101.036,20.61a2.154,2.154,0,0,0,1.292-1.679,1.509,1.509,0,0,0-.875-1.249L80.577,5.655a6.168,6.168,0,0,0-5.554.237L54.987,17.467a2.151,2.151,0,0,0-1.3,1.679A1.515,1.515,0,0,0,54.57,20.4Z" transform="translate(0.252 0.007)" fill="url(#j)"/><path d="M75.662,37.323,47.625,21.134c-1.995-1.148-1.744-3.165.552-4.492L75.1,1.105A8.716,8.716,0,0,1,78.892.029a9.174,9.174,0,0,0-5.024,1.076L46.907,16.634c-2.3,1.328-2.547,3.344-.56,4.493L74.385,37.316a7.3,7.3,0,0,0,3.99.718A6.515,6.515,0,0,1,75.662,37.323Z" transform="translate(0.252 0.007)" fill="#25bfec"/><g transform="translate(90.283 66.719)" opacity="0.4"><path d="M155.987,85.77H142.108l-15.479-8.934c-1.995-1.156-5.476-1.012-7.779.315l-14.92,8.612H90.037v9.329a2.268,2.268,0,0,0,1.342,2.081l28.009,16.2c2,1.148,5.475,1.005,7.779-.323L154.085,97.51a3.329,3.329,0,0,0,1.894-2.4Z" transform="translate(-90.031 -66.711)" opacity="0.4" fill="url(#k)" style="isolation:isolate"/><path d="M90.92,95.745V86.416h13.9L119.739,77.8a8.763,8.763,0,0,1,7.772-.323l15.479,8.935h13v-.639H142.108l-15.479-8.934c-1.995-1.156-5.476-1.012-7.779.316L103.93,85.77H90.037V95.1a2.268,2.268,0,0,0,1.342,2.081l.158.093a1.937,1.937,0,0,1-.617-1.528Z" transform="translate(-90.031 -66.711)" fill="#d4088c" opacity="0.4" style="isolation:isolate"/><path d="M119.387,104.041,91.4,87.851c-2-1.148-1.744-3.158.552-4.492L118.87,67.822c2.3-1.327,5.784-1.478,7.779-.323l28.038,16.183c2,1.155,1.744,3.164-.56,4.492l-26.918,15.544C124.884,105.045,121.4,105.189,119.387,104.041Z" transform="translate(-90.031 -66.711)" opacity="0.4" fill="url(#l)" style="isolation:isolate"/><path d="M154.666,83.682,126.628,67.5a7.276,7.276,0,0,0-3.925-.76,6.5,6.5,0,0,1,2.827.76l28.038,16.183c2,1.155,1.743,3.164-.56,4.492L126.09,103.718a8.782,8.782,0,0,1-3.854,1.076,9.135,9.135,0,0,0,4.952-1.076l26.918-15.544C156.409,86.846,156.661,84.808,154.666,83.682Z" transform="translate(-90.031 -66.711)" fill="#6ee8fc" opacity="0.4" style="isolation:isolate"/><path d="M122.846,100.187a5.36,5.36,0,0,1-2.634-.61L99.343,87.528a1.951,1.951,0,0,1-1.126-1.658,2.619,2.619,0,0,1,1.536-2.1L119.8,72.2a6.717,6.717,0,0,1,6.028-.244L146.7,84.012a1.948,1.948,0,0,1,1.12,1.658,2.612,2.612,0,0,1-1.536,2.1L126.24,99.34A6.959,6.959,0,0,1,122.846,100.187Zm.344-28.36a6.452,6.452,0,0,0-3.15.789L100.011,84.184a2.149,2.149,0,0,0-1.3,1.686,1.507,1.507,0,0,0,.883,1.242l20.861,12.049A6.156,6.156,0,0,0,126,98.924l20.043-11.568a2.154,2.154,0,0,0,1.328-1.686,1.5,1.5,0,0,0-.883-1.242L125.616,72.372A4.9,4.9,0,0,0,123.19,71.827Z" transform="translate(-90.031 -66.711)" fill="#480689" opacity="0.4" style="isolation:isolate"/><path d="M120.672,104.041,92.634,87.851c-2-1.148-1.744-3.157.56-4.492l26.911-15.537a8.838,8.838,0,0,1,3.789-1.076,9.183,9.183,0,0,0-5.024,1.076L91.931,83.373c-2.3,1.335-2.548,3.344-.553,4.492l28.009,16.176a7.307,7.307,0,0,0,3.99.753A6.409,6.409,0,0,1,120.672,104.041Z" transform="translate(-90.031 -66.711)" fill="#d4088c" opacity="0.4" style="isolation:isolate"/></g><g transform="translate(90.289 53.869)" opacity="0.5"><path d="M155.987,72.91H142.108L126.629,64c-1.995-1.155-5.476-1-7.779.323l-14.92,8.612H90.037v9.329a2.268,2.268,0,0,0,1.342,2.081l28.009,16.175c2,1.148,5.475,1.005,7.779-.323l26.918-15.543a3.333,3.333,0,0,0,1.894-2.4Z" transform="translate(-90.037 -53.862)" opacity="0.5" fill="url(#m)" style="isolation:isolate"/><path d="M90.92,82.885V73.556h13.9l14.919-8.611c2.3-1.328,5.785-1.471,7.772-.323l15.479,8.941h13v-.646H142.108L126.629,64c-1.995-1.155-5.476-1-7.779.323l-14.92,8.612H90.037v9.329a2.268,2.268,0,0,0,1.342,2.081l.158.093a1.944,1.944,0,0,1-.617-1.55Z" transform="translate(-90.037 -53.862)" fill="#d4088c" opacity="0.5" style="isolation:isolate"/><path d="M119.387,91.181,91.4,74.991c-2-1.148-1.744-3.157.552-4.485L118.87,54.963a8.772,8.772,0,0,1,7.779-.323l28.038,16.189c2,1.148,1.744,3.158-.56,4.485L127.209,90.858C124.884,92.186,121.4,92.329,119.387,91.181Z" transform="translate(-90.037 -53.862)" opacity="0.5" fill="url(#n)" style="isolation:isolate"/><path d="M154.666,70.829,126.628,54.668a7.276,7.276,0,0,0-3.925-.76,6.5,6.5,0,0,1,2.827.76l28.038,16.19c2,1.148,1.743,3.157-.56,4.485L126.09,90.887a8.885,8.885,0,0,1-3.854,1.083,9.147,9.147,0,0,0,4.952-1.083l26.918-15.544C156.409,73.987,156.661,71.977,154.666,70.829Z" transform="translate(-90.037 -53.862)" fill="#6ee8fc" opacity="0.5" style="isolation:isolate"/><path d="M122.848,87.327a5.428,5.428,0,0,1-2.634-.6L99.345,74.668a1.951,1.951,0,0,1-1.126-1.657,2.611,2.611,0,0,1,1.536-2.1L119.8,59.34a6.694,6.694,0,0,1,6.028-.237L146.7,71.174a1.945,1.945,0,0,1,1.12,1.657,2.633,2.633,0,0,1-1.536,2.1L126.242,86.5A6.961,6.961,0,0,1,122.848,87.327Zm-2.39-1.019A6.154,6.154,0,0,0,126,86.064L146.048,74.5a2.149,2.149,0,0,0,1.3-1.686,1.507,1.507,0,0,0-.883-1.242L125.589,59.519a6.156,6.156,0,0,0-5.547.237L100.013,71.324a2.152,2.152,0,0,0-1.3,1.687,1.5,1.5,0,0,0,.883,1.241Z" transform="translate(-90.037 -53.862)" fill="#480689" opacity="0.5" style="isolation:isolate"/><path d="M120.672,91.181,92.634,74.991c-2-1.148-1.744-3.157.56-4.485l26.911-15.544a8.834,8.834,0,0,1,3.789-1.076,9.183,9.183,0,0,0-5.024,1.076L91.952,70.506c-2.3,1.328-2.547,3.337-.552,4.485l27.987,16.19a7.307,7.307,0,0,0,3.99.753A6.409,6.409,0,0,1,120.672,91.181Z" transform="translate(-90.037 -53.862)" fill="#d4088c" opacity="0.5" style="isolation:isolate"/></g><g transform="translate(90.289 41.005)" opacity="0.7"><path d="M155.987,60.05H142.108l-15.479-8.934c-1.995-1.148-5.476-1.005-7.779.323L103.93,60.05H90.037v9.33a2.263,2.263,0,0,0,1.342,2.081l28.009,16.218c2,1.148,5.475,1,7.779-.323l26.918-15.544a3.329,3.329,0,0,0,1.894-2.4Z" transform="translate(-90.037 -40.998)" opacity="0.7" fill="url(#o)" style="isolation:isolate"/><path d="M90.92,70.032V60.7h13.9l14.919-8.611c2.3-1.328,5.785-1.478,7.772-.323L142.99,60.7h13v-.645H142.108l-15.479-8.935c-1.995-1.148-5.476-1.005-7.779.323l-14.92,8.612H90.037v9.329a2.263,2.263,0,0,0,1.342,2.081l.158.093a1.929,1.929,0,0,1-.617-1.529Z" transform="translate(-90.037 -40.998)" fill="#d4088c" opacity="0.7" style="isolation:isolate"/><path d="M119.387,78.35,91.4,62.139c-2-1.156-1.744-3.165.552-4.493L118.87,42.1c2.3-1.328,5.784-1.471,7.779-.323l28.038,16.189c2,1.149,1.744,3.165-.56,4.493L127.209,78A8.8,8.8,0,0,1,119.387,78.35Z" transform="translate(-90.037 -40.998)" opacity="0.7" fill="url(#p)" style="isolation:isolate"/><path d="M154.666,57.969,126.628,41.751a7.214,7.214,0,0,0-3.925-.717,6.506,6.506,0,0,1,2.827.717l28.038,16.19c2,1.148,1.743,3.164-.56,4.492L126.09,77.97a8.792,8.792,0,0,1-3.832,1.1,9.135,9.135,0,0,0,4.951-1.083l26.918-15.537C156.409,61.127,156.661,59.118,154.666,57.969Z" transform="translate(-90.037 -40.998)" fill="#6ee8fc" opacity="0.7" style="isolation:isolate"/><path d="M122.848,74.467a5.427,5.427,0,0,1-2.634-.6L99.345,61.845a1.954,1.954,0,0,1-1.126-1.658,2.615,2.615,0,0,1,1.536-2.1L119.8,46.516a6.694,6.694,0,0,1,6.028-.237L146.7,58.328a1.961,1.961,0,0,1,1.12,1.658,2.615,2.615,0,0,1-1.536,2.1L126.242,73.657A6.955,6.955,0,0,1,122.848,74.467Zm-2.39-1.019A6.152,6.152,0,0,0,126,73.212l20.043-11.576a2.151,2.151,0,0,0,1.3-1.679,1.505,1.505,0,0,0-.883-1.248L125.589,46.66a6.156,6.156,0,0,0-5.547.236L100.013,58.472a2.151,2.151,0,0,0-1.3,1.679A1.514,1.514,0,0,0,99.6,61.4Z" transform="translate(-90.037 -40.998)" fill="#480689" opacity="0.7" style="isolation:isolate"/><path d="M120.672,78.35,92.634,62.167c-2-1.155-1.744-3.164.56-4.492L120.105,42.1a8.821,8.821,0,0,1,3.789-1.077A9.239,9.239,0,0,0,118.87,42.1L91.952,57.646c-2.3,1.328-2.547,3.337-.552,4.493L119.387,78.35a7.167,7.167,0,0,0,3.99.717A6.415,6.415,0,0,1,120.672,78.35Z" transform="translate(-90.037 -40.998)" fill="#d4088c" opacity="0.7" style="isolation:isolate"/></g><path d="M155.987,47.2H142.108l-15.479-8.942c-1.995-1.148-5.476-1-7.779.323l-14.92,8.612H90.037V56.52a2.268,2.268,0,0,0,1.364,2.1L119.388,74.8c2,1.155,5.475,1.011,7.779-.323l26.939-15.5a3.33,3.33,0,0,0,1.9-2.411Z" transform="translate(0.252 0.007)" fill="url(#q)"/><path d="M90.92,57.173V47.844h13.9l14.919-8.612a8.763,8.763,0,0,1,7.772-.323l15.479,8.935h13v-.639H142.108l-15.479-8.941c-1.995-1.149-5.476-1.005-7.779.322L103.93,47.2H90.037v9.329A2.268,2.268,0,0,0,91.4,58.615l.158.086a1.928,1.928,0,0,1-.639-1.528Z" transform="translate(0.252 0.007)" fill="#d4088c"/><path d="M119.387,65.469,91.4,49.279c-2-1.148-1.744-3.165.552-4.492L118.87,29.25c2.3-1.335,5.784-1.478,7.779-.323L154.687,45.11c2,1.155,1.744,3.164-.56,4.492L127.188,65.146A8.708,8.708,0,0,1,119.387,65.469Z" transform="translate(0.252 0.007)" fill="url(#r)"/><path d="M154.666,45.11,126.628,28.927a7.208,7.208,0,0,0-3.925-.76,6.5,6.5,0,0,1,2.827.76L153.568,45.11c2,1.155,1.743,3.164-.56,4.492L126.09,65.146a8.885,8.885,0,0,1-3.854,1.076,9.2,9.2,0,0,0,4.952-1.076L154.106,49.6C156.409,48.274,156.661,46.265,154.666,45.11Z" transform="translate(0.252 0.007)" fill="#6ee8fc"/><path d="M122.848,61.608a5.345,5.345,0,0,1-2.634-.6L99.345,48.927a1.963,1.963,0,0,1-1.126-1.664,2.62,2.62,0,0,1,1.536-2.1L119.8,33.6a6.717,6.717,0,0,1,6.028-.244L146.7,45.411a1.948,1.948,0,0,1,1.12,1.658,2.612,2.612,0,0,1-1.536,2.1l-20.043,11.6A6.969,6.969,0,0,1,122.848,61.608Zm-2.39-1.019A6.156,6.156,0,0,0,126,60.352l20.043-11.575a2.155,2.155,0,0,0,1.3-1.679,1.514,1.514,0,0,0-.883-1.249L125.589,33.8a6.133,6.133,0,0,0-5.547.244L100.013,45.612a2.151,2.151,0,0,0-1.3,1.679A1.505,1.505,0,0,0,99.6,48.54Z" transform="translate(0.252 0.007)" fill="url(#s)"/><path d="M120.672,65.469,92.634,49.279c-2-1.148-1.744-3.165.56-4.492L120.105,29.25a8.716,8.716,0,0,1,3.789-1.076,9.183,9.183,0,0,0-5.024,1.076L91.952,44.787c-2.3,1.327-2.547,3.344-.552,4.492l27.987,16.19a7.313,7.313,0,0,0,3.99.717A6.415,6.415,0,0,1,120.672,65.469Z" transform="translate(0.252 0.007)" fill="#25bfec"/><path d="M128,70.664,151.68,56.943a.917.917,0,0,0,.4-.717V55.1c0-.287-.173-.423-.4-.294L128,68.526a.919.919,0,0,0-.394.717v1.12C127.6,70.657,127.769,70.786,128,70.664Z" transform="translate(0.252 0.007)" fill="#9495c0"/><path d="M151.184,56.649a.94.94,0,0,0,.395-.718V54.884l.122-.072c.223-.122.395,0,.395.294v1.127a.917.917,0,0,1-.395.717L128.02,70.671c-.223.122-.4,0-.4-.3V70.3Z" transform="translate(0.252 0.007)" fill="#267fe5"/><g transform="translate(0 64.401)" opacity="0.4"><path d="M65.73,83.467H51.823L36.344,74.525c-1.988-1.148-5.476-1.005-7.772.323L13.653,83.459H-.248v9.329a2.251,2.251,0,0,0,1.335,2.089l28.038,16.182c1.987,1.156,5.475,1.012,7.771-.323L63.814,95.2a3.331,3.331,0,0,0,1.9-2.412Z" transform="translate(0.252 -64.394)" opacity="0.4" fill="url(#t)" style="isolation:isolate"/><path d="M.635,93.42V84.091h13.9l14.92-8.612c2.3-1.327,5.784-1.471,7.779-.323L52.7,84.091H65.73v-.639H51.823L36.344,74.511c-1.988-1.149-5.476-1.005-7.772.323L13.653,83.445H-.248v9.329a2.248,2.248,0,0,0,1.335,2.088l.158.086a1.931,1.931,0,0,1-.61-1.528Z" transform="translate(0.252 -64.394)" fill="#d4088c" opacity="0.4" style="isolation:isolate"/><path d="M29.133,101.737,1.1,85.526c-2-1.148-1.744-3.165.553-4.492L28.573,65.5c2.3-1.334,5.784-1.478,7.772-.323L64.382,81.357c1.995,1.155,1.744,3.164-.56,4.492L36.9,101.393C34.608,102.749,31.12,102.885,29.133,101.737Z" transform="translate(0.252 -64.394)" opacity="0.4" fill="url(#u)" style="isolation:isolate"/><path d="M64.383,81.378,36.346,65.2a7.214,7.214,0,0,0-3.926-.761,6.52,6.52,0,0,1,2.828.761L63.285,81.378c1.995,1.156,1.744,3.165-.56,4.493L35.807,101.414a8.866,8.866,0,0,1-3.846,1.077,9.182,9.182,0,0,0,4.944-1.077L63.823,85.871C66.127,84.543,66.378,82.534,64.383,81.378Z" transform="translate(0.252 -64.394)" fill="#6ee8fc" opacity="0.4" style="isolation:isolate"/><path d="M32.556,97.876a5.346,5.346,0,0,1-2.633-.6L9.054,85.225A1.966,1.966,0,0,1,7.928,83.56a2.622,2.622,0,0,1,1.543-2.1L29.507,69.9a6.732,6.732,0,0,1,6.035-.244L56.41,81.7a1.969,1.969,0,0,1,1.12,1.665,2.615,2.615,0,0,1-1.536,2.1L35.965,97.008A7.062,7.062,0,0,1,32.556,97.876Zm-2.389-1.019a6.156,6.156,0,0,0,5.547-.236L55.757,85.045a2.151,2.151,0,0,0,1.3-1.679,1.514,1.514,0,0,0-.883-1.249L35.3,70.069a6.152,6.152,0,0,0-5.547.236L9.707,81.881a2.152,2.152,0,0,0-1.3,1.679,1.512,1.512,0,0,0,.882,1.248Z" transform="translate(0.252 -64.394)" fill="#480689" opacity="0.4" style="isolation:isolate"/><path d="M30.4,101.737,2.351,85.526c-2-1.148-1.744-3.165.56-4.492L29.829,65.5a8.716,8.716,0,0,1,3.789-1.076A9.148,9.148,0,0,0,28.594,65.5L1.669,81.034c-2.3,1.327-2.547,3.344-.552,4.492l28.037,16.19a7.281,7.281,0,0,0,3.983.753A6.512,6.512,0,0,1,30.4,101.737Z" transform="translate(0.252 -64.394)" fill="#d4088c" opacity="0.4" style="isolation:isolate"/></g><g transform="translate(0 51.555)" opacity="0.5"><path d="M65.732,70.607H51.825L36.346,61.672c-1.988-1.155-5.476-1.012-7.772.323l-14.92,8.612H-.246v9.329a2.246,2.246,0,0,0,1.335,2.081L29.126,98.206c1.988,1.149,5.476,1,7.772-.323L63.816,82.34a3.335,3.335,0,0,0,1.895-2.4Z" transform="translate(0.252 -51.548)" opacity="0.5" fill="url(#v)" style="isolation:isolate"/><path d="M.637,80.582V71.253h13.9l14.919-8.612a8.778,8.778,0,0,1,7.779-.323L52.707,71.26H65.739v-.646H51.825L36.346,61.68c-1.988-1.156-5.476-1.012-7.772.322l-14.92,8.612H-.246v9.329a2.244,2.244,0,0,0,1.335,2.081l.158.093a1.943,1.943,0,0,1-.61-1.535Z" transform="translate(0.252 -51.548)" fill="#d4088c" opacity="0.5" style="isolation:isolate"/><path d="M29.133,88.877,1.1,72.688c-2-1.148-1.744-3.158.553-4.485L28.573,52.659a8.76,8.76,0,0,1,7.772-.323l28.037,16.19c1.995,1.148,1.744,3.157-.56,4.485L36.9,88.554C34.608,89.882,31.12,90.026,29.133,88.877Z" transform="translate(0.252 -51.548)" opacity="0.5" fill="url(#w)" style="isolation:isolate"/><path d="M64.383,68.526,36.346,52.336a7.28,7.28,0,0,0-3.926-.761,6.52,6.52,0,0,1,2.828.761l28.037,16.19c1.995,1.148,1.744,3.157-.56,4.485L35.807,88.554a8.87,8.87,0,0,1-3.846,1.084A9.177,9.177,0,0,0,36.9,88.554L63.823,73.011C66.127,71.683,66.378,69.674,64.383,68.526Z" transform="translate(0.252 -51.548)" fill="#6ee8fc" opacity="0.5" style="isolation:isolate"/><path d="M32.556,85.024a5.359,5.359,0,0,1-2.633-.61L9.054,72.365a1.951,1.951,0,0,1-1.126-1.658,2.616,2.616,0,0,1,1.543-2.1L29.507,57.037a6.729,6.729,0,0,1,6.035-.244L56.41,68.849a1.945,1.945,0,0,1,1.12,1.657,2.611,2.611,0,0,1-1.536,2.1L35.958,84.177A6.987,6.987,0,0,1,32.556,85.024ZM32.9,56.663a6.464,6.464,0,0,0-3.15.79L9.715,69.021a2.149,2.149,0,0,0-1.3,1.686A1.508,1.508,0,0,0,9.3,71.949L30.174,84a6.156,6.156,0,0,0,5.547-.237L55.764,72.193a2.152,2.152,0,0,0,1.3-1.687,1.5,1.5,0,0,0-.882-1.241L35.305,57.209a4.917,4.917,0,0,0-2.4-.546Z" transform="translate(0.252 -51.548)" fill="#480689" opacity="0.5" style="isolation:isolate"/><path d="M30.4,88.877,2.365,72.688c-2-1.148-1.744-3.158.56-4.485l26.9-15.544a8.806,8.806,0,0,1,3.789-1.076,9.148,9.148,0,0,0-5.024,1.076L1.669,68.2c-2.3,1.327-2.547,3.337-.552,4.485L29.154,88.877a7.272,7.272,0,0,0,3.983.754A6.416,6.416,0,0,1,30.4,88.877Z" transform="translate(0.252 -51.548)" fill="#d4088c" opacity="0.5" style="isolation:isolate"/></g><g transform="translate(0 38.696)" opacity="0.7"><path d="M65.732,57.747H51.825L36.346,48.813c-1.988-1.149-5.476-1.005-7.772.323l-14.92,8.611H-.246v9.329a2.244,2.244,0,0,0,1.335,2.081l28.037,16.19c1.988,1.148,5.476,1,7.772-.323L63.816,69.48a3.333,3.333,0,0,0,1.895-2.4Z" transform="translate(0.252 -38.688)" opacity="0.7" fill="url(#x)" style="isolation:isolate"/><path d="M.637,67.729V58.4h13.9l14.919-8.611c2.3-1.328,5.785-1.472,7.779-.316l15.472,8.934H65.739v-.646H51.825L36.346,48.827c-1.988-1.148-5.476-1.005-7.772.323l-14.92,8.611H-.246V67.09a2.244,2.244,0,0,0,1.335,2.081l.158.094a1.938,1.938,0,0,1-.61-1.536Z" transform="translate(0.252 -38.688)" fill="#d4088c" opacity="0.7" style="isolation:isolate"/><path d="M29.133,76.018,1.1,59.828c-2-1.148-1.744-3.157.553-4.485L28.573,39.8c2.3-1.327,5.784-1.471,7.772-.323l28.037,16.19c1.995,1.148,1.744,3.157-.56,4.492L36.9,75.695C34.608,77.022,31.12,77.173,29.133,76.018Z" transform="translate(0.252 -38.688)" opacity="0.7" fill="url(#y)" style="isolation:isolate"/><path d="M64.383,55.666,36.346,39.476a7.279,7.279,0,0,0-3.926-.76,6.505,6.505,0,0,1,2.828.76l28.037,16.19c1.995,1.148,1.744,3.157-.56,4.492L35.807,75.695a8.883,8.883,0,0,1-3.846,1.083A9.118,9.118,0,0,0,36.9,75.695L63.823,60.158C66.127,58.823,66.378,56.821,64.383,55.666Z" transform="translate(0.252 -38.688)" fill="#6ee8fc" opacity="0.7" style="isolation:isolate"/><path d="M32.556,72.164a5.427,5.427,0,0,1-2.633-.6L9.054,59.505a1.951,1.951,0,0,1-1.126-1.658,2.6,2.6,0,0,1,1.543-2.1L29.507,44.177a6.708,6.708,0,0,1,6.035-.237L56.41,55.989a1.948,1.948,0,0,1,1.12,1.658,2.619,2.619,0,0,1-1.536,2.1L35.965,71.317A6.992,6.992,0,0,1,32.556,72.164ZM32.9,43.8a6.452,6.452,0,0,0-3.15.789L9.707,56.161a2.15,2.15,0,0,0-1.3,1.686,1.5,1.5,0,0,0,.882,1.242L30.174,71.174a6.136,6.136,0,0,0,5.547-.244L55.764,59.362a2.152,2.152,0,0,0,1.3-1.687,1.509,1.509,0,0,0-.882-1.241L35.305,44.385a4.828,4.828,0,0,0-2.4-.581Z" transform="translate(0.252 -38.688)" fill="#480689" opacity="0.7" style="isolation:isolate"/><path d="M30.4,76.018,2.365,59.828c-2-1.148-1.744-3.158.559-4.485L29.842,39.8a8.838,8.838,0,0,1,3.789-1.076A9.143,9.143,0,0,0,28.608,39.8L1.683,55.343c-2.3,1.327-2.548,3.337-.553,4.485l28.038,16.19a7.279,7.279,0,0,0,3.983.753A6.415,6.415,0,0,1,30.4,76.018Z" transform="translate(0.252 -38.688)" fill="#d4088c" opacity="0.7" style="isolation:isolate"/></g><path d="M65.73,44.887H51.823L36.344,35.953c-1.988-1.148-5.476-1-7.772.323L13.653,44.887H-.248v9.329A2.237,2.237,0,0,0,1.087,56.3l28.037,16.19c1.988,1.148,5.476,1,7.772-.323L63.814,56.62a3.319,3.319,0,0,0,1.9-2.4Z" transform="translate(0.252 0.007)" fill="url(#z)"/><path d="M.635,54.869V45.54h13.9l14.92-8.611c2.3-1.328,5.784-1.479,7.779-.323L52.706,45.54H65.738v-.646H51.823L36.344,35.96c-1.988-1.148-5.476-1-7.772.323L13.653,44.894H-.248v9.329a2.239,2.239,0,0,0,1.335,2.082l.158.093a1.931,1.931,0,0,1-.61-1.529Z" transform="translate(0.252 0.007)" fill="#d4088c"/><path d="M29.133,63.159,1.1,46.976c-2-1.155-1.744-3.164.553-4.492L28.573,26.94c2.3-1.327,5.784-1.471,7.772-.323l28.037,16.19c1.995,1.148,1.744,3.165-.56,4.492L36.9,62.836C34.608,64.17,31.12,64.314,29.133,63.159Z" transform="translate(0.252 0.007)" fill="url(#aa)"/><path d="M64.383,42.806,36.346,26.617A7.209,7.209,0,0,0,32.42,25.9a6.494,6.494,0,0,1,2.828.718L63.285,42.806c1.995,1.148,1.744,3.165-.56,4.492L35.807,62.835a8.77,8.77,0,0,1-3.846,1.083A9.109,9.109,0,0,0,36.9,62.835L63.823,47.3C66.127,45.971,66.378,43.954,64.383,42.806Z" transform="translate(0.252 0.007)" fill="#6ee8fc"/><path d="M32.556,59.3a5.427,5.427,0,0,1-2.633-.6L9.054,46.645a1.951,1.951,0,0,1-1.126-1.657,2.6,2.6,0,0,1,1.543-2.1L29.507,31.317a6.752,6.752,0,0,1,6.035-.237L56.41,43.129a1.969,1.969,0,0,1,1.12,1.665,2.621,2.621,0,0,1-1.536,2.1L35.958,58.457A6.987,6.987,0,0,1,32.556,59.3Zm-2.382-1.048a6.152,6.152,0,0,0,5.547-.236L55.764,46.444a2.151,2.151,0,0,0,1.3-1.679,1.515,1.515,0,0,0-.882-1.249L35.305,31.468a6.156,6.156,0,0,0-5.547.236L9.715,43.28a2.151,2.151,0,0,0-1.3,1.679A1.515,1.515,0,0,0,9.3,46.208Z" transform="translate(0.252 0.007)" fill="url(#ab)"/><path d="M30.4,63.158,2.365,46.975c-2-1.155-1.744-3.164.56-4.492L29.843,26.939a8.838,8.838,0,0,1,3.789-1.076,9.206,9.206,0,0,0-5.023,1.076L1.648,42.469C-.649,43.8-.9,45.806,1.1,46.961L29.133,63.143a7.166,7.166,0,0,0,3.982.718A6.3,6.3,0,0,1,30.4,63.158Z" transform="translate(0.252 0.007)" fill="#25bfec"/><path d="M27.885,68.36,4.2,54.64a.936.936,0,0,1-.29-.329.924.924,0,0,1-.1-.425V52.767c0-.287.172-.424.394-.295L27.885,66.186a.935.935,0,0,1,.279.314.923.923,0,0,1,.115.4v1.119C28.251,68.353,28.107,68.482,27.885,68.36Z" transform="translate(0.252 0.007)" fill="#9495c0"/><path d="M4.691,54.345a.954.954,0,0,1-.395-.753V52.515l-.122-.071c-.222-.13-.395,0-.395.294v1.119a.918.918,0,0,0,.395.754L27.855,68.332c.223.122.4,0,.4-.3v-.071Z" transform="translate(0.252 0.007)" fill="#267fe5"/><g transform="translate(45.008 92.558)" opacity="0.4"><path d="M110.777,111.612H96.834L81.355,102.67c-1.988-1.148-5.476-1-7.772.323L58.664,111.6H44.756v9.33a2.246,2.246,0,0,0,1.335,2.088l28.088,16.189c1.987,1.156,5.475,1.012,7.771-.323l26.918-15.536a3.328,3.328,0,0,0,1.9-2.411Z" transform="translate(-44.756 -92.551)" opacity="0.4" fill="url(#ac)" style="isolation:isolate"/><path d="M45.646,121.587v-9.33H59.539l14.92-8.611c2.3-1.328,5.784-1.471,7.779-.323l15.479,8.934h13.06v-.638H96.834L81.355,102.67c-1.988-1.148-5.476-1-7.772.323L58.664,111.6H44.756v9.33a2.246,2.246,0,0,0,1.335,2.088l.158.086a1.929,1.929,0,0,1-.6-1.521Z" transform="translate(-44.756 -92.551)" fill="#d4088c" opacity="0.4" style="isolation:isolate"/><path d="M74.179,129.882,46.141,113.693c-1.995-1.148-1.744-3.165.56-4.493L73.619,93.664c2.3-1.335,5.784-1.478,7.772-.323l28.037,16.182c1.995,1.156,1.744,3.165-.559,4.493L81.951,129.559C79.618,130.887,76.131,131.031,74.179,129.882Z" transform="translate(-44.756 -92.551)" opacity="0.4" fill="url(#ad)" style="isolation:isolate"/><path d="M109.393,109.523,81.355,93.341a7.176,7.176,0,0,0-3.918-.761,6.548,6.548,0,0,1,2.828.761l28.03,16.182c2,1.156,1.744,3.165-.553,4.493L80.817,129.559a8.87,8.87,0,0,1-3.846,1.077,9.184,9.184,0,0,0,4.944-1.077l26.918-15.543C111.137,112.688,111.388,110.679,109.393,109.523Z" transform="translate(-44.756 -92.551)" fill="#6ee8fc" opacity="0.4" style="isolation:isolate"/><path d="M77.573,126.021a5.368,5.368,0,0,1-2.633-.6L54.086,113.37a1.966,1.966,0,0,1-1.127-1.658,2.634,2.634,0,0,1,1.543-2.1L74.538,98.041a6.732,6.732,0,0,1,6.035-.244l20.876,12.056a1.954,1.954,0,0,1,1.126,1.658,2.607,2.607,0,0,1-1.543,2.1L81,125.182A6.985,6.985,0,0,1,77.573,126.021ZM75.184,125a6.153,6.153,0,0,0,5.547-.237l20.043-11.575a2.151,2.151,0,0,0,1.3-1.679,1.514,1.514,0,0,0-.883-1.249L80.315,98.206a6.136,6.136,0,0,0-5.547.244L54.724,110.018a2.158,2.158,0,0,0-1.3,1.687,1.507,1.507,0,0,0,.883,1.241Z" transform="translate(-44.756 -92.551)" fill="#480689" opacity="0.4" style="isolation:isolate"/><path d="M75.4,129.882,47.362,113.693c-1.995-1.149-1.744-3.165.56-4.493L74.84,93.664a8.762,8.762,0,0,1,3.789-1.077,9.149,9.149,0,0,0-5.024,1.077L46.666,109.208c-2.3,1.327-2.555,3.344-.56,4.492l28.073,16.182a7.292,7.292,0,0,0,3.983.754A6.424,6.424,0,0,1,75.4,129.882Z" transform="translate(-44.756 -92.551)" fill="#d4088c" opacity="0.4" style="isolation:isolate"/></g><g transform="translate(45.008 79.71)" opacity="0.5"><path d="M110.777,98.752H96.834l-15.479-8.92c-1.988-1.155-5.476-1.012-7.772.323L58.664,98.766H44.756v9.33a2.246,2.246,0,0,0,1.335,2.081l28.087,16.182c1.988,1.148,5.476,1,7.772-.323l26.918-15.544a3.331,3.331,0,0,0,1.9-2.4Z" transform="translate(-44.756 -79.703)" opacity="0.5" fill="url(#ae)" style="isolation:isolate"/><path d="M45.646,108.727V99.4H59.539l14.919-8.612a8.778,8.778,0,0,1,7.779-.323L97.716,99.4h13.061v-.646H96.834L81.355,89.832c-1.988-1.155-5.476-1.012-7.772.323L58.664,98.766H44.756V108.1a2.246,2.246,0,0,0,1.335,2.082l.158.093a1.945,1.945,0,0,1-.6-1.543Z" transform="translate(-44.756 -79.703)" fill="#d4088c" opacity="0.5" style="isolation:isolate"/><path d="M74.179,117.023l-28.038-16.19c-1.995-1.148-1.744-3.158.56-4.485L73.619,80.8a8.763,8.763,0,0,1,7.772-.323l28.037,16.19c1.995,1.148,1.744,3.157-.559,4.485L81.951,116.7C79.618,118.027,76.131,118.171,74.179,117.023Z" transform="translate(-44.756 -79.703)" opacity="0.5" fill="url(#af)" style="isolation:isolate"/><path d="M109.393,96.671,81.355,80.5a7.25,7.25,0,0,0-3.918-.761,6.548,6.548,0,0,1,2.828.761l28.03,16.189c2,1.149,1.744,3.158-.553,4.486L80.817,116.721a8.888,8.888,0,0,1-3.846,1.084,9.112,9.112,0,0,0,4.944-1.084l26.918-15.543C111.137,99.828,111.388,97.819,109.393,96.671Z" transform="translate(-44.756 -79.703)" fill="#6ee8fc" opacity="0.5" style="isolation:isolate"/><path d="M77.573,113.169a5.359,5.359,0,0,1-2.633-.61L54.086,100.51a1.949,1.949,0,0,1-1.127-1.658,2.64,2.64,0,0,1,1.543-2.1L74.538,85.182a6.708,6.708,0,0,1,6.035-.237l20.876,12.063a1.951,1.951,0,0,1,1.126,1.658,2.6,2.6,0,0,1-1.543,2.1L81,112.337A6.992,6.992,0,0,1,77.573,113.169Zm.352-28.36a6.454,6.454,0,0,0-3.157.789L54.724,97.166a2.154,2.154,0,0,0-1.3,1.686,1.507,1.507,0,0,0,.883,1.242l20.876,12.049a6.156,6.156,0,0,0,5.547-.237l20.043-11.568a2.153,2.153,0,0,0,1.3-1.686,1.5,1.5,0,0,0-.883-1.242L80.315,85.354A4.9,4.9,0,0,0,77.925,84.809Z" transform="translate(-44.756 -79.703)" fill="#480689" opacity="0.5" style="isolation:isolate"/><path d="M75.4,117.023l-28.037-16.19c-1.995-1.148-1.744-3.158.56-4.485L74.84,80.8a8.852,8.852,0,0,1,3.789-1.076A9.148,9.148,0,0,0,73.605,80.8L46.687,96.348c-2.3,1.327-2.554,3.337-.559,4.485l28.051,16.19a7.3,7.3,0,0,0,3.983.753A6.423,6.423,0,0,1,75.4,117.023Z" transform="translate(-44.756 -79.703)" fill="#d4088c" opacity="0.5" style="isolation:isolate"/></g><g transform="translate(45.008 66.845)" opacity="0.7"><path d="M110.777,85.892H96.834L81.355,76.958c-1.988-1.148-5.476-1-7.772.323L58.664,85.892H44.756v9.329A2.244,2.244,0,0,0,46.091,97.3l28.087,16.211c1.988,1.149,5.476,1,7.772-.323l26.918-15.543a3.335,3.335,0,0,0,1.9-2.4Z" transform="translate(-44.756 -66.838)" opacity="0.7" fill="url(#ag)" style="isolation:isolate"/><path d="M45.646,95.874V86.545H59.539l14.919-8.611c2.3-1.335,5.784-1.479,7.779-.323l15.479,8.934h13.061V85.9H96.834L81.355,76.958c-1.988-1.148-5.476-1-7.772.323L58.664,85.892H44.756v9.329A2.244,2.244,0,0,0,46.091,97.3l.158.094a1.938,1.938,0,0,1-.6-1.522Z" transform="translate(-44.756 -66.838)" fill="#d4088c" opacity="0.7" style="isolation:isolate"/><path d="M74.179,104.184,46.141,88c-1.995-1.155-1.744-3.165.56-4.492L73.619,67.966c2.3-1.328,5.784-1.471,7.772-.323l28.037,16.19c1.995,1.148,1.744,3.157-.559,4.492L81.951,103.861C79.618,105.168,76.131,105.318,74.179,104.184Z" transform="translate(-44.756 -66.838)" opacity="0.7" fill="url(#ah)" style="isolation:isolate"/><path d="M109.393,83.811,81.355,67.622a7.173,7.173,0,0,0-3.918-.754,6.457,6.457,0,0,1,2.828.754l28.03,16.189c2,1.148,1.744,3.158-.553,4.492L80.817,103.84a8.785,8.785,0,0,1-3.846,1.084,9.12,9.12,0,0,0,4.944-1.084L108.833,88.3C111.137,86.961,111.388,84.959,109.393,83.811Z" transform="translate(-44.756 -66.838)" fill="#6ee8fc" opacity="0.7" style="isolation:isolate"/><path d="M77.573,100.309a5.427,5.427,0,0,1-2.633-.6L54.086,87.679a1.949,1.949,0,0,1-1.127-1.658,2.618,2.618,0,0,1,1.543-2.1L74.538,72.351a6.705,6.705,0,0,1,6.035-.237l20.876,12.02a1.951,1.951,0,0,1,1.126,1.658,2.616,2.616,0,0,1-1.543,2.1L81,99.462A6.976,6.976,0,0,1,77.573,100.309Zm.352-28.36a6.454,6.454,0,0,0-3.157.789L54.724,84.306a2.158,2.158,0,0,0-1.3,1.687,1.5,1.5,0,0,0,.883,1.241L75.184,99.29a6.133,6.133,0,0,0,5.547-.244l20.043-11.568a2.149,2.149,0,0,0,1.3-1.686,1.507,1.507,0,0,0-.883-1.242L80.315,72.5A4.823,4.823,0,0,0,77.925,71.949Z" transform="translate(-44.756 -66.838)" fill="#480689" opacity="0.7" style="isolation:isolate"/><path d="M75.4,104.184,47.362,88c-1.995-1.155-1.744-3.165.56-4.492L74.84,67.966a8.838,8.838,0,0,1,3.789-1.076,9.139,9.139,0,0,0-5.024,1.076L46.687,83.51c-2.3,1.327-2.554,3.337-.559,4.492l28.051,16.182a7.291,7.291,0,0,0,3.983.718A6.419,6.419,0,0,1,75.4,104.184Z" transform="translate(-44.756 -66.838)" fill="#d4088c" opacity="0.7" style="isolation:isolate"/></g><path d="M110.777,73.032H96.834L81.355,64.1c-1.988-1.148-5.476-1.005-7.772.323L58.664,73.032H44.756v9.329a2.246,2.246,0,0,0,1.335,2.089l28.088,16.189c1.987,1.156,5.475,1,7.771-.323l26.883-15.508a3.327,3.327,0,0,0,1.894-2.411Z" transform="translate(0.252 0.007)" fill="url(#ai)"/><path d="M45.646,83.014V73.685H59.539l14.92-8.611c2.3-1.328,5.784-1.471,7.779-.323l15.479,8.934h13.06v-.646H96.834L81.355,64.1c-1.988-1.148-5.476-1.005-7.772.323L58.664,73.032H44.756v9.329a2.246,2.246,0,0,0,1.335,2.089l.158.086a1.929,1.929,0,0,1-.6-1.522Z" transform="translate(0.252 0.007)" fill="#d4088c"/><path d="M74.179,91.3,46.106,75.122c-1.995-1.156-1.744-3.165.56-4.493L73.584,55.086c2.3-1.328,5.784-1.472,7.772-.316l28.037,16.182c2,1.156,1.744,3.165-.56,4.492L81.915,90.988C79.619,92.316,76.131,92.459,74.179,91.3Z" transform="translate(0.252 0.007)" fill="#502fac"/><path d="M75.4,91.3,47.362,75.121c-1.995-1.156-1.744-3.165.56-4.493L74.84,55.085a8.943,8.943,0,0,1,3.789-1.077,9.2,9.2,0,0,0-5.024,1.077L46.687,70.628c-2.3,1.328-2.554,3.337-.559,4.493L74.179,91.3a7.238,7.238,0,0,0,3.983.761A6.414,6.414,0,0,1,75.4,91.3Z" transform="translate(0.252 0.007)" fill="#25bfec"/><path d="M82.719,96.506l23.753-13.721a.929.929,0,0,0,.388-.718V80.941c0-.288-.173-.424-.388-.295L82.719,94.331a.961.961,0,0,0-.4.718v1.119C82.324,96.5,82.5,96.628,82.719,96.506Z" transform="translate(0.252 0.007)" fill="#9495c0"/><path d="M105.912,82.491a.946.946,0,0,0,.289-.33.934.934,0,0,0,.106-.424V80.689l.129-.071c.216-.13.388,0,.388.294v1.126a.929.929,0,0,1-.388.718L82.719,96.506c-.215.122-.4,0-.4-.3v-.071Z" transform="translate(0.252 0.007)" fill="#267fe5"/><path d="M72.951,96.506,49.233,82.785a.932.932,0,0,1-.387-.718V80.941c0-.288.172-.424.387-.295L72.951,94.36a.964.964,0,0,1,.394.718V96.2C73.345,96.5,73.166,96.628,72.951,96.506Z" transform="translate(0.252 0.007)" fill="#9495c0"/><path d="M49.779,82.491a.958.958,0,0,1-.4-.754V80.689l-.129-.071c-.216-.13-.388,0-.388.294v1.126a.929.929,0,0,0,.388.718L72.972,96.477c.215.122.395,0,.395-.3V96.1Z" transform="translate(0.252 0.007)" fill="#267fe5"/><path d="M74.4,37.324,46.363,21.134c-1.988-1.148-1.744-3.165.56-4.492L73.841,1.105C76.144-.23,79.625-.373,81.62.782l28.037,16.183c2,1.155,1.744,3.164-.56,4.492L82.179,37C79.876,38.328,76.4,38.472,74.4,37.324Z" transform="translate(0.252 0.007)" fill="#502fac"/><path d="M75.613,31.36,56.725,20.452c-1.35-.775-1.177-2.153.373-3.021L75.239,6.954a5.819,5.819,0,0,1,5.239-.215l18.9,10.907c1.342.775,1.177,2.153-.38,3.029L80.858,31.145a5.832,5.832,0,0,1-5.245.215Z" transform="translate(0.252 0.007)" opacity="0.23" fill="url(#aj)" style="isolation:isolate"/><path d="M119.387,65.469,91.4,49.279c-2-1.148-1.744-3.165.552-4.492L118.87,29.25c2.3-1.335,5.784-1.478,7.779-.323L154.687,45.11c2,1.155,1.744,3.164-.56,4.492L127.188,65.146A8.708,8.708,0,0,1,119.387,65.469Z" transform="translate(0.252 0.007)" fill="#502fac"/><path d="M29.133,63.158,1.1,46.976c-2-1.156-1.744-3.165.553-4.493L28.573,26.94c2.3-1.328,5.784-1.472,7.772-.323L64.382,42.806c1.995,1.148,1.744,3.165-.56,4.493L36.9,62.835C34.608,64.17,31.12,64.313,29.133,63.158Z" transform="translate(0.252 0.007)" fill="#502fac"/><path d="M31.186,55.217l-16.67-9.631c-1.184-.682-1.04-1.88.33-2.669l16.01-9.243a5.158,5.158,0,0,1,4.629-.194l16.67,9.63c1.184.682,1.041,1.881-.33,2.67l-16.01,9.243a5.158,5.158,0,0,1-4.629.194Z" transform="translate(0.252 0.007)" fill="#454658" opacity="0.3" style="isolation:isolate"/><path d="M75.612,83.9l-16.67-9.63c-1.184-.682-1.041-1.88.33-2.67l16.01-9.243a5.162,5.162,0,0,1,4.629-.193l16.67,9.63c1.184.682,1.041,1.88-.33,2.67l-16.01,9.243a5.162,5.162,0,0,1-4.629.193Z" transform="translate(0.252 0.007)" fill="#454658" opacity="0.3" style="isolation:isolate"/><path d="M123.06,35.637l-1.328-.768,1.328-.768,1.335.768Z" transform="translate(0.252 0.007)" fill="#6de0f6"/><path d="M125.722,37.18l-1.327-.768,1.327-.775,1.335.775Z" transform="translate(0.252 0.007)" fill="#6de0f6" opacity="0.1" style="isolation:isolate"/><path d="M128.384,38.716l-1.327-.768,1.327-.768,1.335.768Z" transform="translate(0.252 0.007)" fill="#6de0f6" opacity="0.4" style="isolation:isolate"/><path d="M131.046,40.251l-1.327-.767,1.327-.768,1.335.768Z" transform="translate(0.252 0.007)" fill="#6de0f6"/><path d="M133.71,41.787l-1.327-.768,1.327-.768,1.335.768Z" transform="translate(0.252 0.007)" fill="#6de0f6" opacity="0.4" style="isolation:isolate"/><path d="M136.373,43.323l-1.328-.768,1.328-.768,1.334.768Z" transform="translate(0.252 0.007)" fill="#6de0f6"/><path d="M139.035,44.866l-1.328-.768,1.328-.775,1.334.775Z" transform="translate(0.252 0.007)" fill="#6de0f6"/><path d="M141.7,46.4l-1.328-.767,1.328-.768,1.335.768Z" transform="translate(0.252 0.007)" fill="#6de0f6"/><path d="M144.359,47.937l-1.328-.768,1.328-.768,1.335.768Z" transform="translate(0.252 0.007)" fill="#6de0f6" opacity="0.1" style="isolation:isolate"/><path d="M120.391,37.18l-1.334-.768,1.334-.768,1.328.768Z" transform="translate(0.252 0.007)" fill="#6de0f6"/><path d="M123.054,38.723l-1.335-.768,1.335-.775,1.327.775Z" transform="translate(0.252 0.007)" fill="#6de0f6"/><path d="M125.716,40.259l-1.335-.768,1.335-.768,1.327.768Z" transform="translate(0.252 0.007)" fill="#6de0f6"/><path d="M128.378,41.794l-1.335-.768,1.335-.767,1.327.767Z" transform="translate(0.252 0.007)" fill="#6de0f6"/><path d="M131.042,43.33l-1.335-.768,1.335-.768,1.327.768Z" transform="translate(0.252 0.007)" fill="#6de0f6"/><path d="M133.7,44.866l-1.335-.768,1.335-.768,1.328.768Z" transform="translate(0.252 0.007)" fill="#6de0f6"/><path d="M136.366,46.409l-1.335-.775,1.335-.768,1.328.768Z" transform="translate(0.252 0.007)" fill="#6de0f6"/><path d="M139.028,47.944l-1.335-.768,1.335-.767,1.328.767Z" transform="translate(0.252 0.007)" fill="#6de0f6"/><path d="M141.69,49.48l-1.335-.768,1.335-.768,1.328.768Z" transform="translate(0.252 0.007)" fill="#6de0f6"/><path d="M117.714,38.73l-1.327-.768,1.327-.775,1.335.775Z" transform="translate(0.252 0.007)" fill="#6de0f6"/><path d="M120.376,40.266l-1.327-.768,1.327-.768,1.335.768Z" transform="translate(0.252 0.007)" fill="#6de0f6"/><path d="M123.039,41.8l-1.328-.767,1.328-.768,1.334.768Z" transform="translate(0.252 0.007)" fill="#6de0f6"/><path d="M125.7,43.337l-1.328-.768L125.7,41.8l1.334.768Z" transform="translate(0.252 0.007)" fill="#6de0f6" opacity="0.1" style="isolation:isolate"/><path d="M128.365,44.873l-1.328-.768,1.328-.768,1.334.768Z" transform="translate(0.252 0.007)" fill="#6de0f6" opacity="0.4" style="isolation:isolate"/><path d="M131.027,46.409l-1.328-.768,1.328-.768,1.335.768Z" transform="translate(0.252 0.007)" fill="#6de0f6" opacity="0.4" style="isolation:isolate"/><path d="M133.689,47.951l-1.328-.767,1.328-.775,1.335.775Z" transform="translate(0.252 0.007)" fill="#6de0f6"/><path d="M136.351,49.487l-1.328-.768,1.328-.768,1.335.768Z" transform="translate(0.252 0.007)" fill="#6de0f6"/><path d="M139.013,51.023l-1.327-.768,1.327-.768,1.335.768Z" transform="translate(0.252 0.007)" fill="#6de0f6"/><path d="M115.044,40.273l-1.335-.768,1.335-.775,1.327.775Z" transform="translate(0.252 0.007)" fill="#6de0f6" opacity="0.4" style="isolation:isolate"/><path d="M117.706,41.809l-1.335-.768,1.335-.768,1.327.768Z" transform="translate(0.252 0.007)" fill="#6de0f6" opacity="0.4" style="isolation:isolate"/><path d="M120.368,43.344l-1.335-.768,1.335-.767,1.328.767Z" transform="translate(0.252 0.007)" fill="#6de0f6" opacity="0.1" style="isolation:isolate"/><path d="M123.03,44.88l-1.335-.768,1.335-.768,1.328.768Z" transform="translate(0.252 0.007)" fill="#6de0f6"/><path d="M125.694,46.416l-1.335-.768,1.335-.768,1.328.768Z" transform="translate(0.252 0.007)" fill="#6de0f6"/><path d="M128.356,47.958l-1.335-.775,1.335-.767,1.328.767Z" transform="translate(0.252 0.007)" fill="#6de0f6"/><path d="M131.018,49.494l-1.334-.768,1.334-.767,1.328.767Z" transform="translate(0.252 0.007)" fill="#6de0f6" opacity="0.4" style="isolation:isolate"/><path d="M133.68,51.03l-1.334-.768,1.334-.768,1.328.768Z" transform="translate(0.252 0.007)" fill="#6de0f6"/><path d="M136.343,52.566l-1.335-.768,1.335-.768,1.327.768Z" transform="translate(0.252 0.007)" fill="#6de0f6"/><path d="M112.369,41.816l-1.328-.768,1.328-.768,1.334.768Z" transform="translate(0.252 0.007)" fill="#6de0f6"/><path d="M115.031,43.351l-1.328-.767,1.328-.768,1.334.768Z" transform="translate(0.252 0.007)" fill="#6de0f6"/><path d="M117.693,44.887l-1.328-.768,1.328-.767,1.335.767Z" transform="translate(0.252 0.007)" fill="#6de0f6"/><path d="M120.355,46.423l-1.328-.768,1.328-.768,1.335.768Z" transform="translate(0.252 0.007)" fill="#6de0f6"/><path d="M123.019,47.959l-1.328-.768,1.328-.768,1.335.768Z" transform="translate(0.252 0.007)" fill="#6de0f6"/><path d="M125.681,49.5l-1.327-.767,1.327-.775,1.335.775Z" transform="translate(0.252 0.007)" fill="#6de0f6"/><path d="M128.343,51.037l-1.327-.768,1.327-.768,1.335.768Z" transform="translate(0.252 0.007)" fill="#6de0f6"/><path d="M131.005,52.573l-1.327-.768,1.327-.768,1.335.768Z" transform="translate(0.252 0.007)" fill="#6de0f6"/><path d="M133.667,54.109l-1.327-.768,1.327-.768,1.335.768Z" transform="translate(0.252 0.007)" fill="#6de0f6"/><path d="M109.7,43.359l-1.335-.768,1.335-.775,1.328.775Z" transform="translate(0.252 0.007)" fill="#6de0f6"/><path d="M112.36,44.894l-1.335-.768,1.335-.767,1.328.767Z" transform="translate(0.252 0.007)" fill="#6de0f6"/><path d="M115.022,46.43l-1.334-.768,1.334-.768,1.328.768Z" transform="translate(0.252 0.007)" fill="#6de0f6" opacity="0.4" style="isolation:isolate"/><path d="M117.684,47.966,116.35,47.2l1.334-.768,1.328.768Z" transform="translate(0.252 0.007)" fill="#6de0f6"/><path d="M120.348,49.5l-1.334-.767,1.334-.768,1.328.768Z" transform="translate(0.252 0.007)" fill="#6de0f6" opacity="0.1" style="isolation:isolate"/><path d="M123.011,51.044l-1.335-.768,1.335-.775,1.327.775Z" transform="translate(0.252 0.007)" fill="#6de0f6"/><path d="M125.673,52.58l-1.335-.768,1.335-.768,1.327.768Z" transform="translate(0.252 0.007)" fill="#6de0f6"/><path d="M128.335,54.116,127,53.348l1.335-.768,1.327.768Z" transform="translate(0.252 0.007)" fill="#6de0f6"/><path d="M131,55.652l-1.335-.768L131,54.116l1.327.768Z" transform="translate(0.252 0.007)" fill="#6de0f6"/><path d="M107.021,44.9l-1.328-.768,1.328-.768,1.335.768Z" transform="translate(0.252 0.007)" fill="#6de0f6"/><path d="M109.683,46.437l-1.328-.768,1.328-.767,1.335.767Z" transform="translate(0.252 0.007)" fill="#6de0f6"/><path d="M112.345,47.973l-1.327-.768,1.327-.768,1.335.768Z" transform="translate(0.252 0.007)" fill="#6de0f6" opacity="0.4" style="isolation:isolate"/><path d="M115.007,49.509l-1.327-.768,1.327-.768,1.335.768Z" transform="translate(0.252 0.007)" fill="#6de0f6"/><path d="M117.671,51.052l-1.327-.776,1.327-.767,1.335.767Z" transform="translate(0.252 0.007)" fill="#6de0f6"/><path d="M120.333,52.587l-1.327-.768,1.327-.767,1.335.767Z" transform="translate(0.252 0.007)" fill="#6de0f6" opacity="0.1" style="isolation:isolate"/><path d="M123,54.123l-1.328-.768L123,52.587l1.334.768Z" transform="translate(0.252 0.007)" fill="#6de0f6" opacity="0.4" style="isolation:isolate"/><path d="M125.658,55.659l-1.328-.768,1.328-.768,1.334.768Z" transform="translate(0.252 0.007)" fill="#6de0f6"/><path d="M128.32,57.194l-1.328-.768,1.328-.767,1.335.767Z" transform="translate(0.252 0.007)" fill="#6de0f6" opacity="0.1" style="isolation:isolate"/><path d="M104.352,46.444l-1.334-.767,1.334-.768,1.328.768Z" transform="translate(0.252 0.007)" fill="#6de0f6"/><path d="M107.014,47.98l-1.334-.768,1.334-.768,1.328.768Z" transform="translate(0.252 0.007)" fill="#6de0f6" opacity="0.4" style="isolation:isolate"/><path d="M109.677,49.516l-1.335-.768,1.335-.768,1.327.768Z" transform="translate(0.252 0.007)" fill="#6de0f6"/><path d="M112.339,51.052,111,50.284l1.335-.768,1.327.768Z" transform="translate(0.252 0.007)" fill="#6de0f6"/><path d="M115,52.594l-1.335-.767L115,51.052l1.327.775Z" transform="translate(0.252 0.007)" fill="#6de0f6"/><path d="M117.665,54.13l-1.335-.768,1.335-.768,1.327.768Z" transform="translate(0.252 0.007)" fill="#6de0f6"/><path d="M120.327,55.666l-1.335-.768,1.335-.768,1.328.768Z" transform="translate(0.252 0.007)" fill="#6de0f6"/><path d="M122.989,57.2l-1.335-.768,1.335-.768,1.328.768Z" transform="translate(0.252 0.007)" fill="#6de0f6" opacity="0.4" style="isolation:isolate"/><path d="M125.651,58.737l-1.335-.768,1.335-.767,1.328.767Z" transform="translate(0.252 0.007)" fill="#6de0f6"/><path d="M101.675,47.987l-1.327-.768,1.327-.767,1.335.767Z" transform="translate(0.252 0.007)" fill="#6de0f6"/><path d="M104.337,49.523l-1.327-.768,1.327-.768,1.335.768Z" transform="translate(0.252 0.007)" fill="#6de0f6" opacity="0.1" style="isolation:isolate"/><path d="M107,51.059l-1.327-.768L107,49.523l1.335.768Z" transform="translate(0.252 0.007)" fill="#6de0f6"/><path d="M109.662,52.594l-1.328-.767,1.328-.768,1.334.768Z" transform="translate(0.252 0.007)" fill="#6de0f6"/><path d="M112.326,54.137,111,53.362l1.328-.768,1.334.768Z" transform="translate(0.252 0.007)" fill="#6de0f6"/><path d="M114.988,55.673,113.66,54.9l1.328-.768,1.335.768Z" transform="translate(0.252 0.007)" fill="#6de0f6"/><path d="M117.65,57.209l-1.328-.768,1.328-.768,1.335.768Z" transform="translate(0.252 0.007)" fill="#6de0f6" opacity="0.4" style="isolation:isolate"/><path d="M120.312,58.744l-1.328-.767,1.328-.768,1.335.768Z" transform="translate(0.252 0.007)" fill="#6de0f6"/><path d="M122.974,60.28l-1.328-.768,1.328-.768,1.335.768Z" transform="translate(0.252 0.007)" fill="#6de0f6"/><path d="M122.845,61.658a5.276,5.276,0,0,1-2.6-.6L99.1,48.863a1.847,1.847,0,0,1-1.062-1.55,2.5,2.5,0,0,1,1.486-2l20.3-11.726a6.663,6.663,0,0,1,5.971-.244l21.141,12.2a1.846,1.846,0,0,1,1.069,1.557,2.507,2.507,0,0,1-1.485,1.995L126.211,60.818A6.951,6.951,0,0,1,122.845,61.658Zm.352-28.705a6.732,6.732,0,0,0-3.272.818L99.623,45.5a2.326,2.326,0,0,0-1.392,1.83,1.66,1.66,0,0,0,.969,1.385l21.148,12.2a6.43,6.43,0,0,0,5.741-.244l20.33-11.741A2.33,2.33,0,0,0,147.8,47.1a1.668,1.668,0,0,0-.961-1.392l-21.149-12.2a5.07,5.07,0,0,0-2.5-.582Z" transform="translate(0.252 0.007)" fill="#480689"/></g></g></g></svg>