<svg id="Calque_1" data-name="Calque 1" xmlns="http://www.w3.org/2000/svg" width="17" height="19" viewBox="0 0 48.19 53.86"><defs><style>.cls-1{fill:#fff;}</style></defs><path class="cls-1" d="M32,25.58a2.82,2.82,0,1,1-2.81-3A2.89,2.89,0,0,1,32,25.58Zm-12.86-3a3,3,0,1,0,2.81,3A2.9,2.9,0,0,0,19.11,22.59Zm29.08-17V53.86c-6.94-6-4.72-4-12.78-11.34l1.46,5H5.64A5.59,5.59,0,0,1,0,42V5.55A5.6,5.6,0,0,1,5.64,0h36.9A5.6,5.6,0,0,1,48.19,5.55ZM40.34,31.08a35.5,35.5,0,0,0-4-15.7,13.84,13.84,0,0,0-7.74-2.83l-.39.43a18.5,18.5,0,0,1,6.86,3.42,23.84,23.84,0,0,0-20.57-.78c-1,.46-1.63.78-1.63.78a18.73,18.73,0,0,1,7.25-3.53l-.28-.32a13.84,13.84,0,0,0-7.74,2.83,35.5,35.5,0,0,0-4,15.7s2.31,3.9,8.4,4.09c0,0,1-1.21,1.84-2.24a8.53,8.53,0,0,1-4.82-3.17c.41.27,1.08.63,1.13.67a20.44,20.44,0,0,0,17.18.94,15.63,15.63,0,0,0,3.17-1.59,8.7,8.7,0,0,1-5,3.21c.82,1,1.81,2.18,1.81,2.18,6.09-.19,8.43-4.09,8.43-4.09Z" transform="translate(0 0)"/></svg>