<svg xmlns="http://www.w3.org/2000/svg" xmlns:xlink="http://www.w3.org/1999/xlink" width="420.552" height="231.447" viewBox="0 0 420.552 231.447"><defs><linearGradient id="a" x1="102.729" y1="-386.049" x2="120.297" y2="-449.869" gradientUnits="objectBoundingBox"><stop offset="0" stop-color="#bcbeff"/><stop offset="0.23" stop-color="#aaadf8"/><stop offset="0.68" stop-color="#7c83e5"/><stop offset="1" stop-color="#5761d7"/></linearGradient><linearGradient id="b" x1="252.493" y1="-9.56" x2="303.924" y2="-9.56" gradientUnits="objectBoundingBox"><stop offset="0" stop-color="#e9e9fd"/><stop offset="0.36" stop-color="#d3d2f9"/><stop offset="0.71" stop-color="#c5c4f7"/><stop offset="1" stop-color="#c0bff6"/></linearGradient><linearGradient id="c" x1="0.5" y1="-1.439" x2="0.5" y2="-2.071" gradientUnits="objectBoundingBox"><stop offset="0" stop-color="#151b2b" stop-opacity="0"/><stop offset="0.515" stop-color="#6273a0" stop-opacity="0.49"/><stop offset="1" stop-color="#e9e9fd"/></linearGradient><clipPath id="d"><rect width="13.733" height="13.763" fill="none"/></clipPath><linearGradient id="e" x1="102.727" y1="-373.692" x2="120.295" y2="-437.508" xlink:href="#a"/><linearGradient id="f" x1="252.487" y1="-1.065" x2="303.916" y2="-1.065" xlink:href="#b"/><linearGradient id="g" x1="0.5" y1="1.108" x2="0.5" y2="0.475" xlink:href="#c"/><clipPath id="h"><rect width="14.563" height="15.621" fill="none"/></clipPath><linearGradient id="i" x1="102.735" y1="-373.201" x2="120.303" y2="-437.015" xlink:href="#a"/><linearGradient id="j" x1="252.493" y1="-0.725" x2="303.923" y2="-0.725" xlink:href="#b"/><linearGradient id="k" x1="0.5" y1="1.21" x2="0.5" y2="0.577" xlink:href="#c"/><clipPath id="l"><rect width="17.772" height="12.616" fill="none"/></clipPath><linearGradient id="m" x1="102.731" y1="-362.456" x2="120.299" y2="-426.27" xlink:href="#a"/><linearGradient id="n" x1="252.493" y1="6.683" x2="303.923" y2="6.683" xlink:href="#b"/><linearGradient id="o" x1="0.5" y1="3.43" x2="0.5" y2="2.798" gradientUnits="objectBoundingBox"><stop offset="0" stop-color="#151b2b" stop-opacity="0"/><stop offset="0.515" stop-color="#f90" stop-opacity="0.259"/><stop offset="1" stop-color="#f90" stop-opacity="0.478"/></linearGradient><clipPath id="p"><rect width="18.31" height="10.587" fill="none"/></clipPath></defs><rect width="48.059" height="13.657" rx="1.513" transform="translate(357.755 67.093)" fill="rgba(177,96,240,0.1)"/><path d="M364.061,77.188V73.439h.052l1.473,3.542h.68l1.473-3.542h.052v3.749h.886V71.859h-1.115l-1.6,3.881h-.066l-1.6-3.881h-1.115v5.329Zm7.578-.687c-.639,0-1-.488-1-1.333s.365-1.334,1-1.334,1,.492,1,1.334S372.278,76.5,371.639,76.5Zm0,.768a2.108,2.108,0,1,0-1.942-2.1A1.868,1.868,0,0,0,371.639,77.269Zm2.866-.081h.916V74.835a.869.869,0,0,1,.89-.971c.558,0,.816.31.816.927v2.4h.916V74.573c0-.964-.491-1.507-1.392-1.507a1.206,1.206,0,0,0-1.2.728h-.063v-.646h-.883Zm4.635,0h.912v-4.04h-.912Zm.454-4.7a.509.509,0,1,0-.565-.506A.516.516,0,0,0,379.594,72.49Zm1.888-.332v1.015h-.639V73.9h.639v2.2c0,.783.369,1.1,1.3,1.1a2.584,2.584,0,0,0,.48-.044v-.717a2.456,2.456,0,0,1-.31.019c-.384,0-.554-.177-.554-.576V73.9h.864v-.732h-.864V72.158Zm4.4,4.343c-.639,0-1-.488-1-1.333s.365-1.334,1-1.334,1,.492,1,1.334S386.519,76.5,385.88,76.5Zm0,.768a2.108,2.108,0,1,0-1.942-2.1A1.868,1.868,0,0,0,385.88,77.269Zm2.866-.081h.916V74.854a.923.923,0,0,1,1.008-.935,2.079,2.079,0,0,1,.469.052v-.849a1.565,1.565,0,0,0-.38-.041,1.069,1.069,0,0,0-1.068.694h-.062v-.627h-.883Zm3.209,0h.913v-4.04h-.913Zm.455-4.7a.509.509,0,1,0-.565-.506A.516.516,0,0,0,392.41,72.49Zm1.6,4.7h.916V74.835a.869.869,0,0,1,.89-.971c.558,0,.816.31.816.927v2.4h.916V74.573c0-.964-.491-1.507-1.392-1.507a1.209,1.209,0,0,0-1.2.728h-.062v-.646h-.883Zm7.383-2.065c0,.772-.384,1.26-1.023,1.26s-1-.488-1-1.26.362-1.263,1-1.263S401.388,74.351,401.388,75.123Zm-1.023,3.6c1.178,0,1.924-.587,1.924-1.521V73.148h-.883v.646h-.063a1.369,1.369,0,0,0-1.252-.713c-1.03,0-1.669.805-1.669,2.042,0,1.215.635,2.006,1.655,2.006a1.322,1.322,0,0,0,1.233-.669h.063v.765c0,.506-.366.8-.994.8-.5,0-.827-.177-.886-.454h-.92C398.647,78.266,399.327,78.724,400.365,78.724Z" transform="translate(-0.901 -0.766)" fill="#b160f0"/><rect width="62.059" height="13.657" rx="1.513" transform="translate(225.732)" fill="rgba(248,170,20,0.1)"/><path d="M233.14,11.052A2.107,2.107,0,0,0,235.4,9.227h-.938a1.261,1.261,0,0,1-1.318.975c-.909,0-1.474-.746-1.474-1.95s.565-1.946,1.47-1.946a1.292,1.292,0,0,1,1.318,1.053h.938a2.152,2.152,0,0,0-2.256-1.9c-1.511,0-2.445,1.067-2.445,2.8S231.629,11.052,233.14,11.052Zm3.257-.133h.916v-5.6H236.4Zm3.819-.687c-.639,0-1.005-.488-1.005-1.333s.366-1.334,1.005-1.334,1,.492,1,1.334S240.855,10.232,240.216,10.232Zm0,.768a1.868,1.868,0,0,0,1.942-2.1,1.949,1.949,0,1,0-3.885,0A1.866,1.866,0,0,0,240.216,11ZM246.6,6.878h-.915V9.231a.86.86,0,0,1-.92.964c-.547,0-.8-.3-.8-.92v-2.4h-.916V9.5a1.325,1.325,0,0,0,1.4,1.5,1.19,1.19,0,0,0,1.208-.724h.063v.643h.882Zm2.586,4.107a1.36,1.36,0,0,0,1.255-.7h.063v.639h.886v-5.6h-.915v2.2h-.063a1.31,1.31,0,0,0-1.226-.709c-1.02,0-1.662.805-1.662,2.083S248.16,10.985,249.183,10.985Zm.284-3.394c.628,0,1.016.5,1.016,1.308s-.384,1.307-1.016,1.307-1.008-.491-1.008-1.307S248.843,7.591,249.467,7.591Zm7.294-.779a1.37,1.37,0,0,0-1.256.735h-.062V6.878h-.883v5.385h.916V10.306h.063a1.289,1.289,0,0,0,1.233.679c1.019,0,1.655-.8,1.655-2.086S257.784,6.812,256.761,6.812Zm-.288,3.394c-.624,0-1.012-.5-1.016-1.307s.4-1.308,1.02-1.308,1.008.491,1.008,1.308S257.108,10.206,256.473,10.206Zm2.873.713h.916V8.585a.923.923,0,0,1,1.008-.935,2.08,2.08,0,0,1,.469.052V6.853a1.565,1.565,0,0,0-.38-.041,1.067,1.067,0,0,0-1.067.694h-.063V6.878h-.883Zm4.786-.687c-.638,0-1-.488-1-1.333s.366-1.334,1-1.334,1,.492,1,1.334S264.771,10.232,264.132,10.232Zm0,.768a1.868,1.868,0,0,0,1.943-2.1,1.949,1.949,0,1,0-3.885,0A1.866,1.866,0,0,0,264.132,11Zm2.353-4.122,1.437,4.041h1.008l1.429-4.041h-.967L268.465,10H268.4l-.935-3.125Zm4.661,4.041h.912V6.878h-.912Zm.454-4.7a.509.509,0,1,0-.565-.506A.516.516,0,0,0,271.6,6.221Zm3.058,4.764a1.361,1.361,0,0,0,1.256-.7h.062v.639h.887v-5.6h-.916v2.2h-.063a1.31,1.31,0,0,0-1.226-.709c-1.019,0-1.662.805-1.662,2.083S273.635,10.985,274.658,10.985Zm.284-3.394c.628,0,1.016.5,1.016,1.308s-.384,1.307-1.016,1.307-1.008-.491-1.008-1.307S274.318,7.591,274.942,7.591Zm4.772-.066a.915.915,0,0,1,.931.982h-1.9A.964.964,0,0,1,279.714,7.525Zm.938,2.282a.9.9,0,0,1-.9.465,1,1,0,0,1-1.012-1.093V9.131h2.821V8.836A1.791,1.791,0,0,0,279.718,6.8a1.873,1.873,0,0,0-1.9,2.116A1.845,1.845,0,0,0,279.725,11a1.672,1.672,0,0,0,1.795-1.193Zm1.828,1.112h.916V8.585A.923.923,0,0,1,284.4,7.65a2.079,2.079,0,0,1,.469.052V6.853a1.564,1.564,0,0,0-.38-.041,1.069,1.069,0,0,0-1.068.694h-.062V6.878h-.883Z" transform="translate(-0.901 -0.766)" fill="#f90"/><rect width="39.059" height="13.657" rx="1.513" transform="translate(133.951 67.667)" fill="rgba(35,150,237,0.1)"/><path d="M140.491,74.046h1.078a.866.866,0,0,1,.975.894.84.84,0,0,1-.952.89h-1.1Zm0,2.541h1.056l1.045,2h1.09l-1.164-2.145a1.545,1.545,0,0,0,1-1.518,1.626,1.626,0,0,0-1.821-1.666h-2.164v5.329h.953Zm5.662-1.4a.914.914,0,0,1,.93.983h-1.9A.966.966,0,0,1,146.153,75.191Zm.938,2.283a.9.9,0,0,1-.9.465,1,1,0,0,1-1.011-1.093V76.8H148v-.3a1.791,1.791,0,0,0-1.843-2.038,1.872,1.872,0,0,0-1.9,2.116,1.844,1.844,0,0,0,1.906,2.087,1.67,1.67,0,0,0,1.794-1.193Zm4.586-.953c0,.772-.384,1.259-1.023,1.259s-1-.487-1-1.259.362-1.263,1-1.263S151.677,75.749,151.677,76.521Zm-1.023,3.6c1.179,0,1.925-.588,1.925-1.522V74.545H151.7v.646h-.063a1.371,1.371,0,0,0-1.252-.712c-1.03,0-1.669.805-1.669,2.042,0,1.215.635,2,1.654,2a1.322,1.322,0,0,0,1.234-.668h.063v.764c0,.506-.366.8-.994.8-.5,0-.827-.178-.886-.455h-.92C148.937,79.664,149.617,80.122,150.654,80.122Zm3.062-1.537h.912v-4.04h-.912Zm.454-4.7a.509.509,0,1,0-.565-.506A.517.517,0,0,0,154.17,73.888Zm1.5,1.813c0,.609.366.968,1.142,1.145l.716.166c.384.085.558.229.558.458,0,.3-.322.5-.783.5s-.742-.177-.831-.476h-.9c.07.735.7,1.171,1.714,1.171s1.721-.518,1.721-1.293c0-.6-.359-.927-1.13-1.1l-.713-.162c-.406-.092-.6-.233-.6-.462,0-.292.313-.491.731-.491s.7.181.764.465h.861c-.067-.735-.669-1.159-1.629-1.159S155.673,74.97,155.673,75.7Zm4.521-2.146v1.016h-.639V75.3h.639v2.205c0,.783.369,1.1,1.3,1.1a2.578,2.578,0,0,0,.48-.045v-.716a2.672,2.672,0,0,1-.31.018c-.384,0-.554-.177-.554-.576V75.3h.864v-.731h-.864V73.555Zm2.692,5.03h.916V76.251a.922.922,0,0,1,1.008-.934,2.079,2.079,0,0,1,.469.052v-.85a1.57,1.57,0,0,0-.38-.04,1.067,1.067,0,0,0-1.067.694h-.063v-.628h-.883Zm3.627,1.466c.9,0,1.337-.332,1.68-1.336l1.459-4.17h-.968l-.941,3.154h-.063l-.946-3.154h-1l1.444,4.059-.048.177a.662.662,0,0,1-.724.521,1.813,1.813,0,0,1-.251-.015v.75C166.21,80.048,166.457,80.051,166.513,80.051Z" transform="translate(-0.901 -0.766)" fill="#2396ed"/><path d="M107.776,181.034V176.06h-1.041v4.974Zm2.171,0v-3.326H110l1.269,3.04h.693l1.265-3.04h.055v3.326h.965V176.06h-1.224l-1.379,3.344h-.062l-1.375-3.344h-1.227v4.974Zm8.7,0h1.127l-1.727-4.974h-1.224l-1.727,4.974h1.045l.382-1.186h1.748Zm-1.276-3.94h.062l.617,1.951h-1.3Zm7.394,1.91v-.635H122.68v.783h1.079l0,.09a1.064,1.064,0,0,1-1.176,1c-.82,0-1.337-.648-1.337-1.714,0-1.044.493-1.682,1.3-1.682a1.118,1.118,0,0,1,1.151.8h1.034a2.043,2.043,0,0,0-2.185-1.714,2.627,2.627,0,0,0,.024,5.229A2.026,2.026,0,0,0,124.769,179Zm4.295,1.141H126.81v-1.21h2.126v-.824H126.81v-1.162h2.254v-.889h-3.295v4.974h3.295Z" transform="translate(-0.901 -0.766)" fill="#8686b3"/><path d="M126.3,154.607l-2.909.036,1.483,2.5Zm-58.546,35.1,56.724-33.728-.257-.433L67.5,189.277Z" transform="translate(-0.901 -0.766)" fill="#8686b3"/><rect width="15.059" height="13.657" rx="1.513" transform="translate(32.658 138.774)" fill="#454658"/><path d="M40.065,149a2.106,2.106,0,0,0,2.256-1.825h-.938a1.261,1.261,0,0,1-1.318.975c-.909,0-1.474-.746-1.474-1.95s.565-1.946,1.47-1.946a1.293,1.293,0,0,1,1.319,1.052h.938a2.154,2.154,0,0,0-2.257-1.9c-1.51,0-2.445,1.068-2.445,2.8S38.554,149,40.065,149Zm4.269-.133v-5.33h-.953v5.33Z" transform="translate(-0.901 -0.766)" fill="#c7c7db"/><path d="M1.213,208.955l40.732-23.566a1.659,1.659,0,0,1,1.5,0L81.832,207.6a.46.46,0,0,1,0,.87L41.1,232.032a1.655,1.655,0,0,1-1.5,0L1.213,209.825A.459.459,0,0,1,1.213,208.955Z" transform="translate(-0.901 -0.766)" fill="#c5c4f7" opacity="0.1" style="isolation:isolate"/><path d="M39.087,217.672h0a4.407,4.407,0,0,0,2.14.512,4.36,4.36,0,0,0,2.134-.512h0l11.225-6.492a1.41,1.41,0,0,0,0-2.656l-11.225-6.491h0l0,0a4.728,4.728,0,0,0-4.272,0h0l0,0-11.222,6.492a1.6,1.6,0,0,0-.934,1.32h0v.009a1.619,1.619,0,0,0,.934,1.325ZM54.45,210.9h0l-.009,0-11.222,6.505a4.412,4.412,0,0,1-3.987,0L28.01,210.909h0l-.009,0a1.122,1.122,0,0,1,0-2.128h0l.009-.006,11.222-6.493a4.412,4.412,0,0,1,3.987,0l11.222,6.493h0l.01,0a1.122,1.122,0,0,1,0,2.128Z" transform="translate(-0.901 -0.766)" fill="#5d64d2" stroke="#5d64d2" stroke-width="0.1"/><path d="M55.817,207.359v-3.85l-.7-.392c-.2,1.2-1.606,2-2.792,2.161l-8.04,4.708-3.512,1.274-11.2-5.795.261-.148a5.135,5.135,0,0,1-1.991-2.411l-.755.449-.448.126V207.4a1.7,1.7,0,0,0,.987,1.381l11.218,6.494a5.283,5.283,0,0,0,4.766,0l11.223-6.494a1.7,1.7,0,0,0,.982-1.353v-.068Z" transform="translate(-0.901 -0.766)" fill="#5d64d2" opacity="0.4" style="isolation:isolate"/><path d="M55.817,203.935v-2.547l-.7-.392c-.2,1.2-1.606,2-2.792,2.16l-8.04,4.715-3.512,1.268-11.2-5.8.261-.148a5.111,5.111,0,0,1-1.991-2.411l-.755.449-.448.131v2.61a1.7,1.7,0,0,0,.987,1.382l11.218,6.494a5.291,5.291,0,0,0,4.766,0l11.223-6.494A1.706,1.706,0,0,0,55.811,204v-.063Z" transform="translate(-0.901 -0.766)" fill="url(#a)"/><path d="M52.321,203.156l-8.04,4.714-3.052,1.1v3.446a4.863,4.863,0,0,0,2.383-.569l11.223-6.494A1.706,1.706,0,0,0,55.817,204v-2.61l-.642-.358h-.068C54.892,202.212,53.5,202.991,52.321,203.156Z" transform="translate(-0.901 -0.766)" fill="#0f054c" opacity="0.3" style="isolation:isolate"/><path d="M38.84,209.247l-11.218-6.483c-1.316-.756-1.316-2,0-2.758l11.218-6.494a5.291,5.291,0,0,1,4.766,0l11.223,6.494c1.311.762,1.311,2,0,2.758l-11.217,6.483a5.254,5.254,0,0,1-4.772,0Z" transform="translate(-0.901 -0.766)" fill="url(#b)"/><path d="M54.835,202.764l-11.223,6.483a5.258,5.258,0,0,1-4.766,0l-11.224-6.483a1.766,1.766,0,0,1-.976-1.217,1.55,1.55,0,0,0,.976,1.535l11.218,6.494a5.25,5.25,0,0,0,4.766,0l11.224-6.494a1.581,1.581,0,0,0,.97-1.535,1.771,1.771,0,0,1-.965,1.217Z" transform="translate(-0.901 -0.766)" fill="#fff"/><path d="M52.331,198.724V146.655H29.637v52.136c0,1.491.99,1.343,3.033,2.483,4.046,2.237,12.589,2.237,16.636,0C51.379,200.119,52.385,200.238,52.331,198.724Z" transform="translate(-0.901 -0.766)" opacity="0.3" fill="url(#c)" style="isolation:isolate"/><g transform="translate(33.32 161.946)"><g clip-path="url(#d)"><g transform="translate(0.045)"><path d="M40.989,171.193a1.626,1.626,0,1,0-1.641-1.626A1.634,1.634,0,0,0,40.989,171.193Z" transform="translate(-34.266 -162.712)" fill="#c7c7db"/><path d="M34.285,167.843c0,.02-.019.059-.019.079a.332.332,0,0,0,.336.333H37.39a.324.324,0,0,0,.3-.2,3.575,3.575,0,1,1,0,3,.313.313,0,0,0-.3-.215H34.6a.332.332,0,0,0-.336.333.118.118,0,0,0,.019.078,6.836,6.836,0,1,0,0-3.408Z" transform="translate(-34.266 -162.712)" fill="#c7c7db"/></g></g></g><path d="M340.523,137.274l40.732-23.566a1.659,1.659,0,0,1,1.5,0l38.384,22.207a.46.46,0,0,1,0,.87L380.41,160.351a1.655,1.655,0,0,1-1.5,0l-38.383-22.207A.46.46,0,0,1,340.523,137.274Z" transform="translate(-0.901 -0.766)" fill="#b160f0" opacity="0.1" style="isolation:isolate"/><path d="M378.395,145.991h0a4.4,4.4,0,0,0,2.14.512,4.36,4.36,0,0,0,2.134-.512h0L393.9,139.5a1.411,1.411,0,0,0,0-2.656l-11.226-6.491h0l0,0a4.728,4.728,0,0,0-4.272,0h0l0,0-11.221,6.493a1.582,1.582,0,0,0-.646.531,1.6,1.6,0,0,0-.289.788h0v.009a1.622,1.622,0,0,0,.935,1.325Zm15.364-6.767h0l-.009,0-11.222,6.505a4.41,4.41,0,0,1-3.986,0l-11.223-6.505h0l-.01,0a1.122,1.122,0,0,1,0-2.128h0l.009-.005,11.223-6.494a4.41,4.41,0,0,1,3.986,0l11.222,6.494h0l.01,0a1.122,1.122,0,0,1,0,2.128Z" transform="translate(-0.901 -0.766)" fill="#5d64d2" stroke="#5d64d2" stroke-width="0.1"/><path d="M395.125,135.678v-3.85l-.7-.392c-.2,1.2-1.606,2-2.792,2.161l-8.04,4.708-3.512,1.274-11.2-5.795.261-.147a5.15,5.15,0,0,1-1.992-2.412l-.754.45-.449.125v3.918a1.706,1.706,0,0,0,.988,1.382l11.217,6.494a5.293,5.293,0,0,0,4.767,0l11.223-6.494a1.706,1.706,0,0,0,.982-1.354v-.068Z" transform="translate(-0.901 -0.766)" fill="#5d64d2" opacity="0.4" style="isolation:isolate"/><path d="M395.125,132.255v-2.548l-.7-.392c-.2,1.2-1.606,2-2.792,2.161l-8.04,4.714-3.512,1.268-11.2-5.795.261-.148a5.114,5.114,0,0,1-1.992-2.411l-.754.45-.449.13v2.611a1.712,1.712,0,0,0,.31.822,1.69,1.69,0,0,0,.678.559l11.217,6.494a5.285,5.285,0,0,0,4.767,0l11.223-6.494a1.706,1.706,0,0,0,.982-1.359v-.062Z" transform="translate(-0.901 -0.766)" fill="url(#e)"/><path d="M391.63,131.476l-8.04,4.714-3.053,1.1v3.446a4.861,4.861,0,0,0,2.383-.569l11.224-6.494a1.7,1.7,0,0,0,.981-1.359v-2.61l-.641-.358h-.068C394.2,130.532,392.8,131.311,391.63,131.476Z" transform="translate(-0.901 -0.766)" fill="#0f054c" opacity="0.3" style="isolation:isolate"/><path d="M378.148,137.566l-11.217-6.483c-1.317-.756-1.317-2,0-2.758l11.217-6.494a5.293,5.293,0,0,1,4.767,0l11.223,6.494c1.311.762,1.311,2,0,2.758l-11.218,6.483a5.254,5.254,0,0,1-4.772,0Z" transform="translate(-0.901 -0.766)" fill="url(#f)"/><path d="M394.144,131.083l-11.223,6.483a5.26,5.26,0,0,1-4.767,0l-11.223-6.483a1.759,1.759,0,0,1-.976-1.217,1.551,1.551,0,0,0,.976,1.536l11.218,6.494a5.258,5.258,0,0,0,4.766,0l11.223-6.494a1.581,1.581,0,0,0,.971-1.536,1.774,1.774,0,0,1-.342.721A1.749,1.749,0,0,1,394.144,131.083Z" transform="translate(-0.901 -0.766)" fill="#fff"/><path d="M391.64,127.043V74.974h-22.7v52.137c0,1.491.991,1.342,3.033,2.482,4.047,2.237,12.59,2.237,16.636,0C390.688,128.438,391.694,128.557,391.64,127.043Z" transform="translate(-0.901 -0.766)" opacity="0.3" fill="url(#g)" style="isolation:isolate"/><g transform="translate(372.347 90.575)"><g clip-path="url(#h)"><g transform="translate(-0.289 -1.458)"><path d="M385.42,101.285,384.1,100.4l-1.106,1.861-1.285-.379-1.132,1.742.058.548,6.154-1.143-.358-3.877Zm-5.738-1.672.987-.137a2.418,2.418,0,0,0,.463.149,1.437,1.437,0,0,0,1.155-.106,2.025,2.025,0,0,0,.467-.418l4.045-.74.412,5.036-6.929,1.259ZM387.2,97.8l-.4.076-.767-7.991-13.07,1.528,1.61,13.176,1.53-.224a3.473,3.473,0,0,0-.637-.661,1.077,1.077,0,0,1-.026-1.423c.352-.684,2.164-1.554,2.061-2.647a1.943,1.943,0,0,0-.465-1.27,1.218,1.218,0,0,0,.011.289,1.479,1.479,0,0,1-.226-.457,2.265,2.265,0,0,1-.211-.268,1,1,0,0,0-.049.337,2.111,2.111,0,0,1-.143-.54.862.862,0,0,0-.091.321,2.091,2.091,0,0,1-.124-.71,3.374,3.374,0,0,1-.227-1.622,1.291,1.291,0,0,0,1.619-.294c.113-.168.191-.628-.057-1.534a13.654,13.654,0,0,0-.708-1.774l-.018.014c.081.264.248.818.312,1.087a2.964,2.964,0,0,1,.155,1.475c-.077.326-.263.54-.735.779s-1.1-.344-1.136-.376a2.547,2.547,0,0,1-.852-1.259c-.041-.32.182-.511.295-.772a2.808,2.808,0,0,0-.341.129,4.193,4.193,0,0,1,.479-.418,2.779,2.779,0,0,0,.29-.216c-.168,0-.3,0-.3,0a5.378,5.378,0,0,1,.567-.263c-.211-.009-.413,0-.413,0s.622-.281,1.113-.487a.665.665,0,0,1,.853.172,1.477,1.477,0,0,0,1.041.666,4.512,4.512,0,0,1,.852-.34,1.351,1.351,0,0,1,.657-.461.674.674,0,0,0-.181.341,4.65,4.65,0,0,1,.437-.3,1.52,1.52,0,0,0-.171.285l.019.029a4.3,4.3,0,0,1,.53-.263s-.082.1-.178.239c.183,0,.556.008.7.025.853.018,1.03-.919,1.357-1.037.41-.147.593-.236,1.292.455.6.594,1.068,1.657.835,1.9-.2.2-.579-.077-1.006-.613a2.329,2.329,0,0,1-.475-1.045,1.026,1.026,0,0,0-.329-.568,1.876,1.876,0,0,1,.152.642,2.121,2.121,0,0,0,.282,1.124c-.026.051-.038.25-.067.288a3.975,3.975,0,0,0-1.064-.714,6.042,6.042,0,0,1,1.508,1.638c.3.62.124,1.189.276,1.336a5.267,5.267,0,0,1,.764,1.183,2.3,2.3,0,0,1-.254,1.8l-.741.117a1.044,1.044,0,0,1-.278-.1,1.892,1.892,0,0,0,.161-.383l-.042-.074a3.15,3.15,0,0,1-.938.833,1.577,1.577,0,0,1-1.22.105,6.977,6.977,0,0,1-1.944-1.048s-.006.128.032.156a6.906,6.906,0,0,0,1.242,1.044l-1.065.118.5,3.953c-.223.032-.257.048-.5.083a2.648,2.648,0,0,0-1.077-1.56,2.018,2.018,0,0,0-1.469-.21l-.034.039a1.881,1.881,0,0,1,1.237.3,2.863,2.863,0,0,1,.912,1.421,1.847,1.847,0,0,1-.165,1.761,1.483,1.483,0,0,1-1.981.159,1.211,1.211,0,0,0,.83.635,1.573,1.573,0,0,0,1.4-.383,2.313,2.313,0,0,0,.417-1.644l.474-.069.171,1.227,7.847-.953Zm-4.774-3.334c-.022.051-.057.084-.005.248l0,.009.008.021.022.049a.972.972,0,0,0,.366.466,1.189,1.189,0,0,1,.138-.015.638.638,0,0,1,.326.053.665.665,0,0,0,0-.149c-.012-.243.048-.656-.415-.874a.475.475,0,0,0-.5.045.172.172,0,0,1,.039.009C382.528,94.371,382.444,94.414,382.422,94.465Zm1.3,2.269a1.715,1.715,0,0,0-.545,0,2.577,2.577,0,0,0-.881.249.281.281,0,0,0,.032.441,1.35,1.35,0,0,0,.949.385c.193-.025.363-.333.483-.612C383.842,97.009,383.842,96.8,383.721,96.734Zm-3.369-1.968c.108-.1-.534-.237-1.032.105a.7.7,0,0,0-.027,1.1.941.941,0,0,0,.091.07,2.99,2.99,0,0,1,.354-.142,3.173,3.173,0,0,1,.572-.134.624.624,0,0,0,.139-.5C380.42,94.9,380.148,94.963,380.352,94.766Z" transform="translate(-372.959 -89.884)" fill="#b160f0" fill-rule="evenodd"/></g></g></g><path d="M112.219,134.407l40.732-23.566a1.659,1.659,0,0,1,1.5,0l38.384,22.207a.46.46,0,0,1,0,.87l-40.732,23.566a1.655,1.655,0,0,1-1.5,0l-38.383-22.207A.46.46,0,0,1,112.219,134.407Z" transform="translate(-0.901 -0.766)" fill="#2396ed" opacity="0.1" style="isolation:isolate"/><path d="M150.092,143.124h0a4.407,4.407,0,0,0,2.14.512,4.36,4.36,0,0,0,2.134-.512h0l11.225-6.492a1.409,1.409,0,0,0,0-2.655l-11.225-6.492h0a4.72,4.72,0,0,0-4.272,0h0l0,0-11.221,6.493a1.592,1.592,0,0,0-.934,1.319h0v.009a1.619,1.619,0,0,0,.934,1.325Zm15.364-6.767h0l-.008.006-11.223,6.5a4.41,4.41,0,0,1-3.986,0l-11.222-6.5h0l-.01,0a1.122,1.122,0,0,1,0-2.128h0l.009,0,11.222-6.494a4.41,4.41,0,0,1,3.986,0l11.223,6.494h0l.01,0a1.122,1.122,0,0,1,0,2.128Z" transform="translate(-0.901 -0.766)" fill="#2396ed" stroke="#2396ed" stroke-width="0.1"/><path d="M166.822,132.811v-3.85l-.7-.392c-.2,1.2-1.606,2-2.792,2.161l-8.04,4.708-3.512,1.274-11.2-5.795.261-.148a5.135,5.135,0,0,1-1.991-2.411l-.755.45-.448.125v3.918a1.7,1.7,0,0,0,.987,1.382l11.218,6.494a5.291,5.291,0,0,0,4.766,0l11.223-6.494a1.706,1.706,0,0,0,.982-1.354v-.068Z" transform="translate(-0.901 -0.766)" fill="#2396ed" opacity="0.4" style="isolation:isolate"/><path d="M166.822,129.388V126.84l-.7-.392c-.2,1.2-1.606,2-2.792,2.161l-8.04,4.714-3.512,1.268-11.2-5.795.261-.147a5.114,5.114,0,0,1-1.991-2.412l-.755.45-.448.13v2.611a1.7,1.7,0,0,0,.987,1.381l11.218,6.494a5.283,5.283,0,0,0,4.766,0l11.223-6.494a1.706,1.706,0,0,0,.982-1.359v-.062Z" transform="translate(-0.901 -0.766)" fill="url(#i)"/><path d="M163.327,128.609l-8.04,4.714-3.053,1.1v3.446a4.86,4.86,0,0,0,2.383-.569l11.224-6.494a1.7,1.7,0,0,0,.981-1.359v-2.61l-.641-.358h-.068C165.9,127.665,164.5,128.444,163.327,128.609Z" transform="translate(-0.901 -0.766)" fill="#0f054c" opacity="0.3" style="isolation:isolate"/><path d="M149.846,134.7l-11.218-6.483c-1.316-.756-1.316-2,0-2.758l11.218-6.494a5.291,5.291,0,0,1,4.766,0l11.223,6.494c1.311.762,1.311,2,0,2.758L154.618,134.7a5.254,5.254,0,0,1-4.772,0Z" transform="translate(-0.901 -0.766)" fill="url(#j)"/><path d="M165.841,128.216,154.618,134.7a5.258,5.258,0,0,1-4.766,0l-11.224-6.483a1.766,1.766,0,0,1-.976-1.217,1.551,1.551,0,0,0,.976,1.536l11.218,6.494a5.258,5.258,0,0,0,4.766,0l11.224-6.494a1.582,1.582,0,0,0,.97-1.536,1.78,1.78,0,0,1-.342.721A1.76,1.76,0,0,1,165.841,128.216Z" transform="translate(-0.901 -0.766)" fill="#fff"/><path d="M163.337,124.176V72.107H140.643v52.137c0,1.491.99,1.342,3.033,2.482,4.046,2.237,12.589,2.237,16.635,0C162.385,125.571,163.391,125.69,163.337,124.176Z" transform="translate(-0.901 -0.766)" opacity="0.3" fill="url(#k)" style="isolation:isolate"/><g transform="translate(143.181 87.398)"><g clip-path="url(#l)"><g transform="translate(0 0)"><path d="M161.487,92.971a3.209,3.209,0,0,0-2.034-.238,2.734,2.734,0,0,0-1.134-1.807l-.384-.273-.267.392a3.187,3.187,0,0,0-.45,1.909,2.253,2.253,0,0,0,.35,1.04,2.81,2.81,0,0,1-1.35.307H144.162l-.033.136a6.045,6.045,0,0,0,1.25,4.45,5.634,5.634,0,0,0,4.586,1.875c4.368,0,7.6-2.063,9.121-5.8a2.526,2.526,0,0,0,2.534-1.279c.017-.034.05-.1.167-.358l.067-.136ZM153.8,88.164h-1.834v1.705H153.8Zm0,2.046h-1.834v1.7H153.8v-1.7Zm-2.168,0H149.8v1.7h1.834v-1.7Zm-2.167,0H147.63v1.7h1.835v-1.7ZM147.3,92.255h-1.834V93.96H147.3V92.255Zm2.168,0H147.63V93.96h1.835V92.255Zm2.167,0H149.8V93.96h1.834V92.255Zm2.168,0h-1.834V93.96H153.8V92.255Zm2.168,0h-1.835V93.96h1.835V92.255Z" transform="translate(-144.082 -88.164)" fill="#2396ed"/></g></g></g><path d="M230.861,89.862l-2.909.04,1.486,2.5Zm-48.667,29.315,46.847-27.936-.258-.433-46.847,27.936Z" transform="translate(-0.901 -0.766)" fill="#8686b3"/><path d="M211.8,112.4v4.977h1.958a2.206,2.206,0,0,0,2.334-2.523,2.184,2.184,0,0,0-2.334-2.454Zm1.041.889h.752a1.383,1.383,0,0,1,1.437,1.582c0,1.052-.517,1.617-1.437,1.617h-.752Zm7.528,3.2h-2.254v-1.21h2.127v-.824h-2.127V113.3h2.254v-.89h-3.295v4.974h3.295Zm1.1-4.085v4.974h1.041v-1.544h.983a1.657,1.657,0,0,0,1.775-1.71,1.631,1.631,0,0,0-1.723-1.72Zm1.041.855h.759c.6,0,.941.3.941.869s-.348.862-.945.862h-.755Zm6.97,3.213h-2.213v-4.068h-1.041v4.974h3.254Zm2.982-4.195a2.625,2.625,0,1,0,2.388,2.613A2.336,2.336,0,0,0,232.462,112.28Zm0,.913c.81,0,1.327.659,1.327,1.7s-.517,1.7-1.327,1.7-1.331-.665-1.331-1.7S231.655,113.193,232.462,113.193Zm5.5,4.188v-1.83l1.73-3.144h-1.127l-1.093,2.082h-.062l-1.1-2.082h-1.127l1.734,3.144v1.83Z" transform="translate(-0.901 -0.766)" fill="#8686b3"/><path d="M293.07,82.26l2.908.059-1.508,2.493Zm2.069.959,57.925,35.122-.261.431L294.878,83.651Z" transform="translate(-0.901 -0.766)" fill="#8686b3"/><path d="M293.791,117.381v-3.326h.055l1.269,3.04h.693l1.265-3.04h.055v3.326h.965v-4.974h-1.224l-1.379,3.344h-.062l-1.375-3.344h-1.227v4.974Zm7.683-5.1a2.625,2.625,0,1,0,2.389,2.613A2.336,2.336,0,0,0,301.474,112.28Zm0,.913c.81,0,1.327.659,1.327,1.7s-.517,1.7-1.327,1.7-1.33-.665-1.33-1.7S300.668,113.193,301.474,113.193Zm4.371,4.188v-3.112h.062l2.3,3.112h.862v-4.974h-1v3.1h-.062l-2.288-3.1h-.869v4.974Zm5.47,0v-4.974h-1.041v4.974Zm3.454,0V113.3h1.493v-.89h-4.026v.89h1.492v4.084Zm4.416-5.1a2.625,2.625,0,1,0,2.388,2.613A2.336,2.336,0,0,0,319.185,112.28Zm0,.913c.81,0,1.327.659,1.327,1.7s-.517,1.7-1.327,1.7-1.331-.665-1.331-1.7S318.378,113.193,319.185,113.193Zm4.415.055h.9a.751.751,0,0,1,.841.769.73.73,0,0,1-.83.762H323.6Zm0,2.331h.852l.927,1.8h1.179l-1.048-1.964a1.469,1.469,0,0,0,.9-1.414,1.56,1.56,0,0,0-1.765-1.6h-2.089v4.974H323.6Z" transform="translate(-0.901 -0.766)" fill="#8686b3"/><path d="M215.215,71.9l40.732-23.566a1.659,1.659,0,0,1,1.5,0l38.384,22.208a.46.46,0,0,1,0,.87L255.1,94.979a1.661,1.661,0,0,1-1.5,0L215.215,72.771A.46.46,0,0,1,215.215,71.9Z" transform="translate(-0.901 -0.766)" fill="#f8aa14" opacity="0.1" style="isolation:isolate"/><path d="M253.087,80.618h0a4.407,4.407,0,0,0,2.14.512,4.36,4.36,0,0,0,2.134-.512h0l11.225-6.492a1.41,1.41,0,0,0,0-2.656l-11.225-6.491h0a4.72,4.72,0,0,0-4.272,0h0l0,0-11.222,6.493a1.6,1.6,0,0,0-.934,1.319h0V72.8a1.619,1.619,0,0,0,.934,1.325Zm15.363-6.767h0l-.009.005-11.222,6.5a4.412,4.412,0,0,1-3.987,0l-11.222-6.5h0l-.009,0a1.122,1.122,0,0,1,0-2.128h0l.009,0,11.222-6.494a4.412,4.412,0,0,1,3.987,0l11.222,6.494h0l.01,0a1.122,1.122,0,0,1,0,2.128Z" transform="translate(-0.901 -0.766)" fill="#f90" stroke="#f90" stroke-width="0.1"/><path d="M269.817,70.305v-3.85l-.7-.392c-.2,1.2-1.606,2-2.792,2.161l-8.04,4.708-3.512,1.274-11.2-5.795.261-.148a5.135,5.135,0,0,1-1.991-2.411l-.755.45-.448.125v3.918a1.7,1.7,0,0,0,.987,1.382l11.218,6.494a5.291,5.291,0,0,0,4.766,0l11.223-6.494a1.706,1.706,0,0,0,.982-1.354v-.068Z" transform="translate(-0.901 -0.766)" fill="#f90" opacity="0.4" style="isolation:isolate"/><path d="M269.817,66.882V64.334l-.7-.392c-.2,1.2-1.606,2-2.792,2.161l-8.04,4.714-3.512,1.268-11.2-5.795.261-.148a5.106,5.106,0,0,1-1.991-2.411l-.755.45-.448.13v2.61a1.7,1.7,0,0,0,.987,1.382L252.84,74.8a5.283,5.283,0,0,0,4.766,0L268.829,68.3a1.707,1.707,0,0,0,.982-1.359v-.062Z" transform="translate(-0.901 -0.766)" fill="url(#m)"/><path d="M266.321,66.1l-8.04,4.714-3.052,1.1v3.446a4.863,4.863,0,0,0,2.383-.569L268.835,68.3a1.706,1.706,0,0,0,.982-1.359v-2.61l-.642-.358h-.068C268.892,65.159,267.5,65.938,266.321,66.1Z" transform="translate(-0.901 -0.766)" fill="#0f054c" opacity="0.3" style="isolation:isolate"/><path d="M252.84,72.193,241.622,65.71c-1.316-.756-1.316-2,0-2.758l11.218-6.494a5.291,5.291,0,0,1,4.766,0l11.223,6.494c1.311.762,1.311,2,0,2.758l-11.217,6.483a5.254,5.254,0,0,1-4.772,0Z" transform="translate(-0.901 -0.766)" fill="url(#n)"/><path d="M268.835,65.71l-11.223,6.483a5.258,5.258,0,0,1-4.766,0L241.622,65.71a1.761,1.761,0,0,1-.975-1.217,1.549,1.549,0,0,0,.975,1.536l11.218,6.494a5.258,5.258,0,0,0,4.766,0l11.224-6.494a1.581,1.581,0,0,0,.97-1.536,1.78,1.78,0,0,1-.342.721A1.76,1.76,0,0,1,268.835,65.71Z" transform="translate(-0.901 -0.766)" fill="#fff"/><path d="M266.331,61.671V9.6H243.637V61.738c0,1.491.99,1.342,3.033,2.482,4.047,2.237,12.589,2.237,16.636,0C265.379,63.065,266.385,63.184,266.331,61.671Z" transform="translate(-0.901 -0.766)" opacity="0.3" fill="url(#o)" style="isolation:isolate"/><g transform="translate(245.605 21.606)"><g clip-path="url(#p)"><g transform="translate(0.039 0.006)"><path d="M251.684,26.208a1.733,1.733,0,0,0,.067.522,3.149,3.149,0,0,0,.194.422.252.252,0,0,1,.042.135.23.23,0,0,1-.115.176l-.382.246a.289.289,0,0,1-.157.053.28.28,0,0,1-.182-.082,1.819,1.819,0,0,1-.219-.276c-.06-.1-.121-.211-.187-.346a2.271,2.271,0,0,1-1.783.81,1.694,1.694,0,0,1-1.213-.423,1.617,1.617,0,0,1,.1-2.334,2.251,2.251,0,0,1,1.485-.458,5.033,5.033,0,0,1,.643.047c.224.03.454.077.7.129V24.4a1.27,1.27,0,0,0-.285-.938,1.428,1.428,0,0,0-.988-.27,2.829,2.829,0,0,0-.655.076,4.818,4.818,0,0,0-.655.2,1.854,1.854,0,0,1-.212.076.371.371,0,0,1-.1.017c-.085,0-.128-.058-.128-.181v-.288a.362.362,0,0,1,.043-.2.45.45,0,0,1,.17-.123,3.522,3.522,0,0,1,.764-.264,3.8,3.8,0,0,1,.945-.112,2.27,2.27,0,0,1,1.589.475,1.906,1.906,0,0,1,.5,1.443v1.9Zm-2.461.891a2.031,2.031,0,0,0,.624-.105,1.359,1.359,0,0,0,.576-.376.911.911,0,0,0,.206-.375,2.012,2.012,0,0,0,.061-.51v-.247a5.254,5.254,0,0,0-.558-.1,4.716,4.716,0,0,0-.57-.036,1.433,1.433,0,0,0-.9.235.941.941,0,0,0-.073,1.3A.858.858,0,0,0,249.223,27.1Zm4.868.634a.345.345,0,0,1-.23-.059.465.465,0,0,1-.127-.229l-1.425-4.534a.969.969,0,0,1-.055-.234.131.131,0,0,1,.146-.147h.594a.343.343,0,0,1,.236.059.473.473,0,0,1,.122.229L254.37,26.7l.946-3.882a.406.406,0,0,1,.115-.229.432.432,0,0,1,.243-.059h.485a.372.372,0,0,1,.242.059.385.385,0,0,1,.115.229l.958,3.929,1.049-3.929a.494.494,0,0,1,.122-.229.4.4,0,0,1,.236-.059h.564a.132.132,0,0,1,.151.147.592.592,0,0,1-.012.094.809.809,0,0,1-.042.146l-1.461,4.534a.444.444,0,0,1-.128.229.4.4,0,0,1-.23.059H257.2a.375.375,0,0,1-.243-.059.405.405,0,0,1-.115-.235l-.94-3.783-.934,3.777a.445.445,0,0,1-.115.235.383.383,0,0,1-.242.059Zm7.791.158a4.157,4.157,0,0,1-.933-.105,2.843,2.843,0,0,1-.7-.235.436.436,0,0,1-.188-.164.409.409,0,0,1-.036-.165v-.3c0-.123.048-.182.139-.182a.408.408,0,0,1,.11.018c.036.012.09.035.151.059a3.364,3.364,0,0,0,.667.2,3.72,3.72,0,0,0,.722.07,1.682,1.682,0,0,0,.885-.193.627.627,0,0,0,.315-.557.562.562,0,0,0-.164-.411,1.544,1.544,0,0,0-.612-.3l-.879-.264a1.854,1.854,0,0,1-.97-.6,1.37,1.37,0,0,1-.3-.851,1.274,1.274,0,0,1,.163-.651,1.531,1.531,0,0,1,.437-.481,1.964,1.964,0,0,1,.63-.305,2.742,2.742,0,0,1,.764-.1,3.267,3.267,0,0,1,.407.023c.139.018.266.041.394.065s.236.058.345.093a1.434,1.434,0,0,1,.255.106.525.525,0,0,1,.182.147.31.31,0,0,1,.054.193v.276c0,.123-.048.188-.139.188a.645.645,0,0,1-.23-.071,2.866,2.866,0,0,0-1.165-.229,1.6,1.6,0,0,0-.806.165.561.561,0,0,0-.285.522.545.545,0,0,0,.182.416,1.83,1.83,0,0,0,.667.323l.861.264a1.853,1.853,0,0,1,.94.563,1.3,1.3,0,0,1,.278.821,1.466,1.466,0,0,1-.157.68,1.589,1.589,0,0,1-.443.517,1.984,1.984,0,0,1-.673.328A2.978,2.978,0,0,1,261.882,27.891Z" transform="translate(-246.545 -22.378)" fill="#f9f9fd"/><path d="M263.026,30.742a13.4,13.4,0,0,1-7.385,2.182,13.616,13.616,0,0,1-9.015-3.326c-.188-.164-.019-.387.206-.258a18.442,18.442,0,0,0,15.9.956C263.068,30.149,263.353,30.507,263.026,30.742Zm.831-.915c-.255-.317-1.686-.153-2.335-.077-.194.024-.224-.14-.048-.263a3.706,3.706,0,0,1,3.231-.294,3.371,3.371,0,0,1-1.127,2.945c-.164.135-.322.064-.249-.112C263.572,31.446,264.111,30.138,263.857,29.827Z" transform="translate(-246.545 -22.378)" fill="#f90"/></g></g></g></svg>