<svg xmlns="http://www.w3.org/2000/svg" xmlns:xlink="http://www.w3.org/1999/xlink" width="851.649" height="472" viewBox="0 0 851.649 472"><defs><linearGradient id="a" x1="102.428" y1="-383.215" x2="119.944" y2="-447.126" gradientUnits="objectBoundingBox"><stop offset="0" stop-color="#bcbeff"/><stop offset="0.23" stop-color="#aaadf8"/><stop offset="0.68" stop-color="#7c83e5"/><stop offset="1" stop-color="#5761d7"/></linearGradient><linearGradient id="b" x1="252.488" y1="-7.244" x2="303.917" y2="-7.244" gradientUnits="objectBoundingBox"><stop offset="0" stop-color="#e9e9fd"/><stop offset="0.36" stop-color="#d3d2f9"/><stop offset="0.71" stop-color="#c5c4f7"/><stop offset="1" stop-color="#c0bff6"/></linearGradient><linearGradient id="c" x1="0.5" y1="-0.744" x2="0.5" y2="-1.377" gradientUnits="objectBoundingBox"><stop offset="0" stop-color="#151b2b" stop-opacity="0"/><stop offset="0.515" stop-color="#6273a0" stop-opacity="0.49"/><stop offset="1" stop-color="#e9e9fd"/></linearGradient><clipPath id="d"><rect width="24" height="24" fill="none"/></clipPath><linearGradient id="e" x1="102.428" y1="-370.891" x2="119.944" y2="-434.802" xlink:href="#a"/><linearGradient id="f" x1="252.488" y1="1.252" x2="303.917" y2="1.252" xlink:href="#b"/><linearGradient id="g" x1="0.5" y1="1.802" x2="0.5" y2="1.17" xlink:href="#c"/><clipPath id="h"><rect width="25.45" height="27.24" fill="none"/></clipPath><linearGradient id="i" x1="102.427" y1="-370.398" x2="119.943" y2="-434.309" xlink:href="#a"/><linearGradient id="j" x1="252.488" y1="1.592" x2="303.917" y2="1.592" xlink:href="#b"/><linearGradient id="k" x1="0.5" y1="1.904" x2="0.5" y2="1.272" xlink:href="#c"/><clipPath id="l"><rect width="31.059" height="22" fill="none"/></clipPath><linearGradient id="m" x1="102.428" y1="-359.651" x2="119.944" y2="-423.562" xlink:href="#a"/><linearGradient id="n" x1="252.488" y1="9" x2="303.917" y2="9" xlink:href="#b"/><linearGradient id="o" x1="0.5" y1="4.125" x2="0.5" y2="3.492" gradientUnits="objectBoundingBox"><stop offset="0" stop-color="#151b2b" stop-opacity="0"/><stop offset="0.515" stop-color="#f90" stop-opacity="0.259"/><stop offset="1" stop-color="#f90" stop-opacity="0.478"/></linearGradient><clipPath id="p"><rect width="32" height="18.462" fill="none"/></clipPath></defs><rect width="94" height="23" rx="3" transform="translate(737 117)" fill="rgba(177,96,240,0.1)"/><path d="M755.091,134v-7.434h.1l2.922,7.024h1.348l2.922-7.024h.1V134h1.758V123.431h-2.212l-3.179,7.7h-.132l-3.179-7.7h-2.212V134Zm15.03-1.362c-1.267,0-1.993-.967-1.993-2.644s.726-2.644,1.993-2.644,1.984.974,1.984,2.644S771.388,132.638,770.121,132.638Zm0,1.523c2.4,0,3.852-1.567,3.852-4.167s-1.465-4.168-3.852-4.168-3.853,1.582-3.853,4.168S767.718,134.161,770.121,134.161ZM775.8,134h1.817v-4.665a1.724,1.724,0,0,1,1.765-1.927c1.106,0,1.618.615,1.618,1.839V134h1.817v-5.185c0-1.912-.974-2.989-2.761-2.989a2.4,2.4,0,0,0-2.381,1.443h-.124v-1.282H775.8ZM785,134H786.8v-8.013H785Zm.9-9.316a1.01,1.01,0,1,0-1.121-1A1.025,1.025,0,0,0,785.9,124.684Zm3.743-.66v2.015h-1.267v1.45h1.267v4.372c0,1.553.732,2.176,2.57,2.176a5.176,5.176,0,0,0,.953-.088v-1.421a5.245,5.245,0,0,1-.616.037c-.761,0-1.1-.352-1.1-1.143v-3.933h1.714v-1.45h-1.714v-2.015Zm8.723,8.614c-1.267,0-1.992-.967-1.992-2.644s.725-2.644,1.992-2.644,1.985.974,1.985,2.644S799.63,132.638,798.363,132.638Zm0,1.523c2.4,0,3.852-1.567,3.852-4.167s-1.465-4.168-3.852-4.168-3.853,1.582-3.853,4.168S795.96,134.161,798.363,134.161Zm5.683-.161h1.817v-4.629a1.829,1.829,0,0,1,2-1.853,4.1,4.1,0,0,1,.93.1v-1.685a3.136,3.136,0,0,0-.754-.08,2.12,2.12,0,0,0-2.117,1.376H805.8v-1.245h-1.751Zm6.365,0h1.809v-8.013h-1.809Zm.9-9.316a1.01,1.01,0,1,0-1.121-1A1.024,1.024,0,0,0,811.312,124.684ZM814.476,134h1.816v-4.665a1.724,1.724,0,0,1,1.766-1.927c1.106,0,1.618.615,1.618,1.839V134h1.817v-5.185c0-1.912-.974-2.989-2.762-2.989a2.4,2.4,0,0,0-2.38,1.443h-.124v-1.282h-1.751Zm14.641-4.094c0,1.531-.762,2.5-2.029,2.5s-1.984-.966-1.984-2.5.717-2.505,1.984-2.505S829.117,128.375,829.117,129.906Zm-2.029,7.141c2.337,0,3.816-1.165,3.816-3.018v-8.042h-1.75v1.282h-.125a2.719,2.719,0,0,0-2.483-1.413c-2.043,0-3.31,1.6-3.31,4.05,0,2.409,1.26,3.977,3.281,3.977a2.62,2.62,0,0,0,2.446-1.326h.125v1.516c0,1-.725,1.59-1.97,1.59-1,0-1.641-.352-1.758-.9h-1.824C823.683,136.139,825.03,137.047,827.088,137.047Z" transform="translate(-8.027)" fill="#b160f0"/><rect width="123" height="23" rx="3" transform="translate(504)" fill="rgba(248,170,20,0.1)"/><path d="M524.9,17.264a4.18,4.18,0,0,0,4.475-3.619h-1.861a2.5,2.5,0,0,1-2.614,1.934c-1.8,0-2.923-1.479-2.923-3.867s1.121-3.86,2.915-3.86A2.562,2.562,0,0,1,527.5,9.939h1.86a4.269,4.269,0,0,0-4.475-3.772c-2.995,0-4.848,2.117-4.848,5.552S521.9,17.264,524.9,17.264ZM531.354,17h1.817V5.889h-1.817Zm7.574-1.362c-1.267,0-1.992-.967-1.992-2.644s.725-2.644,1.992-2.644,1.985.974,1.985,2.644S540.2,15.638,538.928,15.638Zm0,1.523c2.4,0,3.852-1.567,3.852-4.167s-1.465-4.168-3.852-4.168-3.853,1.582-3.853,4.168S536.525,17.161,538.928,17.161Zm12.656-8.174h-1.816v4.666a1.7,1.7,0,0,1-1.824,1.911c-1.084,0-1.59-.6-1.59-1.823V8.987h-1.816v5.208c0,1.875,1.025,2.966,2.776,2.966a2.36,2.36,0,0,0,2.395-1.435h.124V17h1.751Zm5.127,8.145a2.7,2.7,0,0,0,2.49-1.4h.125V17h1.757V5.889h-1.816v4.373h-.124a2.6,2.6,0,0,0-2.432-1.407c-2.022,0-3.3,1.6-3.3,4.131S554.682,17.132,556.711,17.132Zm.564-6.731c1.245,0,2.014,1,2.014,2.593s-.762,2.592-2.014,2.592-2-.974-2-2.592S556.037,10.4,557.275,10.4ZM571.74,8.855a2.717,2.717,0,0,0-2.49,1.458h-.125V8.987h-1.75V19.666h1.816V15.784h.125a2.559,2.559,0,0,0,2.446,1.348c2.022,0,3.281-1.582,3.281-4.138C575.043,10.423,573.769,8.855,571.74,8.855Zm-.571,6.731c-1.238,0-2.007-.988-2.014-2.592s.783-2.593,2.021-2.593,2,.974,2,2.593S572.429,15.586,571.169,15.586Zm5.7,1.414h1.817V12.371a1.829,1.829,0,0,1,2-1.853,4.1,4.1,0,0,1,.93.1V8.936a3.131,3.131,0,0,0-.754-.081,2.12,2.12,0,0,0-2.117,1.377h-.124V8.987h-1.751Zm9.492-1.362c-1.267,0-1.992-.967-1.992-2.644s.725-2.644,1.992-2.644,1.985.974,1.985,2.644S587.626,15.638,586.359,15.638Zm0,1.523c2.4,0,3.853-1.567,3.853-4.167s-1.465-4.168-3.853-4.168-3.852,1.582-3.852,4.168S583.957,17.161,586.359,17.161Zm4.666-8.174L593.874,17h2l2.834-8.013h-1.919l-1.838,6.2h-.125l-1.853-6.2ZM600.268,17h1.809V8.987h-1.809Zm.9-9.316a1.01,1.01,0,1,0-1.121-1A1.024,1.024,0,0,0,601.169,7.684Zm6.064,9.448a2.7,2.7,0,0,0,2.491-1.4h.124V17h1.758V5.889H609.79v4.373h-.125a2.6,2.6,0,0,0-2.432-1.407c-2.021,0-3.295,1.6-3.295,4.131S605.205,17.132,607.233,17.132ZM607.8,10.4c1.245,0,2.015,1,2.015,2.593s-.762,2.592-2.015,2.592-2-.974-2-2.592S606.56,10.4,607.8,10.4Zm9.463-.132a1.813,1.813,0,0,1,1.846,1.948h-3.772A1.914,1.914,0,0,1,617.26,10.269Zm1.861,4.526a1.783,1.783,0,0,1-1.788.923,1.988,1.988,0,0,1-2.006-2.168v-.1h5.595v-.586c0-2.527-1.369-4.043-3.654-4.043-2.322,0-3.765,1.619-3.765,4.2s1.421,4.138,3.779,4.138c1.89,0,3.216-.908,3.56-2.366Zm3.625,2.2h1.816V12.371a1.83,1.83,0,0,1,2-1.853,4.1,4.1,0,0,1,.93.1V8.936a3.138,3.138,0,0,0-.754-.081,2.121,2.121,0,0,0-2.117,1.377H624.5V8.987h-1.751Z" transform="translate(-8.027)" fill="#f90"/><rect width="76" height="23" rx="3" transform="translate(347 118)" fill="rgba(35,150,237,0.1)"/><path d="M365.481,126h2.139a1.716,1.716,0,0,1,1.933,1.772,1.666,1.666,0,0,1-1.889,1.765h-2.183Zm0,5.039h2.1L369.648,135h2.161l-2.307-4.255a3.064,3.064,0,0,0,1.992-3.011c0-2.028-1.391-3.3-3.611-3.3h-4.292V135h1.89Zm11.228-2.769a1.814,1.814,0,0,1,1.846,1.948h-3.772A1.913,1.913,0,0,1,376.709,128.269Zm1.86,4.526a1.781,1.781,0,0,1-1.787.923,1.988,1.988,0,0,1-2.007-2.168v-.1h5.6v-.586c0-2.527-1.37-4.043-3.655-4.043-2.321,0-3.764,1.619-3.764,4.2s1.421,4.138,3.779,4.138c1.89,0,3.215-.908,3.56-2.366Zm9.1-1.889c0,1.531-.762,2.5-2.029,2.5s-1.985-.966-1.985-2.5.718-2.505,1.985-2.505S387.666,129.375,387.666,130.906Zm-2.029,7.141c2.337,0,3.816-1.165,3.816-3.018v-8.042H387.7v1.282h-.125a2.718,2.718,0,0,0-2.483-1.414c-2.043,0-3.31,1.6-3.31,4.051,0,2.409,1.259,3.977,3.281,3.977a2.62,2.62,0,0,0,2.446-1.326h.125v1.516c0,1-.725,1.59-1.97,1.59-1,0-1.641-.352-1.758-.9h-1.824C382.231,137.139,383.579,138.047,385.637,138.047ZM391.709,135h1.809v-8.013h-1.809Zm.9-9.316a1.01,1.01,0,1,0-1.121-1A1.024,1.024,0,0,0,392.61,125.684Zm2.981,3.6c0,1.208.725,1.919,2.263,2.27l1.421.33c.762.168,1.106.454,1.106.908,0,.593-.637,1-1.553,1s-1.472-.351-1.648-.945h-1.794c.139,1.458,1.4,2.322,3.4,2.322s3.413-1.025,3.413-2.563c0-1.18-.71-1.839-2.241-2.183l-1.414-.322c-.8-.183-1.186-.462-1.186-.916,0-.578.623-.974,1.45-.974.85,0,1.384.359,1.516.923h1.707c-.132-1.458-1.326-2.3-3.23-2.3S395.591,127.83,395.591,129.28Zm8.965-4.256v2.015h-1.267v1.45h1.267v4.372c0,1.553.732,2.176,2.57,2.176a5.176,5.176,0,0,0,.953-.088v-1.421a5.256,5.256,0,0,1-.616.036c-.761,0-1.1-.351-1.1-1.142v-3.933h1.714v-1.45h-1.714v-2.015ZM409.895,135h1.816v-4.629a1.83,1.83,0,0,1,2-1.853,4.1,4.1,0,0,1,.93.1v-1.685a3.137,3.137,0,0,0-.754-.081,2.12,2.12,0,0,0-2.117,1.377h-.124v-1.245h-1.751Zm7.192,2.908c1.795,0,2.652-.659,3.333-2.652l2.893-8.269h-1.919l-1.868,6.255H419.4l-1.875-6.255h-1.992l2.863,8.05-.1.351a1.312,1.312,0,0,1-1.435,1.033,3.56,3.56,0,0,1-.5-.029v1.486C416.487,137.9,416.978,137.908,417.087,137.908Z" transform="translate(-8.027)" fill="#2396ed"/><path d="M142.053,389.011l-5.773.08,2.957,4.96Zm-76.39,46.123,72.781-43.39-.512-.859-72.781,43.39Z" transform="translate(-8.027)" fill="#8686b3"/><path d="M117.013,433c2.1,0,3.411-1.094,3.411-2.823a2.345,2.345,0,0,0-2.256-2.352V427.7a2.131,2.131,0,0,0,1.784-2.105c0-1.525-1.141-2.461-3.056-2.461h-4.313V433Zm-2.366-8.285h1.723c.984,0,1.552.472,1.552,1.258s-.609,1.251-1.723,1.251h-1.552Zm0,6.706v-2.8h1.791c1.217,0,1.88.479,1.88,1.381,0,.923-.642,1.422-1.832,1.422Zm9.728-8.285h-2.064v6.46c0,2.187,1.606,3.657,4.128,3.657s4.136-1.47,4.136-3.657v-6.46h-2.064v6.248a2.068,2.068,0,0,1-4.136,0ZM135.046,433v-9.864h-2.065V433Zm8.846-1.8H139.5v-8.066h-2.065V433h6.454Zm1.873-8.073V433h3.882c2.954,0,4.628-1.8,4.628-5,0-3.09-1.695-4.867-4.628-4.867Zm2.064,1.764h1.49c1.791,0,2.851,1.141,2.851,3.137,0,2.085-1.025,3.206-2.851,3.206h-1.49Z" transform="translate(-8.027)" fill="#8686b3"/><path d="M307.831,315v-9.864h-2.064V315Zm4.307,0v-6.6h.109l2.516,6.03h1.374l2.509-6.03h.109V315h1.914v-9.864h-2.427l-2.734,6.631h-.123l-2.728-6.631h-2.433V315Zm17.26,0h2.236l-3.425-9.864h-2.427L322.357,315h2.072l.759-2.352h3.465Zm-2.529-7.813h.123l1.224,3.869h-2.584Zm14.663,3.787v-1.258H337.39v1.552h2.139l-.007.177a2.107,2.107,0,0,1-2.331,1.99c-1.627,0-2.652-1.286-2.652-3.4,0-2.071.978-3.336,2.57-3.336a2.22,2.22,0,0,1,2.284,1.579h2.05a4.049,4.049,0,0,0-4.334-3.4c-2.871,0-4.682,2-4.682,5.175,0,3.226,1.8,5.195,4.73,5.195A4.018,4.018,0,0,0,341.532,310.974Zm8.518,2.262h-4.471v-2.4H349.8V309.2h-4.218v-2.3h4.471v-1.763h-6.535V315h6.535Z" transform="translate(-8.027)" fill="#8686b3"/><path d="M343.95,267.866l-5.773.069,2.946,4.965ZM241.662,329.134l98.673-58.542-.51-.86-98.673,58.542Z" transform="translate(-8.027)" fill="#8686b3"/><rect width="50" height="23" rx="3" transform="translate(0 449)" fill="#a8a8c1"/><path d="M16.394,466H18.21v-4.871a1.609,1.609,0,0,1,1.568-1.721,1.326,1.326,0,0,1,1.45,1.414V466h1.765v-4.988a1.521,1.521,0,0,1,1.567-1.6c.975,0,1.465.513,1.465,1.546V466h1.809v-5.508a2.413,2.413,0,0,0-2.57-2.666,2.593,2.593,0,0,0-2.432,1.458h-.124a2.208,2.208,0,0,0-2.212-1.458,2.253,2.253,0,0,0-2.227,1.458h-.124v-1.3H16.394Zm16.333-1.3c-.806,0-1.384-.4-1.384-1.077,0-.652.476-1.018,1.494-1.084l1.809-.117v.637A1.757,1.757,0,0,1,32.727,464.7Zm-.535,1.428a2.64,2.64,0,0,0,2.373-1.231h.125V466h1.75v-5.471c0-1.7-1.157-2.7-3.215-2.7-1.9,0-3.23.9-3.376,2.315h1.714c.168-.542.739-.835,1.574-.835.982,0,1.509.439,1.509,1.223v.674l-2.065.124c-1.949.117-3.04.952-3.04,2.4A2.407,2.407,0,0,0,32.192,466.132Zm6.46-.132h1.809v-8.013H38.652Zm.9-9.316a1.01,1.01,0,1,0-1.12-1A1.024,1.024,0,0,0,39.553,456.684ZM42.717,466h1.817v-4.666a1.723,1.723,0,0,1,1.765-1.926c1.106,0,1.618.615,1.618,1.839V466h1.817v-5.186c0-1.911-.974-2.988-2.761-2.988a2.394,2.394,0,0,0-2.381,1.443h-.124v-1.282H42.717Z" transform="translate(-8.027)" fill="#fff"/><rect width="30" height="23" rx="3" transform="translate(172 242)" fill="#454658"/><path d="M193,259.264a4.179,4.179,0,0,0,4.475-3.618h-1.861A2.5,2.5,0,0,1,193,257.579c-1.8,0-2.923-1.479-2.923-3.867s1.121-3.86,2.915-3.86a2.562,2.562,0,0,1,2.615,2.088h1.86a4.268,4.268,0,0,0-4.475-3.772c-2.995,0-4.848,2.116-4.848,5.551S190,259.264,193,259.264Zm8.466-.264V248.431h-1.889V259Z" transform="translate(-8.027)" fill="#c7c7db"/><path d="M125.519,362.539l70.83-40.89a3.294,3.294,0,0,1,2.983,0l66.726,38.52a.909.909,0,0,1,0,1.723l-70.83,40.89a3.294,3.294,0,0,1-2.983,0l-66.726-38.521A.909.909,0,0,1,125.519,362.539Z" transform="translate(-8.027)" fill="#c5c4f7" opacity="0.1" style="isolation:isolate"/><path d="M191.527,377.852h0l0,0a7.715,7.715,0,0,0,3.745.894,7.638,7.638,0,0,0,3.735-.894h0l0,0,19.617-11.32a2.469,2.469,0,0,0,0-4.653l-19.617-11.32h0l-.005,0a8.282,8.282,0,0,0-7.478,0h0l0,0-19.611,11.322a2.795,2.795,0,0,0-1.64,2.311v.017a2.837,2.837,0,0,0,1.64,2.321Zm26.852-11.822-.01,0-.009.005-19.612,11.343a7.71,7.71,0,0,1-6.956,0L172.18,366.038l-.009-.005-.01,0a1.944,1.944,0,0,1,0-3.689l.01,0,.009-.005,19.612-11.323a7.71,7.71,0,0,1,6.956,0l19.612,11.323.009.005.01,0a1.944,1.944,0,0,1,0,3.689Z" transform="translate(-8.027)" fill="#5d64d2" stroke="#5d64d2" stroke-width="0.198"/><path d="M220.769,359.857v-6.713l-1.229-.684c-.347,2.092-2.807,3.48-4.879,3.768l-14.052,8.211-6.138,2.221L174.9,356.555l.456-.258c-1.675-.783-2.578-2.578-3.48-4.2l-1.319.783-.783.218v6.833a2.972,2.972,0,0,0,1.725,2.409L191.1,373.661a9.263,9.263,0,0,0,8.329,0l19.615-11.325a2.975,2.975,0,0,0,1.716-2.36v-.119Z" transform="translate(-8.027)" fill="#5d64d2" opacity="0.4" style="isolation:isolate"/><path d="M220.769,353.888v-4.443l-1.229-.684c-.347,2.092-2.807,3.48-4.879,3.768l-14.052,8.221-6.138,2.211L174.9,352.856l.456-.258c-1.675-.783-2.578-2.568-3.48-4.2l-1.319.783-.783.228v4.552a2.975,2.975,0,0,0,1.725,2.41L191.1,367.691a9.263,9.263,0,0,0,8.329,0l19.615-11.324A2.98,2.98,0,0,0,220.76,354v-.109Z" transform="translate(-8.027)" fill="url(#a)"/><path d="M214.662,352.529,200.61,360.75l-5.335,1.923v6.01a8.507,8.507,0,0,0,4.165-.992l19.615-11.324A2.976,2.976,0,0,0,220.77,354v-4.552l-1.12-.625h-.119C219.154,350.883,216.715,352.241,214.662,352.529Z" transform="translate(-8.027)" fill="#0f054c" opacity="0.3" style="isolation:isolate"/><path d="M191.1,363.149l-19.605-11.3c-2.3-1.319-2.3-3.481,0-4.81L191.1,335.711a9.262,9.262,0,0,1,8.329,0l19.615,11.324c2.291,1.329,2.291,3.491,0,4.81l-19.605,11.3a9.2,9.2,0,0,1-8.339,0Z" transform="translate(-8.027)" fill="url(#b)"/><path d="M219.055,351.845l-19.615,11.3a9.2,9.2,0,0,1-8.33,0l-19.614-11.3a3.073,3.073,0,0,1-1.706-2.122A2.7,2.7,0,0,0,171.5,352.4l19.6,11.325a9.206,9.206,0,0,0,8.33,0L219.045,352.4a2.756,2.756,0,0,0,1.7-2.677,3.084,3.084,0,0,1-1.685,2.122Z" transform="translate(-8.027)" fill="#fff"/><path d="M214.677,344.8V254H175.016v90.917c0,2.6,1.731,2.341,5.3,4.33,7.073,3.9,22,3.9,29.074,0C213.014,347.232,214.772,347.439,214.677,344.8Z" transform="translate(-8.027)" opacity="0.3" fill="url(#c)" style="isolation:isolate"/><g transform="translate(175 282)"><g clip-path="url(#d)"><g transform="translate(0.078)"><path d="M194.854,296.789a2.835,2.835,0,1,0-2.868-2.835A2.852,2.852,0,0,0,194.854,296.789Z" transform="translate(-183.105 -282)" fill="#c7c7db"/><path d="M183.14,290.949c0,.034-.035.1-.035.136a.579.579,0,0,0,.588.581h4.872a.567.567,0,0,0,.519-.342,6.233,6.233,0,1,1,0,5.226.55.55,0,0,0-.519-.376h-4.872a.579.579,0,0,0-.587.581.208.208,0,0,0,.034.137,11.922,11.922,0,1,0,0-5.943Z" transform="translate(-183.105 -282)" fill="#c7c7db"/></g></g></g><path d="M718.519,237.539l70.83-40.89a3.294,3.294,0,0,1,2.983,0l66.726,38.52a.909.909,0,0,1,0,1.723l-70.83,40.89a3.294,3.294,0,0,1-2.983,0l-66.726-38.521A.909.909,0,0,1,718.519,237.539Z" transform="translate(-8.027)" fill="#b160f0" opacity="0.1" style="isolation:isolate"/><path d="M784.527,252.852h0l0,0a8.27,8.27,0,0,0,7.48,0h0l0,0,19.617-11.32a2.469,2.469,0,0,0,0-4.653l-19.617-11.32h0l-.005,0a8.282,8.282,0,0,0-7.478,0h0l0,0-19.611,11.322a2.8,2.8,0,0,0-1.64,2.311v.017a2.837,2.837,0,0,0,1.64,2.321Zm26.852-11.822-.01,0-.009,0-19.612,11.343a7.71,7.71,0,0,1-6.956,0L765.18,241.038l-.009,0-.01,0a1.944,1.944,0,0,1,0-3.689l.01,0,.009-.005,19.612-11.323a7.71,7.71,0,0,1,6.956,0l19.612,11.323.009.005.01,0a1.944,1.944,0,0,1,0,3.689Z" transform="translate(-8.027)" fill="#5d64d2" stroke="#5d64d2" stroke-width="0.198"/><path d="M813.769,234.857v-6.713l-1.229-.684c-.347,2.092-2.807,3.48-4.879,3.768l-14.052,8.211-6.138,2.221L767.9,231.555l.456-.258c-1.675-.783-2.578-2.578-3.48-4.2l-1.319.783-.783.218v6.833a2.972,2.972,0,0,0,1.725,2.409l19.6,11.325a9.263,9.263,0,0,0,8.329,0l19.615-11.325a2.976,2.976,0,0,0,1.716-2.36v-.119Z" transform="translate(-8.027)" fill="#5d64d2" opacity="0.4" style="isolation:isolate"/><path d="M813.769,228.888v-4.443l-1.229-.684c-.347,2.092-2.807,3.48-4.879,3.768l-14.052,8.221-6.138,2.211-19.575-10.1.456-.258c-1.675-.783-2.578-2.568-3.48-4.2l-1.319.783-.783.228v4.552a2.975,2.975,0,0,0,1.725,2.41l19.6,11.324a9.263,9.263,0,0,0,8.329,0l19.615-11.324A2.98,2.98,0,0,0,813.76,229v-.109Z" transform="translate(-8.027)" fill="url(#e)"/><path d="M807.662,227.529,793.61,235.75l-5.335,1.923v6.01a8.506,8.506,0,0,0,4.165-.992l19.615-11.324A2.976,2.976,0,0,0,813.77,229v-4.552l-1.12-.625h-.119C812.154,225.883,809.715,227.241,807.662,227.529Z" transform="translate(-8.027)" fill="#0f054c" opacity="0.3" style="isolation:isolate"/><path d="M784.1,238.149l-19.6-11.3c-2.3-1.319-2.3-3.481,0-4.81l19.6-11.324a9.263,9.263,0,0,1,8.329,0l19.615,11.324c2.291,1.329,2.291,3.491,0,4.81l-19.6,11.3a9.2,9.2,0,0,1-8.339,0Z" transform="translate(-8.027)" fill="url(#f)"/><path d="M812.055,226.845l-19.615,11.3a9.206,9.206,0,0,1-8.33,0l-19.614-11.3a3.074,3.074,0,0,1-1.706-2.122A2.7,2.7,0,0,0,764.5,227.4l19.6,11.325a9.207,9.207,0,0,0,8.33,0L812.045,227.4a2.756,2.756,0,0,0,1.7-2.677,3.084,3.084,0,0,1-1.685,2.122Z" transform="translate(-8.027)" fill="#fff"/><path d="M807.677,219.8V129H768.016v90.917c0,2.6,1.731,2.341,5.3,4.33,7.073,3.9,22,3.9,29.074,0C806.014,222.232,807.772,222.439,807.677,219.8Z" transform="translate(-8.027)" opacity="0.3" fill="url(#g)" style="isolation:isolate"/><g transform="translate(767.508 157.541)"><g clip-path="url(#h)"><g transform="translate(-0.508 -2.541)"><path d="M796.806,174.881l-2.316-1.537-1.931,3.246-2.246-.66-1.978,3.037.1.956,10.754-1.994-.625-6.76Zm-10.029-2.915,1.725-.239a4.232,4.232,0,0,0,.808.26,2.523,2.523,0,0,0,2.019-.185,3.509,3.509,0,0,0,.816-.73l7.07-1.29.721,8.782-12.111,2.2Zm13.131-3.164-.7.134L797.87,155l-22.843,2.665,2.814,22.977,2.674-.391A6.088,6.088,0,0,0,779.4,179.1a1.876,1.876,0,0,1-.044-2.482c.615-1.193,3.781-2.709,3.6-4.615a3.381,3.381,0,0,0-.814-2.214,2.165,2.165,0,0,0,.019.5,2.6,2.6,0,0,1-.393-.8,3.9,3.9,0,0,1-.37-.468,1.766,1.766,0,0,0-.086.588,3.7,3.7,0,0,1-.25-.942,1.51,1.51,0,0,0-.159.56,3.651,3.651,0,0,1-.216-1.239,5.89,5.89,0,0,1-.4-2.828,2.261,2.261,0,0,0,2.83-.512c.2-.294.334-1.1-.1-2.675a23.847,23.847,0,0,0-1.237-3.094l-.032.024c.141.461.434,1.427.546,1.9a5.156,5.156,0,0,1,.271,2.571c-.136.57-.461.943-1.285,1.359s-1.917-.6-1.986-.655a4.434,4.434,0,0,1-1.489-2.2c-.072-.556.319-.891.516-1.346a5.01,5.01,0,0,0-.6.225,7.263,7.263,0,0,1,.837-.728,5.077,5.077,0,0,0,.506-.377c-.292-.005-.529,0-.529,0a9.427,9.427,0,0,1,.992-.458c-.37-.016-.723,0-.723,0s1.087-.489,1.946-.848a1.161,1.161,0,0,1,1.491.3,2.585,2.585,0,0,0,1.819,1.161,7.747,7.747,0,0,1,1.489-.593,2.356,2.356,0,0,1,1.148-.8,1.172,1.172,0,0,0-.317.6,8.175,8.175,0,0,1,.764-.531,2.756,2.756,0,0,0-.3.5l.034.05a7.508,7.508,0,0,1,.925-.459s-.143.182-.31.417c.32,0,.971.014,1.224.043,1.49.033,1.8-1.6,2.372-1.807.716-.258,1.036-.413,2.257.793,1.047,1.035,1.866,2.889,1.459,3.3-.34.345-1.012-.134-1.757-1.068a4.06,4.06,0,0,1-.831-1.823,1.793,1.793,0,0,0-.575-.991,3.276,3.276,0,0,1,.265,1.12,3.7,3.7,0,0,0,.493,1.96c-.045.088-.066.436-.116.5a7.01,7.01,0,0,0-1.86-1.246,10.572,10.572,0,0,1,2.635,2.857c.526,1.082.216,2.073.482,2.33a9.138,9.138,0,0,1,1.335,2.062,4,4,0,0,1-.442,3.133l-1.3.2a1.812,1.812,0,0,1-.487-.178,3.261,3.261,0,0,0,.282-.669l-.073-.129a5.462,5.462,0,0,1-1.639,1.453,2.759,2.759,0,0,1-2.132.183,12.171,12.171,0,0,1-3.4-1.828s-.011.223.056.273a12.129,12.129,0,0,0,2.17,1.821l-1.861.206.88,6.892c-.39.056-.451.084-.878.145a4.613,4.613,0,0,0-1.883-2.72,3.529,3.529,0,0,0-2.567-.367l-.059.068a3.3,3.3,0,0,1,2.162.519,4.988,4.988,0,0,1,1.594,2.478,3.219,3.219,0,0,1-.288,3.071,2.594,2.594,0,0,1-3.462.276,2.118,2.118,0,0,0,1.449,1.109,2.757,2.757,0,0,0,2.443-.67,4.031,4.031,0,0,0,.728-2.866l.828-.121.3,2.141,13.714-1.662Zm-8.343-5.813c-.039.088-.1.146-.008.432l.005.016.014.037.038.086a1.714,1.714,0,0,0,.64.812,2.065,2.065,0,0,1,.241-.027,1.1,1.1,0,0,1,.57.094,1.247,1.247,0,0,0,.006-.26c-.022-.425.083-1.146-.727-1.525a.829.829,0,0,0-.878.079.346.346,0,0,1,.068.015C791.75,162.824,791.6,162.9,791.565,162.989Zm2.271,3.957a2.976,2.976,0,0,0-.952.006,4.524,4.524,0,0,0-1.541.435.489.489,0,0,0,.056.769,2.371,2.371,0,0,0,1.66.672c.336-.045.633-.581.843-1.068C794.046,167.425,794.046,167.064,793.836,166.946Zm-5.887-3.432c.187-.179-.935-.414-1.8.183a1.213,1.213,0,0,0-.048,1.92,1.569,1.569,0,0,0,.16.121,5.236,5.236,0,0,1,.619-.248,5.435,5.435,0,0,1,1-.232,1.1,1.1,0,0,0,.243-.87C788.067,163.756,787.591,163.856,787.949,163.514Z" transform="translate(-775.027 -155)" fill="#b160f0" fill-rule="evenodd"/></g></g></g><path d="M319.519,232.539l70.83-40.89a3.294,3.294,0,0,1,2.983,0l66.726,38.52a.909.909,0,0,1,0,1.723l-70.83,40.89a3.294,3.294,0,0,1-2.983,0l-66.726-38.521A.909.909,0,0,1,319.519,232.539Z" transform="translate(-8.027)" fill="#2396ed" opacity="0.1" style="isolation:isolate"/><path d="M385.527,247.852h0l0,0a8.27,8.27,0,0,0,7.48,0h0l0,0,19.617-11.32a2.469,2.469,0,0,0,0-4.653l-19.617-11.32h0l-.005,0a8.282,8.282,0,0,0-7.478,0h0l0,0-19.611,11.322a2.795,2.795,0,0,0-1.64,2.311v.017a2.837,2.837,0,0,0,1.64,2.321Zm26.852-11.822-.01,0-.009,0-19.612,11.343a7.71,7.71,0,0,1-6.956,0L366.18,236.038l-.009,0-.01,0a1.944,1.944,0,0,1,0-3.689l.01,0,.009-.005,19.612-11.323a7.71,7.71,0,0,1,6.956,0l19.612,11.323.009.005.01,0a1.944,1.944,0,0,1,0,3.689Z" transform="translate(-8.027)" fill="#2396ed" stroke="#2396ed" stroke-width="0.198"/><path d="M414.769,229.857v-6.713l-1.229-.684c-.347,2.092-2.807,3.48-4.879,3.768l-14.052,8.211-6.138,2.221L368.9,226.555l.456-.258c-1.675-.783-2.578-2.578-3.48-4.2l-1.319.783-.783.218v6.833a2.972,2.972,0,0,0,1.725,2.409L385.1,243.661a9.262,9.262,0,0,0,8.329,0l19.615-11.325a2.976,2.976,0,0,0,1.716-2.36v-.119Z" transform="translate(-8.027)" fill="#2396ed" opacity="0.4" style="isolation:isolate"/><path d="M414.769,223.888v-4.443l-1.229-.684c-.347,2.092-2.807,3.48-4.879,3.768l-14.052,8.221-6.138,2.211-19.575-10.1.456-.258c-1.675-.783-2.578-2.568-3.48-4.2l-1.319.783-.783.228v4.552a2.975,2.975,0,0,0,1.725,2.41L385.1,237.691a9.262,9.262,0,0,0,8.329,0l19.615-11.324A2.98,2.98,0,0,0,414.76,224v-.109Z" transform="translate(-8.027)" fill="url(#i)"/><path d="M408.662,222.529,394.61,230.75l-5.335,1.923v6.01a8.506,8.506,0,0,0,4.165-.992l19.615-11.324A2.976,2.976,0,0,0,414.77,224v-4.552l-1.12-.625h-.119C413.154,220.883,410.715,222.241,408.662,222.529Z" transform="translate(-8.027)" fill="#0f054c" opacity="0.3" style="isolation:isolate"/><path d="M385.1,233.149l-19.605-11.3c-2.3-1.319-2.3-3.481,0-4.81L385.1,205.711a9.262,9.262,0,0,1,8.329,0l19.615,11.324c2.291,1.329,2.291,3.491,0,4.81l-19.605,11.3a9.2,9.2,0,0,1-8.339,0Z" transform="translate(-8.027)" fill="url(#j)"/><path d="M413.055,221.845l-19.615,11.3a9.206,9.206,0,0,1-8.33,0l-19.614-11.3a3.073,3.073,0,0,1-1.706-2.122A2.7,2.7,0,0,0,365.5,222.4l19.6,11.325a9.207,9.207,0,0,0,8.33,0L413.045,222.4a2.756,2.756,0,0,0,1.695-2.677,3.084,3.084,0,0,1-1.685,2.122Z" transform="translate(-8.027)" fill="#fff"/><path d="M408.677,214.8V124H369.016v90.917c0,2.6,1.731,2.341,5.3,4.33,7.073,3.9,22,3.9,29.074,0C407.014,217.232,408.772,217.439,408.677,214.8Z" transform="translate(-8.027)" opacity="0.3" fill="url(#k)" style="isolation:isolate"/><g transform="translate(367 152)"><g clip-path="url(#l)"><g transform="translate(0)"><path d="M405.445,160.383a5.622,5.622,0,0,0-3.555-.416,4.765,4.765,0,0,0-1.982-3.151l-.67-.476-.466.684a5.549,5.549,0,0,0-.787,3.33,3.916,3.916,0,0,0,.612,1.813,4.936,4.936,0,0,1-2.361.535H375.167l-.058.238A10.522,10.522,0,0,0,377.3,170.7c1.806,2.17,4.487,3.27,8.014,3.27,7.634,0,13.288-3.6,15.94-10.107a4.419,4.419,0,0,0,4.429-2.23c.029-.06.088-.178.292-.624l.116-.238ZM392.011,152h-3.2v2.973h3.2Zm0,3.567h-3.2v2.973h3.2v-2.973Zm-3.788,0h-3.206v2.973h3.206v-2.973Zm-3.789,0h-3.2v2.973h3.2v-2.973Zm-3.788,3.568H377.44v2.973h3.206v-2.973Zm3.788,0h-3.2v2.973h3.2v-2.973Zm3.789,0h-3.206v2.973h3.206v-2.973Zm3.788,0H388.8v2.973h3.206v-2.973Zm3.788,0h-3.205v2.973H395.8v-2.973Z" transform="translate(-375.027 -152)" fill="#2396ed"/></g></g></g><path d="M526.686,154.962l-5.773.076L523.865,160Zm-85.023,51.172,81.411-48.441-.511-.859-81.412,48.441Z" transform="translate(-8.027)" fill="#8686b3"/><path d="M488.226,194.129V204h3.882c2.954,0,4.628-1.8,4.628-5,0-3.09-1.7-4.867-4.628-4.867Zm2.064,1.764h1.49c1.791,0,2.851,1.141,2.851,3.137,0,2.085-1.026,3.206-2.851,3.206h-1.49Zm14.93,6.343h-4.471v-2.4h4.218V198.2h-4.218v-2.3h4.471v-1.763h-6.535V204h6.535Zm2.174-8.1V204h2.064v-3.062h1.948a3.287,3.287,0,0,0,3.521-3.391,3.235,3.235,0,0,0-3.418-3.411Zm2.064,1.695h1.5c1.189,0,1.866.6,1.866,1.723s-.69,1.709-1.873,1.709h-1.5ZM523.28,202.2h-4.388v-8.066h-2.065V204h6.453Zm5.913-8.319c-2.9,0-4.751,1.982-4.751,5.181s1.826,5.189,4.751,5.189,4.738-1.989,4.738-5.189S532.1,193.883,529.193,193.883Zm0,1.811c1.607,0,2.632,1.306,2.632,3.37s-1.025,3.377-2.632,3.377-2.638-1.319-2.638-3.377S527.594,195.694,529.193,195.694ZM540.1,204v-3.63l3.431-6.234h-2.235l-2.167,4.129H539l-2.174-4.129h-2.235l3.438,6.234V204Z" transform="translate(-8.027)" fill="#8686b3"/><path d="M635.407,141.7l5.772.119-2.988,4.94Zm4.109,1.9,100.771,60.966-.518.856L639,144.462Z" transform="translate(-8.027)" fill="#8686b3"/><path d="M630.45,204v-6.6h.11l2.515,6.03h1.374l2.509-6.03h.109V204h1.914v-9.864h-2.426l-2.735,6.631H633.7l-2.727-6.631h-2.434V204Zm15.238-10.117c-2.9,0-4.751,1.982-4.751,5.181s1.825,5.189,4.751,5.189,4.737-1.989,4.737-5.189S648.6,193.883,645.688,193.883Zm0,1.811c1.606,0,2.631,1.306,2.631,3.37s-1.025,3.377-2.631,3.377-2.639-1.319-2.639-3.377S644.088,195.694,645.688,195.694ZM654.355,204v-6.173h.124L659.031,204h1.709v-9.864h-1.975v6.145h-.123l-4.539-6.145H652.38V204Zm10.849,0v-9.864H663.14V204Zm6.85,0v-8.1h2.96v-1.763h-7.985V195.9h2.96V204Zm8.757-10.117c-2.9,0-4.751,1.982-4.751,5.181s1.825,5.189,4.751,5.189,4.737-1.989,4.737-5.189S683.723,193.883,680.811,193.883Zm0,1.811c1.606,0,2.631,1.306,2.631,3.37s-1.025,3.377-2.631,3.377-2.639-1.319-2.639-3.377S679.211,195.694,680.811,195.694Zm8.756.11h1.791a1.488,1.488,0,0,1,1.668,1.524,1.449,1.449,0,0,1-1.647,1.511h-1.812Zm0,4.621h1.689L693.095,204h2.338l-2.079-3.9a2.914,2.914,0,0,0,1.792-2.8c0-1.962-1.334-3.165-3.5-3.165H687.5V204h2.064Z" transform="translate(-8.027)" fill="#8686b3"/><path d="M499.519,123.539l70.83-40.89a3.294,3.294,0,0,1,2.983,0l66.726,38.52a.909.909,0,0,1,0,1.723l-70.83,40.89a3.294,3.294,0,0,1-2.983,0l-66.726-38.521A.909.909,0,0,1,499.519,123.539Z" transform="translate(-8.027)" fill="#f8aa14" opacity="0.1" style="isolation:isolate"/><path d="M565.527,138.852h0l0,0a8.27,8.27,0,0,0,7.48,0h0l0,0,19.617-11.32a2.469,2.469,0,0,0,0-4.653l-19.617-11.32h0l-.005,0a8.282,8.282,0,0,0-7.478,0h0l0,0-19.611,11.322a2.8,2.8,0,0,0-1.64,2.311v.017a2.837,2.837,0,0,0,1.64,2.321Zm26.852-11.822-.01,0-.009.005-19.612,11.343a7.71,7.71,0,0,1-6.956,0L546.18,127.038l-.009-.005-.01,0a1.944,1.944,0,0,1,0-3.689l.01,0,.009,0,19.612-11.323a7.71,7.71,0,0,1,6.956,0l19.612,11.323.009,0,.01,0a1.944,1.944,0,0,1,0,3.689Z" transform="translate(-8.027)" fill="#f90" stroke="#f90" stroke-width="0.198"/><path d="M594.769,120.857v-6.713l-1.229-.684c-.347,2.092-2.807,3.48-4.879,3.768l-14.052,8.211-6.138,2.221L548.9,117.555l.456-.258c-1.675-.783-2.578-2.578-3.48-4.2l-1.319.783-.783.218v6.833a2.972,2.972,0,0,0,1.725,2.409l19.6,11.325a9.263,9.263,0,0,0,8.329,0l19.615-11.325a2.976,2.976,0,0,0,1.716-2.36v-.119Z" transform="translate(-8.027)" fill="#f90" opacity="0.4" style="isolation:isolate"/><path d="M594.769,114.888v-4.443l-1.229-.684c-.347,2.092-2.807,3.48-4.879,3.768l-14.052,8.221-6.138,2.211-19.575-10.1.456-.258c-1.675-.783-2.578-2.568-3.48-4.2l-1.319.783-.783.228v4.552a2.975,2.975,0,0,0,1.725,2.41l19.6,11.324a9.263,9.263,0,0,0,8.329,0l19.615-11.324A2.98,2.98,0,0,0,594.76,115v-.109Z" transform="translate(-8.027)" fill="url(#m)"/><path d="M588.662,113.529,574.61,121.75l-5.335,1.923v6.01a8.506,8.506,0,0,0,4.165-.992l19.615-11.324A2.976,2.976,0,0,0,594.77,115v-4.552l-1.12-.625h-.119C593.154,111.883,590.715,113.241,588.662,113.529Z" transform="translate(-8.027)" fill="#0f054c" opacity="0.3" style="isolation:isolate"/><path d="M565.1,124.149l-19.6-11.3c-2.3-1.319-2.3-3.481,0-4.81l19.6-11.324a9.263,9.263,0,0,1,8.329,0l19.615,11.324c2.291,1.329,2.291,3.491,0,4.81l-19.6,11.3a9.2,9.2,0,0,1-8.339,0Z" transform="translate(-8.027)" fill="url(#n)"/><path d="M593.055,112.845,573.44,124.15a9.206,9.206,0,0,1-8.33,0L545.5,112.845a3.074,3.074,0,0,1-1.706-2.122A2.7,2.7,0,0,0,545.5,113.4l19.6,11.325a9.206,9.206,0,0,0,8.33,0L593.045,113.4a2.756,2.756,0,0,0,1.7-2.677,3.084,3.084,0,0,1-1.685,2.122Z" transform="translate(-8.027)" fill="#fff"/><path d="M588.677,105.8V15H549.016v90.917c0,2.6,1.731,2.341,5.3,4.33,7.073,3.9,22,3.9,29.074,0C587.014,108.232,588.772,108.439,588.677,105.8Z" transform="translate(-8.027)" opacity="0.3" fill="url(#o)" style="isolation:isolate"/><g transform="translate(546 37.269)"><g clip-path="url(#p)"><g transform="translate(0.071 0.01)"><path d="M563.077,43.959a2.968,2.968,0,0,0,.117.91,5.323,5.323,0,0,0,.339.736.435.435,0,0,1,.074.236.4.4,0,0,1-.2.306l-.667.43a.523.523,0,0,1-.276.092.5.5,0,0,1-.318-.143,3.212,3.212,0,0,1-.381-.481c-.106-.174-.212-.368-.328-.6a3.972,3.972,0,0,1-3.116,1.411,2.964,2.964,0,0,1-2.119-.736,2.816,2.816,0,0,1,.18-4.071,3.948,3.948,0,0,1,2.6-.8,8.7,8.7,0,0,1,1.123.082c.393.051.795.133,1.219.225v-.747a2.215,2.215,0,0,0-.5-1.636,2.5,2.5,0,0,0-1.727-.471,5,5,0,0,0-1.145.133,8.691,8.691,0,0,0-1.144.348,3.31,3.31,0,0,1-.371.133.694.694,0,0,1-.169.031c-.149,0-.223-.1-.223-.318v-.5a.631.631,0,0,1,.074-.358.8.8,0,0,1,.3-.214,6.216,6.216,0,0,1,1.335-.461A6.64,6.64,0,0,1,559.4,37.3a3.964,3.964,0,0,1,2.776.828,3.316,3.316,0,0,1,.88,2.517v3.314Zm-4.3,1.554a3.532,3.532,0,0,0,1.091-.184,2.374,2.374,0,0,0,1.007-.654,1.6,1.6,0,0,0,.36-.655,3.527,3.527,0,0,0,.106-.89V42.7a9.165,9.165,0,0,0-.975-.173,8.284,8.284,0,0,0-1-.062,2.5,2.5,0,0,0-1.578.409,1.639,1.639,0,0,0-.128,2.261A1.5,1.5,0,0,0,558.775,45.513Zm8.509,1.1a.612.612,0,0,1-.4-.1.833.833,0,0,1-.223-.4l-2.49-7.907a1.749,1.749,0,0,1-.1-.409.228.228,0,0,1,.254-.256h1.039a.6.6,0,0,1,.413.1.826.826,0,0,1,.212.4l1.78,6.772,1.653-6.772a.711.711,0,0,1,.2-.4.744.744,0,0,1,.424-.1h.848a.653.653,0,0,1,.424.1.68.68,0,0,1,.2.4L573.2,44.9l1.833-6.854a.87.87,0,0,1,.212-.4.706.706,0,0,1,.413-.1h.986a.232.232,0,0,1,.265.256.967.967,0,0,1-.022.164,1.314,1.314,0,0,1-.074.255l-2.553,7.907a.776.776,0,0,1-.223.4.7.7,0,0,1-.4.1h-.912a.654.654,0,0,1-.424-.1.721.721,0,0,1-.2-.409l-1.642-6.6-1.632,6.587a.8.8,0,0,1-.2.41.681.681,0,0,1-.424.1h-.911Zm13.615.276a7.225,7.225,0,0,1-1.631-.184,4.974,4.974,0,0,1-1.219-.409.752.752,0,0,1-.328-.286.7.7,0,0,1-.064-.287v-.522c0-.214.085-.317.244-.317a.652.652,0,0,1,.191.031c.063.021.158.061.264.1a5.912,5.912,0,0,0,1.166.358,6.5,6.5,0,0,0,1.261.123,2.943,2.943,0,0,0,1.547-.337,1.1,1.1,0,0,0,.551-.972.975.975,0,0,0-.286-.716,2.7,2.7,0,0,0-1.07-.532l-1.537-.46a3.247,3.247,0,0,1-1.695-1.044,2.381,2.381,0,0,1-.53-1.483,2.21,2.21,0,0,1,.286-1.135,2.667,2.667,0,0,1,.763-.839,3.421,3.421,0,0,1,1.1-.532,4.8,4.8,0,0,1,1.335-.174,5.634,5.634,0,0,1,.71.041c.244.031.466.072.689.113s.413.1.6.164a2.288,2.288,0,0,1,.445.184.908.908,0,0,1,.318.255.543.543,0,0,1,.095.338v.481c0,.214-.085.327-.244.327a1.131,1.131,0,0,1-.4-.123,5,5,0,0,0-2.035-.4,2.806,2.806,0,0,0-1.409.287.98.98,0,0,0-.5.91.949.949,0,0,0,.318.726,3.216,3.216,0,0,0,1.165.563l1.505.46a3.236,3.236,0,0,1,1.642.982,2.258,2.258,0,0,1,.488,1.432,2.551,2.551,0,0,1-.276,1.186,2.777,2.777,0,0,1-.773.9,3.485,3.485,0,0,1-1.176.572A5.182,5.182,0,0,1,580.9,46.894Z" transform="translate(-554.098 -37.279)" fill="#f9f9fd"/><path d="M582.9,51.865a23.436,23.436,0,0,1-12.906,3.8,23.831,23.831,0,0,1-15.756-5.8c-.329-.287-.032-.675.36-.451a32.293,32.293,0,0,0,27.793,1.668C582.975,50.832,583.473,51.456,582.9,51.865Zm1.452-1.6c-.445-.552-2.946-.265-4.08-.132-.339.041-.392-.246-.085-.461,1.992-1.35,5.267-.961,5.648-.511s-.106,3.621-1.971,5.135c-.286.235-.561.112-.434-.195C583.855,53.093,584.8,50.812,584.353,50.269Z" transform="translate(-554.098 -37.279)" fill="#f90"/></g></g></g></svg>