<svg xmlns="http://www.w3.org/2000/svg" width="510.252" height="276.04" viewBox="0 0 510.252 276.04"><path d="M423.8,121l22.528-13.719" transform="translate(-0.73 -15.421)" fill="none" stroke="#7173cd" stroke-width="1" stroke-dasharray="4.15 4.15"/><rect width="66" height="25" rx="3" transform="translate(444.252 76.49)" fill="#7173cd"/><path d="M463.183,109.93l-1.231-1.819a5.129,5.129,0,0,0,1.627-4.129c0-3.192-1.805-5.181-4.655-5.181s-4.676,1.982-4.676,5.181,1.791,5.175,4.676,5.175a5.424,5.424,0,0,0,1.736-.273l.752,1.046Zm-4.259-2.338c-1.757,0-2.871-1.388-2.871-3.61s1.114-3.616,2.871-3.616c1.736,0,2.85,1.4,2.85,3.616a3.485,3.485,0,0,1-.881,2.591l-.622-.779h-1.7l1.183,1.681A3.044,3.044,0,0,1,458.924,107.592Zm9.727.048c-1.182,0-1.859-.9-1.859-2.468s.677-2.468,1.859-2.468,1.853.909,1.853,2.468S469.834,107.64,468.651,107.64Zm0,1.421c2.236,0,3.6-1.462,3.6-3.889s-1.367-3.89-3.6-3.89-3.6,1.477-3.6,3.89S466.409,109.061,468.651,109.061Zm4.355-7.629,2.659,7.479h1.866l2.646-7.479h-1.791l-1.716,5.784h-.116l-1.73-5.784Zm11.443,1.2a1.692,1.692,0,0,1,1.723,1.818h-3.521A1.787,1.787,0,0,1,484.449,102.629Zm1.737,4.224a1.666,1.666,0,0,1-1.668.862,1.856,1.856,0,0,1-1.873-2.024V105.6h5.222v-.546c0-2.359-1.278-3.774-3.411-3.774-2.167,0-3.514,1.511-3.514,3.917s1.327,3.862,3.528,3.862c1.763,0,3-.847,3.322-2.208Zm3.383,2.058h1.7v-4.32a1.707,1.707,0,0,1,1.866-1.73,3.86,3.86,0,0,1,.868.1v-1.572a2.906,2.906,0,0,0-.7-.076,1.979,1.979,0,0,0-1.976,1.286H491.2v-1.163h-1.634Zm6.713,2.714c1.675,0,2.475-.615,3.111-2.475l2.7-7.718H500.3l-1.743,5.838h-.117l-1.75-5.838h-1.859l2.673,7.513-.089.328a1.225,1.225,0,0,1-1.34.964,3.423,3.423,0,0,1-.465-.027V111.6C495.722,111.618,496.18,111.625,496.282,111.625Z" transform="translate(-0.73 -15.421)" fill="#e9eafa"/><path d="M1.247,152.139,237.586,15.72a2.754,2.754,0,0,1,2.494,0L478.437,153.3a.76.76,0,0,1,0,1.44L242.1,291.163a2.754,2.754,0,0,1-2.494,0L1.247,153.579A.76.76,0,0,1,1.247,152.139Z" transform="translate(-0.73 -15.421)" fill="#8686b3" opacity="0.05" style="isolation:isolate"/><path d="M42.8,151.466,238.673,36.416a2.76,2.76,0,0,1,2.494,0L439.246,149.781a.76.76,0,0,1,0,1.44L240.812,265.761a2.756,2.756,0,0,1-2.495,0L42.8,152.906A.76.76,0,0,1,42.8,151.466Z" transform="translate(-0.73 -15.421)" fill="#7173cd" opacity="0.9" style="isolation:isolate"/><path d="M256.062,126.074v37.771l18.4-10.67V114.72Z" transform="translate(-0.73 -15.421)" fill="#33369f"/><path d="M240.326,94.237l-35.959,19.741,19.712,12.1,16.19-9.129,15.793,9.129,18.4-11.354Z" transform="translate(-0.73 -15.421)" fill="#b7b9e7"/><path d="M204.367,113.978l19.769,12.1-.17,18.657,22.041,11.982.227,20.426L204.367,153.29Z" transform="translate(-0.73 -15.421)" fill="#7173cd"/><path d="M240.269,116.945l15.793,9.129s.043,18.91.043,18.625c1.147.553-15.609-8.355-15.609-8.355Z" transform="translate(-0.73 -15.421)" fill="#7173cd"/><path d="M223.966,144.731l16.53-8.387-.227-19.4-16.133,9.129Z" transform="translate(-0.73 -15.421)" fill="#33369f"/><path d="M246.007,156.713l-22.041-11.982,16.53-8.387,21.133,11.3Z" transform="translate(-0.73 -15.421)" fill="#b7b9e7"/><path d="M246.235,177.139l15.11-10.213.284-19.285-15.622,9.072Z" transform="translate(-0.73 -15.421)" fill="#33369f"/></svg>