<svg xmlns="http://www.w3.org/2000/svg" xmlns:xlink="http://www.w3.org/1999/xlink" width="565.881" height="276.04" viewBox="0 0 565.881 276.04"><defs><clipPath id="a"><rect width="83" height="36" fill="none"/></clipPath><clipPath id="b"><rect width="82.985" height="23.71" fill="none"/></clipPath><clipPath id="c"><rect width="33.316" height="19.218" fill="none"/></clipPath></defs><path d="M1.247,152.139,237.586,15.72a2.754,2.754,0,0,1,2.494,0L478.437,153.3a.76.76,0,0,1,0,1.44L242.1,291.163a2.754,2.754,0,0,1-2.494,0L1.247,153.579A.76.76,0,0,1,1.247,152.139Z" transform="translate(-0.73 -15.422)" fill="#8686b3" opacity="0.05" style="isolation:isolate"/><path d="M147.575,89.289l91.038-52.55a2.762,2.762,0,0,1,2.495,0L329.922,88a.759.759,0,0,1,0,1.439l-91.038,52.55a2.762,2.762,0,0,1-2.495,0L147.575,90.728A.759.759,0,0,1,147.575,89.289Z" transform="translate(-0.73 -15.422)" fill="rgba(53,182,255,0.15)"/><path d="M40.541,152.782l91.038-52.549a2.754,2.754,0,0,1,2.494,0L222.887,151.5a.76.76,0,0,1,0,1.44l-91.038,52.549a2.754,2.754,0,0,1-2.494,0L40.541,154.222A.76.76,0,0,1,40.541,152.782Z" transform="translate(-0.73 -15.422)" fill="rgba(255,0,168,0.15)"/><path d="M145.313,214.582l91.038-52.549a2.756,2.756,0,0,1,2.495,0L327.66,213.3a.76.76,0,0,1,0,1.44l-91.038,52.549a2.756,2.756,0,0,1-2.495,0l-88.814-51.265A.76.76,0,0,1,145.313,214.582Z" transform="translate(-0.73 -15.422)" fill="rgba(255,153,0,0.15)"/><path d="M251.594,152.028l91.038-52.549a2.756,2.756,0,0,1,2.5,0l88.814,51.265a.76.76,0,0,1,0,1.44L342.9,204.733a2.756,2.756,0,0,1-2.5,0l-88.814-51.265A.76.76,0,0,1,251.594,152.028Z" transform="translate(-0.73 -15.422)" fill="rgba(0,102,255,0.15)"/><g transform="translate(97.357 117.251)"><g clip-path="url(#a)"><g transform="translate(-0.107 -0.12)"><path d="M142.665,137.027h.62l1.765-1.755.086-.745a7.967,7.967,0,0,0-11.2.694,7.875,7.875,0,0,0-1.71,3.154.962.962,0,0,1,.62-.036l3.53-.579s.179-.3.273-.278a4.424,4.424,0,0,1,6.028-.455Z" transform="translate(-97.98 -132.553)" fill="#ea4335"/><path d="M147.565,138.375a7.894,7.894,0,0,0-2.4-3.841L142.691,137a4.368,4.368,0,0,1,1.616,3.473v.438a2.192,2.192,0,1,1,0,4.384H139.9l-.44.443v2.63l.44.437h4.41a5.7,5.7,0,0,0,3.258-10.426Z" transform="translate(-97.98 -132.553)" fill="#4285f4"/><path d="M135.48,148.773h4.411v-3.509H135.48a2.218,2.218,0,0,1-.911-.2l-.619.191-1.778,1.755-.154.615A5.713,5.713,0,0,0,135.48,148.773Z" transform="translate(-97.98 -132.553)" fill="#34a853"/><path d="M135.48,137.39a5.693,5.693,0,0,0-3.462,10.22l2.557-2.542a2.188,2.188,0,0,1-1.1-2.9,2.211,2.211,0,0,1,4.02,0l2.557-2.542A5.732,5.732,0,0,0,135.48,137.39Z" transform="translate(-97.98 -132.553)" fill="#fbbc05"/><path d="M103.783,165.268A5.655,5.655,0,0,1,99.7,163.6a5.554,5.554,0,0,1,0-8.029,5.658,5.658,0,0,1,4.087-1.7,5.494,5.494,0,0,1,3.921,1.571l-1.1,1.115a3.985,3.985,0,0,0-2.819-1.109,3.942,3.942,0,0,0-2.911,1.231,4.128,4.128,0,0,0,0,5.812,4.174,4.174,0,0,0,5.8.067,3.261,3.261,0,0,0,.849-1.914H103.8v-1.575h5.259a5.052,5.052,0,0,1,.062.96,4.909,4.909,0,0,1-1.357,3.633A5.29,5.29,0,0,1,103.783,165.268Zm12.228-1.047a3.808,3.808,0,0,1-5.247,0,3.728,3.728,0,0,1,0-5.232,3.814,3.814,0,0,1,5.247,0,3.723,3.723,0,0,1-.006,5.232Zm-4.089-1.028a2.015,2.015,0,0,0,2.837.093c.032-.031.063-.061.093-.093a2.355,2.355,0,0,0,0-3.183,2.047,2.047,0,0,0-2.882-.06c-.021.019-.042.04-.061.06a2.344,2.344,0,0,0,.006,3.183Zm12.153,1.028a3.808,3.808,0,0,1-5.247,0,3.73,3.73,0,0,1,0-5.232,3.806,3.806,0,0,1,5.247,0,3.728,3.728,0,0,1,0,5.232Zm-4.087-1.028a2.014,2.014,0,0,0,2.836.093c.032-.031.064-.061.093-.093a2.355,2.355,0,0,0,0-3.183,2.046,2.046,0,0,0-2.881-.06l-.061.06a2.346,2.346,0,0,0,.007,3.183Zm9.389,5.362a3.264,3.264,0,0,1-2.063-.653,3.793,3.793,0,0,1-1.2-1.514l1.412-.586a2.367,2.367,0,0,0,.7.918,1.77,1.77,0,0,0,1.158.387,1.863,1.863,0,0,0,1.443-.553,2.244,2.244,0,0,0,.515-1.6v-.53h-.056a2.37,2.37,0,0,1-1.939.832,3.376,3.376,0,0,1-2.477-1.072,3.531,3.531,0,0,1-1.059-2.579,3.571,3.571,0,0,1,1.059-2.6,3.366,3.366,0,0,1,2.477-1.078,2.685,2.685,0,0,1,1.14.252,2.294,2.294,0,0,1,.806.586h.056v-.586h1.536v6.557a3.81,3.81,0,0,1-.985,2.864A3.48,3.48,0,0,1,129.377,168.555Zm.112-4.728a1.807,1.807,0,0,0,1.4-.615,2.27,2.27,0,0,0,.563-1.577,2.318,2.318,0,0,0-.563-1.607,1.8,1.8,0,0,0-1.4-.615,1.922,1.922,0,0,0-1.449.615,2.242,2.242,0,0,0-.62,1.6,2.2,2.2,0,0,0,.62,1.576A1.925,1.925,0,0,0,129.489,163.827Zm6.126-9.542v10.761H134V154.285Zm4.435,10.983A3.587,3.587,0,0,1,136.4,161.6a3.6,3.6,0,0,1,1.009-2.636,3.337,3.337,0,0,1,2.477-1.029,3.169,3.169,0,0,1,1.239.24,2.933,2.933,0,0,1,.947.616,4.291,4.291,0,0,1,.619.745,4.47,4.47,0,0,1,.366.72l.167.419-4.954,2.026a1.858,1.858,0,0,0,1.783,1.109,2.117,2.117,0,0,0,1.815-1.015l1.239.831a4.067,4.067,0,0,1-1.19,1.121A3.389,3.389,0,0,1,140.05,165.268Zm-2.068-3.775,3.295-1.361a1.129,1.129,0,0,0-.515-.559,1.676,1.676,0,0,0-.848-.216,1.915,1.915,0,0,0-1.331.585A1.944,1.944,0,0,0,137.982,161.493Z" transform="translate(-97.98 -132.553)" fill="#a8a8c1"/><path d="M151.689,165.268a5.091,5.091,0,0,1-5.191-4.985c0-.068,0-.137,0-.205a5.087,5.087,0,0,1,4.983-5.19h.206a4.633,4.633,0,0,1,3.673,1.625l-.892.861a3.377,3.377,0,0,0-2.775-1.262,3.965,3.965,0,1,0,0,7.93,3.95,3.95,0,0,0,3.1-1.441l.892.887a4.878,4.878,0,0,1-1.715,1.3A5.256,5.256,0,0,1,151.689,165.268Z" transform="translate(-97.98 -132.553)" fill="#a8a8c1"/><path d="M158.081,165.046H156.8V155.1h1.282Z" transform="translate(-97.98 -132.553)" fill="#a8a8c1"/><path d="M160.175,159.061a3.87,3.87,0,1,1-.991,2.586A3.6,3.6,0,0,1,160.175,159.061Zm.954,4.372a2.172,2.172,0,0,0,3.056.084c.029-.027.057-.056.084-.084a2.734,2.734,0,0,0,0-3.57,2.171,2.171,0,0,0-3.056-.083c-.029.027-.057.056-.084.083a2.717,2.717,0,0,0,.006,3.564Z" transform="translate(-97.98 -132.553)" fill="#a8a8c1"/><path d="M173.325,165.046h-1.239V164.1h-.037a2.372,2.372,0,0,1-.9.849,2.523,2.523,0,0,1-1.27.338,2.418,2.418,0,0,1-1.945-.775,3.07,3.07,0,0,1-.663-2.081V158.25h1.282V162.2q0,1.9,1.691,1.9a1.573,1.573,0,0,0,1.3-.616,2.305,2.305,0,0,0,.5-1.471V158.25h1.283v6.8Z" transform="translate(-97.98 -132.553)" fill="#a8a8c1"/><path d="M177.679,165.268a3.021,3.021,0,0,1-2.292-1.041,3.947,3.947,0,0,1,0-5.16,3.024,3.024,0,0,1,2.292-1.041,2.931,2.931,0,0,1,1.4.332,2.359,2.359,0,0,1,.929.832h.056l-.056-.942V155.1h1.282v9.944h-1.238V164.1H180a2.363,2.363,0,0,1-.929.831A2.921,2.921,0,0,1,177.679,165.268Zm.211-1.163a2.046,2.046,0,0,0,1.542-.666,2.9,2.9,0,0,0,0-3.584,2.1,2.1,0,0,0-2.957-.138c-.049.043-.1.091-.139.138a2.883,2.883,0,0,0,0,3.57A2.048,2.048,0,0,0,177.89,164.1Z" transform="translate(-97.98 -132.553)" fill="#a8a8c1"/></g></g></g><g transform="translate(205.145 63.742)"><g clip-path="url(#b)"><g transform="translate(0 0)"><path d="M220.154,101.607c3.966-.694,7.241-1.269,7.279-1.277l.068-.014L223.757,95.9c-2.059-2.429-3.744-4.426-3.744-4.437s3.866-10.58,3.888-10.618c.007-.012,2.638,4.492,6.377,10.92l6.414,11.025.049.085-11.9,0h-11.9l7.21-1.264Zm45.629-1.068a3.155,3.155,0,0,1-3.144-3.052,27.249,27.249,0,0,1-.082-3.829l-.007-3.2h1.6l.006,3.1c.006,2.79.009,3.117.036,3.313a2.929,2.929,0,0,0,.7,1.717,2.007,2.007,0,0,0,1.122.583,4.312,4.312,0,0,0,1.077,0,2.385,2.385,0,0,0,1.22-.657,3.185,3.185,0,0,0,.822-1.563l.047-.21.005-3.121.006-3.122h1.636v9.814h-1.619v-.779a5.583,5.583,0,0,0-.019-.772.635.635,0,0,0-.092.14,3.275,3.275,0,0,1-1.254,1.245,3.54,3.54,0,0,1-2.06.4Zm18.383-.008a4.254,4.254,0,0,1-1.862-.6,4.5,4.5,0,0,1-2.047-3.5,8.355,8.355,0,0,1-.02-1.783,5.05,5.05,0,0,1,1.841-3.532,4.338,4.338,0,0,1,1.77-.837,5.752,5.752,0,0,1,1.435-.083,3.78,3.78,0,0,1,2.543,1.3,4.923,4.923,0,0,1,1.027,3.08c.007.2.009.555,0,.785l-.009.419-3.508,0-3.508,0v.156a3.828,3.828,0,0,0,.316,1.469,3.243,3.243,0,0,0,.713,1.035,3.149,3.149,0,0,0,1.779.745,6.978,6.978,0,0,0,1.162-.044,4.951,4.951,0,0,0,2.191-.9l.155-.113a2.951,2.951,0,0,1,.022.725V99.6l-.166.1a5.838,5.838,0,0,1-2.35.809,13.734,13.734,0,0,1-1.487.021ZM287.22,94.3a3.147,3.147,0,0,0-.813-2.124,2.241,2.241,0,0,0-1.239-.6,3.7,3.7,0,0,0-.961.027,2.517,2.517,0,0,0-1.312.692,3.535,3.535,0,0,0-.868,1.378,4.32,4.32,0,0,0-.168.678l-.012.083h5.373Zm-47.589,5.983c0-.012,1.2-3.116,2.648-6.9l2.64-6.876h1.7l.07.179c.215.547,5.285,13.6,5.285,13.608s-.406.008-.9.008h-.9l-.73-1.93-.731-1.929H242.82l-.026.065c-.014.036-.326.9-.693,1.929l-.669,1.864h-.9a4.909,4.909,0,0,1-.9-.021Zm8.536-5.31s-.492-1.325-1.093-2.938a24.634,24.634,0,0,1-1.276-3.683c-.041-.227-.062-.233-.087-.026a4.866,4.866,0,0,1-.154.664c-.029.091-.535,1.469-1.125,3.062s-1.072,2.9-1.072,2.912,1.082.015,2.4.015,2.4,0,2.4-.006Zm4.349,5.081V99.8l2.931-4,2.931-4-2.653-.009-2.654-.009-.005-.668,0-.668h7.678v.452l-2.932,4.018c-1.612,2.21-2.932,4.021-2.932,4.026s1.3.008,2.9.008h2.9v1.345h-8.152Zm21.51.239c-.006-.006-.012-2.222-.012-4.924V90.458h1.6v1.013c0,.557.007,1.013.016,1.013a.908.908,0,0,0,.086-.2,3.5,3.5,0,0,1,.9-1.367,2.332,2.332,0,0,1,1.266-.624,2.648,2.648,0,0,1,.528-.019,2.36,2.36,0,0,1,.735.1l.066.021v1.65l-.189-.094a2.029,2.029,0,0,0-1.061-.211,1.927,1.927,0,0,0-.634.123,2,2,0,0,0-1.009.817,4.712,4.712,0,0,0-.67,1.911c-.013.117-.021,1.069-.024,2.945l-.005,2.772h-.789c-.434,0-.795,0-.8-.012Zm-68.151-.034c0-.007,1.764-3.044,3.92-6.749l3.92-6.738,4.569-3.8c2.513-2.092,4.575-3.805,4.583-3.808a.721.721,0,0,1-.073.183L217.833,89.9l-4.872,10.363-3.543,0c-1.949,0-3.543,0-3.543-.007Z" transform="translate(-205.875 -79.164)" fill="#0089d6"/></g></g></g><path d="M343.316,150.529V154.8a11.1,11.1,0,0,0,10.518-14.591,10.7,10.7,0,0,0-6.991-6.99,11.1,11.1,0,0,0-14.594,10.517h4.285v0a6.812,6.812,0,0,1,9.282-6.327,6.417,6.417,0,0,1,3.828,3.826,6.812,6.812,0,0,1-6.319,9.282v-4.261h-4.273v4.271Zm-4.264,3.283h-3.283v-3.282h3.284v3.282Zm-3.281-3.283h-2.753v-2.75l0,0h2.751v2.752Z" transform="translate(-0.73 -15.422)" fill="#0080ff"/><path d="M325.024,159.14a3.537,3.537,0,0,0-2.06-.583H321.2v5.594h1.763a3.426,3.426,0,0,0,2.061-.614,2.131,2.131,0,0,0,.711-.9,3.258,3.258,0,0,0,.251-1.322,3.168,3.168,0,0,0-.251-1.3,2.017,2.017,0,0,0-.712-.873Zm-2.793.363h.553a2.83,2.83,0,0,1,1.507.36,1.564,1.564,0,0,1,.643,1.455,1.685,1.685,0,0,1-.645,1.52h0a2.69,2.69,0,0,1-1.5.367h-.561v-3.7Zm4.478,4.648h.992v-3.94h-.992Zm.5-5.663a.592.592,0,0,0-.433.178.567.567,0,0,0-.179.427.613.613,0,1,0,1.225,0,.565.565,0,0,0-.179-.426.594.594,0,0,0-.434-.179Zm4.087,2.052a1.49,1.49,0,0,0-.993-.421,1.774,1.774,0,0,0-1.352.563,1.971,1.971,0,0,0-.534,1.415,2.019,2.019,0,0,0,.526,1.411,1.808,1.808,0,0,0,1.36.555,1.54,1.54,0,0,0,.978-.317v.091a1.034,1.034,0,0,1-.26.756.96.96,0,0,1-.711.263,1.251,1.251,0,0,1-1.093-.652l-.676.648.019.026a2.385,2.385,0,0,0,.664.6,2,2,0,0,0,1.1.286,1.9,1.9,0,0,0,1.415-.539,1.963,1.963,0,0,0,.531-1.431v-3.578H331.3v.329Zm-.26,2.327a.852.852,0,0,1-.68.292.843.843,0,0,1-.676-.292,1.136,1.136,0,0,1-.256-.77,1.159,1.159,0,0,1,.256-.781.93.93,0,0,1,1.356,0,1.143,1.143,0,0,1,.26.78,1.123,1.123,0,0,1-.26.77Zm2.085,1.284h.992v-3.94h-.992Zm.505-5.663a.593.593,0,0,0-.433.178.567.567,0,0,0-.179.427.609.609,0,0,0,.613.612.577.577,0,0,0,.235-.044.613.613,0,0,0,.2-.134.6.6,0,0,0,.178-.434.567.567,0,0,0-.178-.426.6.6,0,0,0-.434-.179Zm2.66.659h-.976v1.064h-.567v.9h.567v1.636a1.561,1.561,0,0,0,.3,1.089,1.45,1.45,0,0,0,1.068.319c.161,0,.324-.006.482-.016l.045,0v-.9l-.34.018a.653.653,0,0,1-.469-.123.824.824,0,0,1-.114-.521v-1.5h.923v-.9h-.923v-1.064Zm4.326,1.359a1.847,1.847,0,0,0-1.235-.387,2.013,2.013,0,0,0-.917.214,1.629,1.629,0,0,0-.673.632l.01.012.635.607a1.018,1.018,0,0,1,.938-.561.774.774,0,0,1,.511.165.52.52,0,0,1,.2.422v.192a2.516,2.516,0,0,0-.73-.113,1.915,1.915,0,0,0-1.193.345,1.172,1.172,0,0,0-.455.986,1.132,1.132,0,0,0,.384.894,1.447,1.447,0,0,0,.957.325,1.662,1.662,0,0,0,1.052-.413v.325h.976v-2.533A1.39,1.39,0,0,0,340.617,160.506Zm-1.761,2.139a.827.827,0,0,1,.473-.118,2.217,2.217,0,0,1,.753.143v.386a1.212,1.212,0,0,1-.857.3.612.612,0,0,1-.4-.113.351.351,0,0,1-.134-.287.359.359,0,0,1,.161-.313Zm3.007,1.506h.991v-5.594h-.991v5.594Zm4.589.084a2.883,2.883,0,1,1,2.884-2.884,2.887,2.887,0,0,1-2.884,2.884Zm0-4.751a1.868,1.868,0,1,0,1.868,1.867,1.87,1.87,0,0,0-1.868-1.867Zm6.419,3.258a2.774,2.774,0,0,1-.5.461h0a.937.937,0,0,1-.514.133.907.907,0,0,1-.719-.326,1.359,1.359,0,0,1,0-1.664.893.893,0,0,1,.714-.323,1.315,1.315,0,0,1,.945.539l.655-.628a1.952,1.952,0,0,0-1.623-.815,1.907,1.907,0,0,0-1.4.589,2.159,2.159,0,0,0,0,2.942,1.9,1.9,0,0,0,1.4.589,1.967,1.967,0,0,0,1.688-.877Zm4.07-1.981a1.492,1.492,0,0,0-.57-.468,1.844,1.844,0,0,0-.819-.174,1.68,1.68,0,0,0-1.346.608,2.251,2.251,0,0,0-.5,1.477,2.044,2.044,0,0,0,.545,1.469,1.9,1.9,0,0,0,1.432.566,1.972,1.972,0,0,0,1.631-.8l.022-.028-.647-.622a2.478,2.478,0,0,1-.222.228,1.234,1.234,0,0,1-.288.212,1.105,1.105,0,0,1-.5.111.965.965,0,0,1-.676-.241.908.908,0,0,1-.283-.6h2.627l.009-.362a2.563,2.563,0,0,0-.1-.734,2.164,2.164,0,0,0-.313-.64Zm-2.167.928a.97.97,0,0,1,.259-.467.712.712,0,0,1,.519-.2.726.726,0,0,1,.554.2.743.743,0,0,1,.2.463Zm5.975-1.183a1.847,1.847,0,0,0-1.235-.387,2.013,2.013,0,0,0-.917.214,1.623,1.623,0,0,0-.673.632l.01.012.635.607a1.018,1.018,0,0,1,.938-.561.775.775,0,0,1,.511.165.519.519,0,0,1,.2.422v.192a2.5,2.5,0,0,0-.729-.113,1.92,1.92,0,0,0-1.194.345,1.175,1.175,0,0,0-.455.986,1.133,1.133,0,0,0,.385.894,1.447,1.447,0,0,0,.957.325,1.662,1.662,0,0,0,1.052-.413v.325h.976v-2.533a1.39,1.39,0,0,0-.456-1.112Zm-1.761,2.139a.825.825,0,0,1,.473-.118,2.207,2.207,0,0,1,.752.143v.386a1.208,1.208,0,0,1-.856.3.613.613,0,0,1-.4-.113.351.351,0,0,1-.134-.287.359.359,0,0,1,.161-.313Zm6.031-2.062a1.476,1.476,0,0,0-1.154-.464,1.342,1.342,0,0,0-.951.336v-.244h-.973v3.94h.992v-2.173a1.08,1.08,0,0,1,.211-.705.716.716,0,0,1,.588-.25.635.635,0,0,1,.52.224.943.943,0,0,1,.19.62v2.284h.991v-2.284a1.863,1.863,0,0,0-.414-1.284Z" transform="translate(-0.73 -15.422)" fill="#0080ff"/><g transform="translate(219.466 191.11)"><g clip-path="url(#c)"><g transform="translate(0.075 0.011)"><path d="M229.618,213.495a3.117,3.117,0,0,0,.122.948,5.593,5.593,0,0,0,.353.767.451.451,0,0,1,.077.245.418.418,0,0,1-.21.319l-.7.447a.539.539,0,0,1-.287.1.517.517,0,0,1-.331-.149,3.4,3.4,0,0,1-.4-.5c-.11-.181-.22-.384-.342-.629a4.133,4.133,0,0,1-3.243,1.47,3.085,3.085,0,0,1-2.206-.767,2.93,2.93,0,0,1,.187-4.238,4.114,4.114,0,0,1,2.7-.83,9.077,9.077,0,0,1,1.169.085c.409.053.828.138,1.269.234v-.777a2.308,2.308,0,0,0-.519-1.7,2.6,2.6,0,0,0-1.8-.489,5.177,5.177,0,0,0-1.191.138,9.07,9.07,0,0,0-1.192.362,3.233,3.233,0,0,1-.386.139.7.7,0,0,1-.176.031c-.155,0-.232-.106-.232-.33v-.521a.655.655,0,0,1,.077-.373.827.827,0,0,1,.309-.224,6.56,6.56,0,0,1,1.39-.479,6.944,6.944,0,0,1,1.721-.2,4.129,4.129,0,0,1,2.891.862,3.453,3.453,0,0,1,.915,2.62v3.449h.022Zm-4.479,1.619a3.689,3.689,0,0,0,1.137-.192,2.462,2.462,0,0,0,1.048-.681,1.673,1.673,0,0,0,.375-.682,3.7,3.7,0,0,0,.11-.926v-.447a9.413,9.413,0,0,0-1.015-.181,8.552,8.552,0,0,0-1.037-.064,2.608,2.608,0,0,0-1.644.426,1.706,1.706,0,0,0-.132,2.353A1.563,1.563,0,0,0,225.139,215.114Zm8.859,1.15a.627.627,0,0,1-.419-.107.857.857,0,0,1-.232-.415l-2.592-8.23a1.787,1.787,0,0,1-.1-.426.238.238,0,0,1,.265-.267H232a.623.623,0,0,1,.43.107.855.855,0,0,1,.221.415l1.853,7.049,1.721-7.049a.744.744,0,0,1,.21-.415.778.778,0,0,1,.441-.107h.883a.678.678,0,0,1,.441.107.71.71,0,0,1,.21.415l1.743,7.134,1.908-7.134a.9.9,0,0,1,.221-.415.736.736,0,0,1,.43-.107h1.026a.242.242,0,0,1,.276.267,1.03,1.03,0,0,1-.022.17,1.47,1.47,0,0,1-.077.266l-2.659,8.231a.809.809,0,0,1-.232.415.724.724,0,0,1-.419.107h-.949a.678.678,0,0,1-.441-.107.744.744,0,0,1-.21-.426l-1.71-6.868-1.7,6.857a.819.819,0,0,1-.209.426.7.7,0,0,1-.441.107Zm14.176.287a7.539,7.539,0,0,1-1.7-.191,5.179,5.179,0,0,1-1.269-.426.787.787,0,0,1-.342-.3.734.734,0,0,1-.066-.3v-.543c0-.224.088-.331.254-.331a.662.662,0,0,1,.2.032c.067.022.166.064.276.107a6.244,6.244,0,0,0,1.214.373,6.882,6.882,0,0,0,1.313.127,3.063,3.063,0,0,0,1.61-.351,1.138,1.138,0,0,0,.574-1.012,1.015,1.015,0,0,0-.3-.745,2.82,2.82,0,0,0-1.114-.554l-1.6-.479a3.38,3.38,0,0,1-1.765-1.086,2.48,2.48,0,0,1-.552-1.544,2.311,2.311,0,0,1,.3-1.182,2.793,2.793,0,0,1,.8-.873,3.534,3.534,0,0,1,1.147-.553,4.958,4.958,0,0,1,1.39-.181,5.72,5.72,0,0,1,.739.042c.254.032.486.075.717.117s.43.107.629.171a2.433,2.433,0,0,1,.463.191.948.948,0,0,1,.331.267.559.559,0,0,1,.1.351v.5c0,.224-.089.341-.254.341a1.182,1.182,0,0,1-.419-.128,5.2,5.2,0,0,0-2.118-.415,2.939,2.939,0,0,0-1.468.3,1.019,1.019,0,0,0-.518.948.989.989,0,0,0,.331.756,3.342,3.342,0,0,0,1.213.585l1.567.48a3.371,3.371,0,0,1,1.71,1.022,2.352,2.352,0,0,1,.507,1.49,2.656,2.656,0,0,1-.287,1.236,2.886,2.886,0,0,1-.805.937,3.616,3.616,0,0,1-1.225.6,5.421,5.421,0,0,1-1.577.223Z" transform="translate(-220.271 -206.543)" fill="#a8a8c1"/><path d="M250.259,221.726a24.4,24.4,0,0,1-13.437,3.961,24.81,24.81,0,0,1-16.4-6.037c-.342-.3-.033-.7.375-.469a33.631,33.631,0,0,0,28.937,1.736c.606-.266,1.125.383.529.809Zm1.511-1.661c-.463-.575-3.067-.277-4.247-.138-.353.042-.408-.256-.088-.479,2.074-1.406,5.483-1,5.88-.533s-.111,3.77-2.052,5.345c-.3.245-.585.118-.452-.2.441-1.054,1.423-3.428.959-3.993Z" transform="translate(-220.271 -206.543)" fill="#f90"/></g></g></g><path d="M430.589,124.01l22.529-13.718" transform="translate(-0.73 -15.422)" fill="none" stroke="#f90" stroke-width="1" stroke-dasharray="4.15 4.15"/><rect width="126" height="25" rx="3" transform="translate(439.881 78.751)" fill="#f90"/><path d="M454.256,111.418a4.185,4.185,0,0,1-3.316-1.387,6.531,6.531,0,0,1-.006-7.582,4.182,4.182,0,0,1,3.315-1.387,4.26,4.26,0,0,1,2.851.991,3.672,3.672,0,0,1,1.326,2.529h-1.737a2.354,2.354,0,0,0-.847-1.415,2.465,2.465,0,0,0-1.593-.533,2.357,2.357,0,0,0-1.989.971,5.109,5.109,0,0,0,0,5.27,2.365,2.365,0,0,0,2,.971,2.636,2.636,0,0,0,1.6-.485,2.147,2.147,0,0,0,.841-1.32h1.737a3.562,3.562,0,0,1-1.327,2.448A4.385,4.385,0,0,1,454.256,111.418Zm6.029-.246V100.8h1.7v10.37Zm5.694-1.914a1.624,1.624,0,0,0,1.375.643,1.6,1.6,0,0,0,1.367-.643,3.663,3.663,0,0,0,0-3.643,1.771,1.771,0,0,0-2.742,0,3.663,3.663,0,0,0,0,3.643Zm1.375,2.065a3.421,3.421,0,0,1-2.639-1.033,4.71,4.71,0,0,1,.007-5.7,3.843,3.843,0,0,1,5.263-.007,4.707,4.707,0,0,1,0,5.708A3.412,3.412,0,0,1,467.354,111.323Zm11.812-7.629v7.478h-1.634v-1.189h-.116a2.19,2.19,0,0,1-2.235,1.34,2.5,2.5,0,0,1-1.908-.725,2.882,2.882,0,0,1-.683-2.044v-4.86h1.7v4.436a1.941,1.941,0,0,0,.362,1.285,1.41,1.41,0,0,0,1.122.417,1.631,1.631,0,0,0,1.257-.471,1.837,1.837,0,0,0,.445-1.313v-4.354Zm4.785,7.6a2.721,2.721,0,0,1-2.249-1.039,4.443,4.443,0,0,1-.827-2.83,4.393,4.393,0,0,1,.827-2.81,2.726,2.726,0,0,1,2.249-1.045,2.678,2.678,0,0,1,1.367.348,2.229,2.229,0,0,1,.9.964h.116V100.8h1.7v10.37h-1.64V109.99h-.117a2.321,2.321,0,0,1-.936.963A2.784,2.784,0,0,1,483.951,111.295Zm1.9-5.633a1.65,1.65,0,0,0-1.374-.649,1.631,1.631,0,0,0-1.368.649,3.42,3.42,0,0,0-.006,3.548,1.79,1.79,0,0,0,2.748,0,3.368,3.368,0,0,0,0-3.548Zm8.23-4.354h3.979a3.22,3.22,0,0,1,2.392.923,3.263,3.263,0,0,1,.923,2.413,3.159,3.159,0,0,1-.95,2.379,3.361,3.361,0,0,1-2.441.916h-2.139v3.233h-1.764Zm1.764,1.476v3.692h1.743a2.093,2.093,0,0,0,1.47-.479,1.735,1.735,0,0,0,.526-1.353,1.781,1.781,0,0,0-.52-1.381,2.072,2.072,0,0,0-1.469-.479Zm7.3,8.388v-7.478h1.634v1.162h.116a1.617,1.617,0,0,1,.705-.923,2.265,2.265,0,0,1,1.271-.362,2.544,2.544,0,0,1,.7.075v1.572a2.761,2.761,0,0,0-.868-.1,1.913,1.913,0,0,0-1.347.479,1.608,1.608,0,0,0-.519,1.251v4.32Zm7.486-1.914a1.621,1.621,0,0,0,1.374.643,1.6,1.6,0,0,0,1.367-.643,3.663,3.663,0,0,0,0-3.643,1.77,1.77,0,0,0-2.741,0,3.656,3.656,0,0,0,0,3.643Zm1.374,2.065a3.423,3.423,0,0,1-2.639-1.033,4.71,4.71,0,0,1,.007-5.7,3.844,3.844,0,0,1,5.264-.007,4.707,4.707,0,0,1,0,5.708A3.414,3.414,0,0,1,512.006,111.323Zm4.354-7.629h1.819l1.729,5.783h.116l1.716-5.783h1.791l-2.645,7.478H519.02Zm8.627,7.478v-7.478h1.689v7.478Zm.841-8.695a1.1,1.1,0,0,1-.752-.26.874.874,0,0,1-.294-.677.855.855,0,0,1,.294-.67,1.08,1.08,0,0,1,.752-.266,1.063,1.063,0,0,1,.752.266.855.855,0,0,1,.294.67.874.874,0,0,1-.294.677A1.078,1.078,0,0,1,525.828,102.477Zm5.66,8.818a2.721,2.721,0,0,1-2.249-1.039,4.443,4.443,0,0,1-.827-2.83,4.393,4.393,0,0,1,.827-2.81,2.726,2.726,0,0,1,2.249-1.045,2.678,2.678,0,0,1,1.367.348,2.222,2.222,0,0,1,.9.964h.116V100.8h1.695v10.37h-1.64V109.99h-.117a2.321,2.321,0,0,1-.936.963A2.784,2.784,0,0,1,531.488,111.295Zm1.9-5.633a1.65,1.65,0,0,0-1.374-.649,1.631,1.631,0,0,0-1.368.649,3.421,3.421,0,0,0-.006,3.548,1.79,1.79,0,0,0,2.748,0,3.363,3.363,0,0,0,0-3.548Zm7.458-.772a1.681,1.681,0,0,0-1.251.5,2,2,0,0,0-.547,1.319h3.52a1.948,1.948,0,0,0-.492-1.326A1.613,1.613,0,0,0,540.847,104.89Zm1.736,4.225h1.606a2.6,2.6,0,0,1-1.127,1.62,3.873,3.873,0,0,1-2.2.588,3.346,3.346,0,0,1-2.591-1.026,4.067,4.067,0,0,1-.936-2.837,4.123,4.123,0,0,1,.943-2.857,3.266,3.266,0,0,1,2.571-1.06,3.188,3.188,0,0,1,2.5,1,3.955,3.955,0,0,1,.91,2.769v.547h-5.223v.088a2.25,2.25,0,0,0,.533,1.484,1.749,1.749,0,0,0,1.34.54A1.627,1.627,0,0,0,542.583,109.115Zm3.384,2.057v-7.478H547.6v1.162h.116a1.616,1.616,0,0,1,.7-.923,2.265,2.265,0,0,1,1.271-.362,2.539,2.539,0,0,1,.7.075v1.572a2.761,2.761,0,0,0-.868-.1,1.908,1.908,0,0,0-1.346.479,1.605,1.605,0,0,0-.52,1.251v4.32Zm5.489-5.339a1.98,1.98,0,0,1,.834-1.647,3.436,3.436,0,0,1,2.16-.643,3.576,3.576,0,0,1,2.126.568,2.049,2.049,0,0,1,.889,1.579h-1.593a.98.98,0,0,0-.465-.629,2.021,2.021,0,0,0-1.921.02.761.761,0,0,0-.382.657.628.628,0,0,0,.266.519,2.277,2.277,0,0,0,.841.335l1.319.3a3.347,3.347,0,0,1,1.586.731,1.727,1.727,0,0,1,.506,1.306,2.066,2.066,0,0,1-.889,1.736,3.763,3.763,0,0,1-2.3.657,3.912,3.912,0,0,1-2.243-.575,2.077,2.077,0,0,1-.929-1.592h1.674a1.1,1.1,0,0,0,.513.656,2.063,2.063,0,0,0,1.026.225,1.934,1.934,0,0,0,1.045-.253.778.778,0,0,0,.4-.676q0-.623-1.032-.848l-1.327-.308a3.282,3.282,0,0,1-1.6-.758A1.854,1.854,0,0,1,551.456,105.833Z" transform="translate(-0.73 -15.422)" fill="#e9eafa"/></svg>