<svg xmlns="http://www.w3.org/2000/svg" xmlns:xlink="http://www.w3.org/1999/xlink" width="543.342" height="276.04" viewBox="0 0 543.342 276.04"><defs><clipPath id="a"><rect width="29.114" height="28.314" fill="none"/></clipPath></defs><path d="M430.589,130.257l22.529-13.719" transform="translate(-0.73 -22.422)" fill="none" stroke="#326de6" stroke-width="1" stroke-dasharray="4.15 4.15"/><rect width="96" height="25" rx="3" transform="translate(447.342 77.996)" fill="#326de6"/><path d="M459.486,117.418h-1.763v-9.864h1.763v4.539h.117l3.889-4.539h2.024l-3.726,4.3,4.02,5.564h-2.154l-3.117-4.354-1.053,1.21Zm13.768-7.478v7.478H471.62v-1.189H471.5a2.19,2.19,0,0,1-2.235,1.34,2.5,2.5,0,0,1-1.908-.725,2.882,2.882,0,0,1-.683-2.044v-4.86h1.695v4.436a1.94,1.94,0,0,0,.362,1.285,1.409,1.409,0,0,0,1.121.417,1.632,1.632,0,0,0,1.258-.471,1.841,1.841,0,0,0,.445-1.313V109.94Zm6.234,7.6a2.844,2.844,0,0,1-1.4-.341,2.338,2.338,0,0,1-.937-.964h-.116v1.182H475.4v-10.37h1.7v4.081h.116a2.185,2.185,0,0,1,.9-.957,2.9,2.9,0,0,1,3.616.684,5.226,5.226,0,0,1,0,5.646A2.711,2.711,0,0,1,479.488,117.541Zm.827-5.632a1.611,1.611,0,0,0-1.36-.65,1.662,1.662,0,0,0-1.381.656,3.34,3.34,0,0,0,0,3.535,1.667,1.667,0,0,0,1.381.649,1.616,1.616,0,0,0,1.36-.643,2.847,2.847,0,0,0,.5-1.777A2.815,2.815,0,0,0,480.315,111.909Zm7.082-.773a1.684,1.684,0,0,0-1.251.5,2,2,0,0,0-.546,1.319h3.52a1.949,1.949,0,0,0-.492-1.326A1.614,1.614,0,0,0,487.4,111.136Zm1.737,4.225h1.606a2.6,2.6,0,0,1-1.128,1.62,3.87,3.87,0,0,1-2.194.588,3.346,3.346,0,0,1-2.591-1.026,4.066,4.066,0,0,1-.936-2.837,4.123,4.123,0,0,1,.943-2.857,3.268,3.268,0,0,1,2.57-1.06,3.189,3.189,0,0,1,2.5,1,3.963,3.963,0,0,1,.909,2.769v.547h-5.222v.089a2.244,2.244,0,0,0,.533,1.483,1.749,1.749,0,0,0,1.34.54A1.627,1.627,0,0,0,489.134,115.361Zm3.384,2.057V109.94h1.633V111.1h.117a1.614,1.614,0,0,1,.7-.923,2.273,2.273,0,0,1,1.271-.362,2.539,2.539,0,0,1,.7.075v1.572a2.768,2.768,0,0,0-.868-.095,1.912,1.912,0,0,0-1.347.478,1.608,1.608,0,0,0-.519,1.251v4.32Zm5.92,0V109.94h1.633v1.2h.117a2.1,2.1,0,0,1,.833-.991,2.566,2.566,0,0,1,1.388-.356,2.454,2.454,0,0,1,1.907.725,2.928,2.928,0,0,1,.67,2.064v4.84h-1.7v-4.436q0-1.716-1.511-1.716a1.552,1.552,0,0,0-1.2.485,1.871,1.871,0,0,0-.444,1.313v4.354Zm11.7-6.282a1.681,1.681,0,0,0-1.251.5,2,2,0,0,0-.547,1.319h3.52a1.948,1.948,0,0,0-.492-1.326A1.613,1.613,0,0,0,510.134,111.136Zm1.736,4.225h1.607a2.6,2.6,0,0,1-1.128,1.62,3.873,3.873,0,0,1-2.2.588,3.346,3.346,0,0,1-2.591-1.026,4.066,4.066,0,0,1-.936-2.837,4.123,4.123,0,0,1,.943-2.857,3.269,3.269,0,0,1,2.571-1.06,3.192,3.192,0,0,1,2.5,1,3.963,3.963,0,0,1,.909,2.769v.547h-5.223v.089a2.25,2.25,0,0,0,.533,1.483,1.751,1.751,0,0,0,1.34.54A1.627,1.627,0,0,0,511.87,115.361Zm3.924-7.253h1.688v1.88h1.6v1.353h-1.6v3.671a1.149,1.149,0,0,0,.247.814,1.048,1.048,0,0,0,.779.252c.155,0,.346-.011.574-.034v1.326a4.649,4.649,0,0,1-.889.083,2.868,2.868,0,0,1-1.845-.472,1.948,1.948,0,0,1-.554-1.559v-4.081h-1.183v-1.353h1.183Zm8.053,3.028a1.681,1.681,0,0,0-1.251.5,2,2,0,0,0-.547,1.319h3.52a1.948,1.948,0,0,0-.492-1.326A1.614,1.614,0,0,0,523.847,111.136Zm1.736,4.225h1.606a2.6,2.6,0,0,1-1.127,1.62,3.873,3.873,0,0,1-2.2.588,3.346,3.346,0,0,1-2.591-1.026,4.065,4.065,0,0,1-.936-2.837,4.123,4.123,0,0,1,.943-2.857,3.269,3.269,0,0,1,2.571-1.06,3.188,3.188,0,0,1,2.5,1,3.959,3.959,0,0,1,.91,2.769v.547h-5.223v.089a2.25,2.25,0,0,0,.533,1.483,1.749,1.749,0,0,0,1.34.54A1.627,1.627,0,0,0,525.583,115.361Zm3.213-3.282a1.979,1.979,0,0,1,.834-1.647,3.442,3.442,0,0,1,2.16-.643,3.585,3.585,0,0,1,2.126.568,2.053,2.053,0,0,1,.889,1.579h-1.593a.98.98,0,0,0-.465-.629,2.024,2.024,0,0,0-1.921.021.759.759,0,0,0-.383.656.628.628,0,0,0,.267.519,2.259,2.259,0,0,0,.841.335l1.319.3a3.346,3.346,0,0,1,1.586.731,1.727,1.727,0,0,1,.506,1.306,2.065,2.065,0,0,1-.889,1.736,3.765,3.765,0,0,1-2.3.657,3.919,3.919,0,0,1-2.242-.574,2.083,2.083,0,0,1-.93-1.593h1.675a1.1,1.1,0,0,0,.513.656,2.061,2.061,0,0,0,1.025.226,1.947,1.947,0,0,0,1.046-.253.781.781,0,0,0,.4-.677q0-.622-1.033-.848l-1.326-.307a3.273,3.273,0,0,1-1.6-.759A1.854,1.854,0,0,1,528.8,112.079Z" transform="translate(-0.73 -22.422)" fill="#e9eafa"/><path d="M1.247,159.139,237.586,22.72a2.754,2.754,0,0,1,2.494,0L478.437,160.3a.76.76,0,0,1,0,1.44L242.1,298.163a2.754,2.754,0,0,1-2.494,0L1.247,160.579A.76.76,0,0,1,1.247,159.139Z" transform="translate(-0.73 -22.422)" fill="#8686b3" opacity="0.05" style="isolation:isolate"/><path d="M149.836,96.474l91.038-52.549a2.762,2.762,0,0,1,2.5,0l88.814,51.266a.759.759,0,0,1,0,1.439l-91.038,52.549a2.756,2.756,0,0,1-2.5,0L149.836,97.914A.76.76,0,0,1,149.836,96.474Z" transform="translate(-0.73 -22.422)" fill="#357aff" opacity="0.4" style="isolation:isolate"/><path d="M42.8,159.967l91.038-52.549a2.754,2.754,0,0,1,2.494,0l88.815,51.265a.76.76,0,0,1,0,1.44L134.11,212.672a2.754,2.754,0,0,1-2.494,0L42.8,161.407A.76.76,0,0,1,42.8,159.967Z" transform="translate(-0.73 -22.422)" fill="#357aff" opacity="0.4" style="isolation:isolate"/><path d="M147.575,221.767l91.038-52.549a2.756,2.756,0,0,1,2.495,0l88.814,51.265a.76.76,0,0,1,0,1.44l-91.038,52.549a2.756,2.756,0,0,1-2.495,0l-88.814-51.265A.76.76,0,0,1,147.575,221.767Z" transform="translate(-0.73 -22.422)" fill="#357aff" opacity="0.4" style="isolation:isolate"/><path d="M253.855,159.214l91.038-52.549a2.756,2.756,0,0,1,2.495,0L436.2,157.93a.76.76,0,0,1,0,1.44l-91.038,52.549a2.756,2.756,0,0,1-2.495,0l-88.814-51.265A.76.76,0,0,1,253.855,159.214Z" transform="translate(-0.73 -22.422)" fill="#357aff" opacity="0.4" style="isolation:isolate"/><g transform="translate(326.501 114.557)"><g clip-path="url(#a)"><g transform="translate(0.517 0.432)"><path d="M336.566,164.831a2.218,2.218,0,0,1-1.747-.845l-6.574-8.17a2.205,2.205,0,0,1-.432-1.916l2.348-10.2a2.221,2.221,0,0,1,1.221-1.522l9.5-4.545a2.234,2.234,0,0,1,1.954,0l9.5,4.527a2.22,2.22,0,0,1,1.221,1.521l2.348,10.2a2.264,2.264,0,0,1-.432,1.915l-6.574,8.17a2.274,2.274,0,0,1-1.747.845l-10.594.019Z" transform="translate(-327.748 -137.411)" fill="#326de6"/><path d="M351.367,153.187h-.019c-.019,0-.038,0-.038-.019-.037,0-.075-.019-.112-.019a2.533,2.533,0,0,0-.357-.037.7.7,0,0,1-.188-.019h-.019a4.978,4.978,0,0,1-1.014-.169.369.369,0,0,1-.207-.207c0-.019-.019-.019-.019-.037l-.244-.075a7.424,7.424,0,0,0-.131-2.649,7.733,7.733,0,0,0-1.052-2.46l.188-.169v-.037a.426.426,0,0,1,.094-.282,5.4,5.4,0,0,1,.845-.582c.056-.038.113-.057.169-.094a2.857,2.857,0,0,0,.319-.188c.019-.019.057-.038.094-.075.019-.019.038-.019.038-.038a.627.627,0,0,0,.131-.845.535.535,0,0,0-.432-.206.7.7,0,0,0-.413.15l-.037.037c-.038.019-.057.057-.094.075a3.1,3.1,0,0,0-.245.263.854.854,0,0,1-.131.132,4.767,4.767,0,0,1-.751.676.309.309,0,0,1-.169.056.235.235,0,0,1-.113-.019h-.038l-.225.151a9.016,9.016,0,0,0-.77-.714,7.5,7.5,0,0,0-3.926-1.559l-.019-.244-.037-.037a.394.394,0,0,1-.151-.245,6.64,6.64,0,0,1,.057-1.014v-.019a.689.689,0,0,1,.037-.187c.019-.113.038-.226.057-.357v-.169a.573.573,0,0,0-1-.432.6.6,0,0,0-.169.432v.15a1.082,1.082,0,0,0,.057.357c.018.056.018.113.037.188v.018a4.8,4.8,0,0,1,.056,1.015.389.389,0,0,1-.15.244l-.037.037-.019.244a9.635,9.635,0,0,0-1.015.151,7.24,7.24,0,0,0-3.718,2.1l-.188-.131h-.038c-.037,0-.075.018-.113.018a.3.3,0,0,1-.169-.056,4.976,4.976,0,0,1-.751-.7.9.9,0,0,0-.131-.131,3.267,3.267,0,0,0-.245-.263c-.019-.019-.056-.038-.094-.075-.018-.019-.037-.019-.037-.038a.655.655,0,0,0-.413-.15.533.533,0,0,0-.432.207.627.627,0,0,0,.131.845c.019,0,.019.018.038.018.037.019.056.057.094.076a2.7,2.7,0,0,0,.319.187.8.8,0,0,1,.169.094,5.462,5.462,0,0,1,.845.583.342.342,0,0,1,.094.281v.038l.188.169a.651.651,0,0,0-.094.15,7.316,7.316,0,0,0-1.052,4.958l-.244.075c0,.019-.019.019-.019.038a.434.434,0,0,1-.206.206,4.708,4.708,0,0,1-1.015.169h-.019a.627.627,0,0,0-.187.019,2.528,2.528,0,0,0-.357.038c-.038,0-.075.019-.113.019a.07.07,0,0,0-.056.018.617.617,0,0,0-.489.695.58.58,0,0,0,.6.432.413.413,0,0,0,.151-.019c.018,0,.037,0,.037-.018.038,0,.075-.019.113-.019a1.814,1.814,0,0,0,.338-.132c.056-.018.113-.056.169-.075h.019a4.6,4.6,0,0,1,.977-.281h.037a.419.419,0,0,1,.244.093c.019,0,.019.019.038.019l.263-.037a7.433,7.433,0,0,0,2.46,3.53,7.526,7.526,0,0,0,.808.545l-.113.244c0,.019.019.019.019.038a.385.385,0,0,1,.038.3,5.274,5.274,0,0,1-.489.883v.019c-.037.056-.075.094-.112.15-.075.094-.132.188-.207.3a.429.429,0,0,0-.056.094.066.066,0,0,1-.019.038.593.593,0,0,0,.244.807.5.5,0,0,0,.226.057.675.675,0,0,0,.563-.357.066.066,0,0,1,.019-.038.431.431,0,0,1,.056-.094,3.43,3.43,0,0,0,.113-.338l.056-.169a4.458,4.458,0,0,1,.395-.939.489.489,0,0,1,.244-.169c.019,0,.019,0,.037-.018l.132-.245a7.322,7.322,0,0,0,2.63.489,6.846,6.846,0,0,0,1.634-.188,8.247,8.247,0,0,0,.976-.282l.113.207c.019,0,.019,0,.038.019a.344.344,0,0,1,.244.169,6.4,6.4,0,0,1,.394.939v.018l.057.169a2.305,2.305,0,0,0,.112.338c.019.038.038.057.057.094a.066.066,0,0,0,.019.038.638.638,0,0,0,.563.357.494.494,0,0,0,.225-.057.554.554,0,0,0,.282-.338.676.676,0,0,0-.037-.469c0-.019-.019-.019-.019-.038a.429.429,0,0,0-.057-.094,1.714,1.714,0,0,0-.206-.3c-.038-.056-.075-.094-.113-.15v-.019a4.232,4.232,0,0,1-.488-.883.516.516,0,0,1,.019-.3c0-.019.018-.019.018-.038l-.094-.225a7.452,7.452,0,0,0,3.269-4.113l.225.037c.019,0,.019-.018.038-.018a.472.472,0,0,1,.244-.094h.037a4.6,4.6,0,0,1,.977.281h.019c.056.019.113.057.169.075a1.814,1.814,0,0,0,.338.132c.038,0,.075.019.113.019a.068.068,0,0,1,.056.019.429.429,0,0,0,.15.018.631.631,0,0,0,.6-.432.722.722,0,0,0-.544-.619Zm-8.7-.921-.826.395-.827-.395-.206-.882.563-.714h.92l.564.714-.188.882Zm4.9-1.953a5.933,5.933,0,0,1,.131,1.9l-2.874-.826a.509.509,0,0,1-.357-.6.454.454,0,0,1,.113-.207l2.273-2.047a6.049,6.049,0,0,1,.714,1.784Zm-1.616-2.911-2.46,1.747a.5.5,0,0,1-.658-.113.419.419,0,0,1-.094-.206l-.169-3.062a5.7,5.7,0,0,1,3.381,1.634Zm-5.447-1.54c.207-.037.394-.075.6-.113l-.169,3.005a.514.514,0,0,1-.507.489.446.446,0,0,1-.226-.057l-2.5-1.784a5.732,5.732,0,0,1,2.8-1.54Zm-3.7,2.667,2.235,1.991a.5.5,0,0,1,.056.695.373.373,0,0,1-.225.15l-2.911.845a6.044,6.044,0,0,1,.845-3.681Zm-.507,5.089,2.986-.507a.508.508,0,0,1,.526.4.529.529,0,0,1-.019.3l-1.145,2.761a5.913,5.913,0,0,1-2.348-2.949Zm6.856,3.738a6.144,6.144,0,0,1-1.315.15,6.386,6.386,0,0,1-1.9-.3l1.483-2.686a.493.493,0,0,1,.6-.131.779.779,0,0,1,.226.206l1.446,2.611c-.169.056-.357.094-.545.15Zm3.662-2.611a5.938,5.938,0,0,1-1.8,1.822l-1.183-2.836a.5.5,0,0,1,.263-.582.593.593,0,0,1,.263-.056l3.005.507a3.781,3.781,0,0,1-.545,1.145Z" transform="translate(-327.748 -137.411)" fill="#fff"/></g></g></g><g transform="translate(223.989 61.801)"><g clip-path="url(#a)"><g transform="translate(0.517 0.432)"><path d="M234.054,112.075a2.216,2.216,0,0,1-1.747-.846l-6.574-8.169a2.206,2.206,0,0,1-.432-1.916l2.348-10.2a2.224,2.224,0,0,1,1.221-1.521l9.505-4.545a2.232,2.232,0,0,1,1.953,0l9.5,4.526a2.221,2.221,0,0,1,1.221,1.522l2.348,10.2a2.267,2.267,0,0,1-.432,1.916l-6.574,8.17a2.274,2.274,0,0,1-1.747.845l-10.593.019Z" transform="translate(-225.236 -84.655)" fill="#326de6"/><path d="M248.855,100.431h-.019c-.018,0-.037,0-.037-.019-.038,0-.075-.019-.113-.019a2.528,2.528,0,0,0-.357-.038.74.74,0,0,1-.188-.018h-.018a4.988,4.988,0,0,1-1.015-.169.367.367,0,0,1-.206-.207c0-.019-.019-.019-.019-.038l-.244-.075a7.42,7.42,0,0,0-.132-2.648,7.732,7.732,0,0,0-1.052-2.46l.188-.169v-.038a.423.423,0,0,1,.094-.281,5.462,5.462,0,0,1,.845-.583c.057-.037.113-.056.169-.093a2.962,2.962,0,0,0,.32-.188c.019-.019.056-.038.094-.075.018-.019.037-.019.037-.038a.627.627,0,0,0,.132-.845.533.533,0,0,0-.432-.207.7.7,0,0,0-.414.151l-.037.037c-.038.019-.056.057-.094.075a3.081,3.081,0,0,0-.244.263.865.865,0,0,1-.132.132,4.817,4.817,0,0,1-.751.676.307.307,0,0,1-.169.056.237.237,0,0,1-.113-.019h-.037l-.226.151a9.02,9.02,0,0,0-.77-.714,7.5,7.5,0,0,0-3.926-1.559l-.018-.244-.038-.038a.392.392,0,0,1-.15-.244,6.634,6.634,0,0,1,.056-1.014v-.019a.669.669,0,0,1,.038-.188c.019-.112.037-.225.056-.356V89.2a.573.573,0,0,0-.995-.432.593.593,0,0,0-.169.432v.15a1.086,1.086,0,0,0,.056.357c.019.056.019.112.037.188v.018a4.872,4.872,0,0,1,.057,1.015.4.4,0,0,1-.15.244l-.038.037-.019.244a9.327,9.327,0,0,0-1.014.151,7.236,7.236,0,0,0-3.719,2.1l-.188-.131h-.038c-.037,0-.075.018-.112.018a.3.3,0,0,1-.169-.056,4.978,4.978,0,0,1-.752-.695.852.852,0,0,0-.131-.131,3.081,3.081,0,0,0-.244-.263c-.019-.019-.057-.038-.094-.075-.019-.019-.038-.019-.038-.038a.655.655,0,0,0-.413-.15.535.535,0,0,0-.432.206.627.627,0,0,0,.131.845c.019,0,.019.019.038.019.037.019.056.057.094.075a2.884,2.884,0,0,0,.319.188.771.771,0,0,1,.169.094,5.6,5.6,0,0,1,.846.582.345.345,0,0,1,.094.282v.038l.187.169a.687.687,0,0,0-.094.15,7.316,7.316,0,0,0-1.052,4.958l-.244.075c0,.019-.018.019-.018.038a.436.436,0,0,1-.207.206,4.708,4.708,0,0,1-1.014.169H230.6a.633.633,0,0,0-.188.019,2.544,2.544,0,0,0-.357.038c-.037,0-.075.018-.113.018a.069.069,0,0,0-.056.019.615.615,0,0,0-.488.695.578.578,0,0,0,.6.432.408.408,0,0,0,.15-.019c.019,0,.038,0,.038-.019.037,0,.075-.018.112-.018a1.761,1.761,0,0,0,.338-.132c.057-.019.113-.056.169-.075h.019a4.667,4.667,0,0,1,.977-.282h.038a.425.425,0,0,1,.244.094c.018,0,.018.019.037.019l.263-.037a7.428,7.428,0,0,0,2.461,3.53,7.524,7.524,0,0,0,.808.545l-.113.244c0,.019.019.019.019.038a.385.385,0,0,1,.037.3,5.265,5.265,0,0,1-.488.883v.019c-.038.056-.075.093-.113.15-.075.094-.131.188-.207.3a.474.474,0,0,0-.056.094.066.066,0,0,1-.019.038.594.594,0,0,0,.245.807.494.494,0,0,0,.225.057.676.676,0,0,0,.563-.357.066.066,0,0,1,.019-.038.428.428,0,0,1,.057-.094,3.41,3.41,0,0,0,.112-.338l.057-.169a4.407,4.407,0,0,1,.394-.939.489.489,0,0,1,.244-.169c.019,0,.019,0,.038-.019l.131-.244a7.327,7.327,0,0,0,2.63.489,6.84,6.84,0,0,0,1.634-.188,8.317,8.317,0,0,0,.977-.282l.112.207c.019,0,.019,0,.038.018a.349.349,0,0,1,.244.17,6.353,6.353,0,0,1,.4.939v.018l.056.169a2.312,2.312,0,0,0,.113.338c.019.038.037.057.056.094a.066.066,0,0,0,.019.038.639.639,0,0,0,.563.357.5.5,0,0,0,.226-.057.563.563,0,0,0,.282-.338.682.682,0,0,0-.038-.469c0-.019-.019-.019-.019-.038a.43.43,0,0,0-.056-.094,1.774,1.774,0,0,0-.207-.3c-.037-.057-.075-.094-.112-.15v-.019a4.194,4.194,0,0,1-.489-.883.525.525,0,0,1,.019-.3c0-.019.019-.019.019-.038l-.094-.225a7.456,7.456,0,0,0,3.268-4.113l.225.037c.019,0,.019-.019.038-.019a.483.483,0,0,1,.244-.093h.038a4.616,4.616,0,0,1,.977.281h.018c.057.019.113.057.169.075a1.814,1.814,0,0,0,.338.132c.038,0,.076.019.113.019a.069.069,0,0,1,.056.018.413.413,0,0,0,.151.019.632.632,0,0,0,.6-.432.722.722,0,0,0-.545-.619Zm-8.7-.921-.826.395-.826-.395-.207-.882.563-.714h.921l.563.714-.187.882Zm4.9-1.953a5.9,5.9,0,0,1,.131,1.9l-2.873-.826a.508.508,0,0,1-.357-.6.438.438,0,0,1,.112-.207l2.273-2.047a6.023,6.023,0,0,1,.714,1.784Zm-1.615-2.911-2.461,1.747a.5.5,0,0,1-.657-.113.414.414,0,0,1-.094-.207l-.169-3.061a5.7,5.7,0,0,1,3.381,1.634ZM238,93.106l.6-.113L238.43,96a.513.513,0,0,1-.507.488.44.44,0,0,1-.225-.056l-2.5-1.784a5.729,5.729,0,0,1,2.8-1.54Zm-3.7,2.667,2.235,1.99a.5.5,0,0,1,.057.695.38.38,0,0,1-.226.151l-2.911.845a6.044,6.044,0,0,1,.845-3.681Zm-.507,5.089,2.987-.507a.506.506,0,0,1,.525.395.538.538,0,0,1-.018.3l-1.146,2.761a5.919,5.919,0,0,1-2.348-2.949Zm6.856,3.738a6.129,6.129,0,0,1-1.315.15,6.391,6.391,0,0,1-1.9-.3l1.484-2.686a.494.494,0,0,1,.6-.132.794.794,0,0,1,.225.207l1.447,2.611c-.169.056-.357.093-.545.15Zm3.663-2.611a5.974,5.974,0,0,1-1.8,1.822l-1.183-2.836a.506.506,0,0,1,.263-.582.594.594,0,0,1,.263-.057l3.005.508a3.766,3.766,0,0,1-.544,1.145Z" transform="translate(-225.236 -84.655)" fill="#fff"/></g></g></g><g transform="translate(223.989 180.879)"><g clip-path="url(#a)"><g transform="translate(0.517 0.432)"><path d="M234.054,231.153a2.218,2.218,0,0,1-1.747-.845l-6.574-8.17a2.205,2.205,0,0,1-.432-1.916l2.348-10.2a2.224,2.224,0,0,1,1.221-1.521l9.505-4.545a2.232,2.232,0,0,1,1.953,0l9.5,4.526a2.223,2.223,0,0,1,1.221,1.522l2.348,10.2a2.264,2.264,0,0,1-.432,1.915l-6.574,8.17a2.274,2.274,0,0,1-1.747.845l-10.593.019Z" transform="translate(-225.236 -203.733)" fill="#326de6"/><path d="M248.855,219.509h-.019c-.018,0-.037,0-.037-.019-.038,0-.075-.019-.113-.019a2.519,2.519,0,0,0-.357-.037.7.7,0,0,1-.188-.019h-.018a4.988,4.988,0,0,1-1.015-.169.367.367,0,0,1-.206-.207c0-.019-.019-.019-.019-.037l-.244-.076a7.42,7.42,0,0,0-.132-2.648,7.732,7.732,0,0,0-1.052-2.46l.188-.169v-.037a.426.426,0,0,1,.094-.282,5.393,5.393,0,0,1,.845-.582c.057-.038.113-.057.169-.094a2.963,2.963,0,0,0,.32-.188c.019-.019.056-.038.094-.075.018-.019.037-.019.037-.038a.627.627,0,0,0,.132-.845.536.536,0,0,0-.432-.207.7.7,0,0,0-.414.151l-.037.037c-.038.019-.056.057-.094.075a3.083,3.083,0,0,0-.244.263.865.865,0,0,1-.132.132,4.767,4.767,0,0,1-.751.676.307.307,0,0,1-.169.056.237.237,0,0,1-.113-.019h-.037l-.226.151a9.021,9.021,0,0,0-.77-.714,7.5,7.5,0,0,0-3.926-1.559l-.018-.244-.038-.037a.4.4,0,0,1-.15-.245,6.634,6.634,0,0,1,.056-1.014v-.019a.655.655,0,0,1,.038-.187c.019-.113.037-.226.056-.357v-.169a.573.573,0,0,0-.995-.432.594.594,0,0,0-.169.432v.15a1.086,1.086,0,0,0,.056.357c.019.056.019.113.037.188v.018a4.872,4.872,0,0,1,.057,1.015.4.4,0,0,1-.15.244l-.038.037-.019.244a9.325,9.325,0,0,0-1.014.151,7.236,7.236,0,0,0-3.719,2.1l-.188-.131h-.038c-.037,0-.075.018-.112.018a.3.3,0,0,1-.169-.056,4.977,4.977,0,0,1-.752-.695.852.852,0,0,0-.131-.131,3.083,3.083,0,0,0-.244-.263c-.019-.019-.057-.038-.094-.075-.019-.019-.038-.019-.038-.038a.655.655,0,0,0-.413-.15.535.535,0,0,0-.432.206.628.628,0,0,0,.131.846c.019,0,.019.018.038.018.037.019.056.057.094.075a2.735,2.735,0,0,0,.319.188.771.771,0,0,1,.169.094,5.6,5.6,0,0,1,.846.582.345.345,0,0,1,.094.282v.038l.187.169a.687.687,0,0,0-.094.15,7.316,7.316,0,0,0-1.052,4.958l-.244.075c0,.019-.018.019-.018.038a.437.437,0,0,1-.207.206,4.707,4.707,0,0,1-1.014.169H230.6a.633.633,0,0,0-.188.019,2.544,2.544,0,0,0-.357.038c-.037,0-.075.019-.113.019a.071.071,0,0,0-.056.018.615.615,0,0,0-.488.7.578.578,0,0,0,.6.432.408.408,0,0,0,.15-.019c.019,0,.038,0,.038-.018.037,0,.075-.019.112-.019a1.761,1.761,0,0,0,.338-.132c.057-.018.113-.056.169-.075h.019a4.667,4.667,0,0,1,.977-.282h.038a.425.425,0,0,1,.244.094c.018,0,.018.019.037.019l.263-.037a7.428,7.428,0,0,0,2.461,3.53,7.522,7.522,0,0,0,.808.545l-.113.244c0,.019.019.019.019.038a.385.385,0,0,1,.037.3,5.265,5.265,0,0,1-.488.883v.019c-.038.056-.075.094-.113.15-.075.094-.131.188-.207.3a.474.474,0,0,0-.056.094.066.066,0,0,1-.019.038.594.594,0,0,0,.245.807.494.494,0,0,0,.225.057.676.676,0,0,0,.563-.357.066.066,0,0,1,.019-.038.428.428,0,0,1,.057-.094,3.411,3.411,0,0,0,.112-.338l.057-.169a4.407,4.407,0,0,1,.394-.939.489.489,0,0,1,.244-.169c.019,0,.019,0,.038-.018l.131-.245a7.327,7.327,0,0,0,2.63.489,6.84,6.84,0,0,0,1.634-.188,8.315,8.315,0,0,0,.977-.282l.112.207c.019,0,.019,0,.038.019a.344.344,0,0,1,.244.169,6.4,6.4,0,0,1,.4.939v.018l.056.169a2.312,2.312,0,0,0,.113.338c.019.038.037.057.056.094a.066.066,0,0,0,.019.038.639.639,0,0,0,.563.357.5.5,0,0,0,.226-.057.56.56,0,0,0,.282-.338.682.682,0,0,0-.038-.469c0-.019-.019-.019-.019-.038a.43.43,0,0,0-.056-.094,1.774,1.774,0,0,0-.207-.3c-.037-.056-.075-.094-.112-.15v-.019a4.194,4.194,0,0,1-.489-.883.525.525,0,0,1,.019-.3c0-.019.019-.019.019-.038l-.094-.225a7.455,7.455,0,0,0,3.268-4.113l.225.037c.019,0,.019-.018.038-.018a.475.475,0,0,1,.244-.094h.038a4.616,4.616,0,0,1,.977.281h.018c.057.019.113.057.169.075a1.813,1.813,0,0,0,.338.132c.038,0,.076.019.113.019a.067.067,0,0,1,.056.019.435.435,0,0,0,.151.018.631.631,0,0,0,.6-.432.723.723,0,0,0-.545-.619Zm-8.7-.921-.826.4-.826-.4-.207-.882.563-.714h.921l.563.714-.187.882Zm4.9-1.953a5.9,5.9,0,0,1,.131,1.9l-2.873-.826a.508.508,0,0,1-.357-.6.443.443,0,0,1,.112-.207l2.273-2.047a6.023,6.023,0,0,1,.714,1.784Zm-1.615-2.911-2.461,1.747a.5.5,0,0,1-.657-.113.411.411,0,0,1-.094-.206l-.169-3.062a5.7,5.7,0,0,1,3.381,1.634ZM238,212.184l.6-.113-.169,3.005a.514.514,0,0,1-.507.489.44.44,0,0,1-.225-.057l-2.5-1.784a5.729,5.729,0,0,1,2.8-1.54Zm-3.7,2.667,2.235,1.991a.5.5,0,0,1,.057.694.375.375,0,0,1-.226.151l-2.911.845a6.044,6.044,0,0,1,.845-3.681Zm-.507,5.089,2.987-.507a.507.507,0,0,1,.525.4.538.538,0,0,1-.018.3l-1.146,2.761a5.919,5.919,0,0,1-2.348-2.949Zm6.856,3.738a6.128,6.128,0,0,1-1.315.15,6.392,6.392,0,0,1-1.9-.3l1.484-2.686a.492.492,0,0,1,.6-.131.776.776,0,0,1,.225.206l1.447,2.611c-.169.056-.357.094-.545.15Zm3.663-2.611a5.963,5.963,0,0,1-1.8,1.822l-1.183-2.836a.507.507,0,0,1,.263-.582.593.593,0,0,1,.263-.056l3.005.507a3.755,3.755,0,0,1-.544,1.145Z" transform="translate(-225.236 -203.733)" fill="#fff"/></g></g></g><g transform="translate(116.955 119.079)"><g clip-path="url(#a)"><g transform="translate(0.517 0.432)"><path d="M127.02,169.353a2.218,2.218,0,0,1-1.747-.845l-6.574-8.17a2.205,2.205,0,0,1-.432-1.916l2.348-10.2a2.222,2.222,0,0,1,1.221-1.521l9.5-4.545a2.234,2.234,0,0,1,1.954,0l9.5,4.527a2.22,2.22,0,0,1,1.221,1.521l2.348,10.2a2.264,2.264,0,0,1-.432,1.915l-6.574,8.17a2.274,2.274,0,0,1-1.747.845l-10.594.019Z" transform="translate(-118.202 -141.933)" fill="#326de6"/><path d="M141.821,157.709H141.8c-.019,0-.037,0-.037-.019-.038,0-.075-.019-.113-.019a2.531,2.531,0,0,0-.357-.037.7.7,0,0,1-.188-.019h-.019a4.991,4.991,0,0,1-1.014-.169.372.372,0,0,1-.207-.207c0-.019-.018-.019-.018-.037l-.245-.075a7.424,7.424,0,0,0-.131-2.649,7.732,7.732,0,0,0-1.052-2.46l.188-.169v-.037a.426.426,0,0,1,.094-.282,5.393,5.393,0,0,1,.845-.582c.056-.038.113-.057.169-.094a2.962,2.962,0,0,0,.32-.188c.018-.019.056-.038.093-.075.019-.019.038-.019.038-.038a.627.627,0,0,0,.131-.845.533.533,0,0,0-.432-.206.7.7,0,0,0-.413.15l-.037.037c-.038.019-.057.057-.094.075a3.083,3.083,0,0,0-.244.263.864.864,0,0,1-.132.132,4.768,4.768,0,0,1-.751.676.309.309,0,0,1-.169.056.237.237,0,0,1-.113-.019h-.038l-.225.151a9.018,9.018,0,0,0-.77-.714,7.5,7.5,0,0,0-3.926-1.559l-.019-.244-.037-.037a.393.393,0,0,1-.15-.245,6.509,6.509,0,0,1,.056-1.014v-.019a.655.655,0,0,1,.038-.187c.018-.113.037-.226.056-.357v-.169a.573.573,0,0,0-1-.432.6.6,0,0,0-.169.432v.15a1.086,1.086,0,0,0,.057.357c.018.056.018.113.037.188v.018a4.871,4.871,0,0,1,.057,1.015.394.394,0,0,1-.151.244l-.037.037-.019.244a9.579,9.579,0,0,0-1.014.151,7.232,7.232,0,0,0-3.719,2.1l-.188-.131h-.038c-.037,0-.075.018-.112.018a.3.3,0,0,1-.17-.056,4.975,4.975,0,0,1-.751-.695.851.851,0,0,0-.131-.131,3.1,3.1,0,0,0-.245-.263c-.018-.019-.056-.038-.093-.075-.019-.019-.038-.019-.038-.038a.655.655,0,0,0-.413-.15.535.535,0,0,0-.432.206.628.628,0,0,0,.131.846c.019,0,.019.018.038.018.037.019.056.057.094.076a2.7,2.7,0,0,0,.319.187.794.794,0,0,1,.169.094,5.531,5.531,0,0,1,.845.582.345.345,0,0,1,.094.282v.038l.188.169a.651.651,0,0,0-.094.15,7.316,7.316,0,0,0-1.052,4.958l-.244.075c0,.019-.019.019-.019.038a.434.434,0,0,1-.206.206,4.708,4.708,0,0,1-1.015.169h-.018a.63.63,0,0,0-.188.019,2.526,2.526,0,0,0-.357.038c-.038,0-.075.019-.113.019a.07.07,0,0,0-.056.018.617.617,0,0,0-.489.7.58.58,0,0,0,.6.432.41.41,0,0,0,.15-.019c.019,0,.037,0,.037-.018.038,0,.075-.019.113-.019a1.762,1.762,0,0,0,.338-.132c.057-.018.113-.056.169-.075h.019a4.6,4.6,0,0,1,.977-.281h.037a.419.419,0,0,1,.244.093c.019,0,.019.019.038.019l.263-.037a7.428,7.428,0,0,0,2.461,3.53,7.613,7.613,0,0,0,.807.545l-.112.244c0,.019.018.019.018.038a.385.385,0,0,1,.038.3,5.337,5.337,0,0,1-.488.883v.019c-.038.056-.075.094-.113.15-.075.094-.132.188-.207.3a.43.43,0,0,0-.056.094.066.066,0,0,1-.019.038.594.594,0,0,0,.244.807.5.5,0,0,0,.226.057.673.673,0,0,0,.563-.357.066.066,0,0,1,.019-.038.473.473,0,0,1,.056-.094,3.434,3.434,0,0,0,.113-.338l.056-.169a4.457,4.457,0,0,1,.4-.939.489.489,0,0,1,.244-.169c.019,0,.019,0,.038-.018l.131-.245a7.327,7.327,0,0,0,2.63.489,6.845,6.845,0,0,0,1.634-.188,8.316,8.316,0,0,0,.977-.282l.112.207c.019,0,.019,0,.038.019a.344.344,0,0,1,.244.169,6.4,6.4,0,0,1,.394.939v.018l.057.169a2.305,2.305,0,0,0,.112.338c.019.038.038.057.057.094a.066.066,0,0,0,.019.038.638.638,0,0,0,.563.357.5.5,0,0,0,.226-.057.555.555,0,0,0,.281-.338.676.676,0,0,0-.037-.469c0-.019-.019-.019-.019-.038a.474.474,0,0,0-.056-.094,1.774,1.774,0,0,0-.207-.3c-.038-.056-.075-.094-.113-.15v-.019a4.232,4.232,0,0,1-.488-.883.516.516,0,0,1,.019-.3c0-.019.018-.019.018-.038l-.093-.225a7.456,7.456,0,0,0,3.268-4.113l.225.037c.019,0,.019-.018.038-.018a.472.472,0,0,1,.244-.094h.038a4.61,4.61,0,0,1,.976.281h.019c.056.019.113.057.169.075a1.814,1.814,0,0,0,.338.132c.038,0,.075.019.113.019a.068.068,0,0,1,.056.019.435.435,0,0,0,.151.018.633.633,0,0,0,.6-.432.723.723,0,0,0-.545-.619Zm-8.7-.921-.826.4-.827-.4-.206-.882.563-.714h.921l.563.714-.188.882Zm4.9-1.953a5.933,5.933,0,0,1,.131,1.9l-2.874-.826a.509.509,0,0,1-.357-.6.454.454,0,0,1,.113-.207l2.273-2.047a6.049,6.049,0,0,1,.714,1.784Zm-1.616-2.911-2.46,1.747a.5.5,0,0,1-.658-.113.419.419,0,0,1-.094-.206l-.169-3.062a5.7,5.7,0,0,1,3.381,1.634Zm-5.447-1.54.6-.113-.169,3.005a.514.514,0,0,1-.507.489.44.44,0,0,1-.225-.057l-2.5-1.784a5.729,5.729,0,0,1,2.8-1.54Zm-3.7,2.667,2.235,1.991a.5.5,0,0,1,.056.695.373.373,0,0,1-.225.15l-2.911.845a6.044,6.044,0,0,1,.845-3.681Zm-.507,5.089,2.986-.507a.507.507,0,0,1,.526.4.529.529,0,0,1-.019.3l-1.145,2.761a5.919,5.919,0,0,1-2.348-2.949Zm6.856,3.738a6.129,6.129,0,0,1-1.315.15,6.386,6.386,0,0,1-1.9-.3l1.484-2.686a.492.492,0,0,1,.6-.131.789.789,0,0,1,.225.206l1.446,2.611c-.169.056-.357.094-.544.15Zm3.662-2.611a5.949,5.949,0,0,1-1.8,1.822l-1.183-2.836a.5.5,0,0,1,.263-.582.593.593,0,0,1,.263-.056l3.005.507a3.757,3.757,0,0,1-.545,1.145Z" transform="translate(-118.202 -141.933)" fill="#fff"/></g></g></g></svg>