<svg xmlns="http://www.w3.org/2000/svg" width="161.253" height="29.818" viewBox="0 0 161.253 29.818"><path d="M.114.522H5.323v12.1H18.018V.522h5.209V29.5H18.018V17.4H5.323V29.5H.114Zm34.8,0H54.189V5.3H40.121v7.321h13.1V17.4h-13.1v7.178H54.189V29.5H34.912Zm29.753,0h5.209V24.578H82.26V29.5h-17.6Zm26.02,0h5.209V29.5H90.685ZM119.494,29.91a14.156,14.156,0,0,1-7.752-2.01,12.61,12.61,0,0,1-4.7-5.414A17.885,17.885,0,0,1,105.508,15a17.882,17.882,0,0,1,1.538-7.485,12.484,12.484,0,0,1,4.7-5.394,15.778,15.778,0,0,1,15.484,0,12.306,12.306,0,0,1,4.7,5.394A17.676,17.676,0,0,1,133.481,15a17.679,17.679,0,0,1-1.559,7.485,12.428,12.428,0,0,1-4.7,5.414A14.051,14.051,0,0,1,119.494,29.91Zm0-4.614a8.054,8.054,0,0,0,4.861-1.374,7.887,7.887,0,0,0,2.768-3.712A14.871,14.871,0,0,0,127.985,15a14.706,14.706,0,0,0-.862-5.189,7.767,7.767,0,0,0-2.768-3.691,7.967,7.967,0,0,0-4.861-1.394,8.06,8.06,0,0,0-4.881,1.394,7.826,7.826,0,0,0-2.748,3.691A14.706,14.706,0,0,0,111,15a14.872,14.872,0,0,0,.861,5.209,7.949,7.949,0,0,0,2.748,3.712A8.149,8.149,0,0,0,119.494,25.3Zm31.8,4.532a13.246,13.246,0,0,1-5.025-.964,10.367,10.367,0,0,1-4-2.871,9.5,9.5,0,0,1-2.071-4.676L145.371,20a5.457,5.457,0,0,0,1.907,3.9,7.153,7.153,0,0,0,6.686.841,3.747,3.747,0,0,0,1.64-1.333,3.347,3.347,0,0,0,.554-1.887,3.108,3.108,0,0,0-.779-2.132,6.036,6.036,0,0,0-1.907-1.456q-1.149-.574-3.159-1.374a40.536,40.536,0,0,1-4.245-1.928,8.675,8.675,0,0,1-2.789-2.5,6.759,6.759,0,0,1-1.148-4.04,7.512,7.512,0,0,1,1.21-4.286,7.81,7.81,0,0,1,3.281-2.769,10.856,10.856,0,0,1,4.553-.943,10.334,10.334,0,0,1,5.086,1.271,9.471,9.471,0,0,1,3.732,3.815l-4.327,2.645a5.805,5.805,0,0,0-1.989-2.276,4.746,4.746,0,0,0-2.687-.82,4.384,4.384,0,0,0-1.866.389,3.243,3.243,0,0,0-1.312,1.108,2.781,2.781,0,0,0-.472,1.6,2.683,2.683,0,0,0,.718,1.887,6.026,6.026,0,0,0,1.8,1.312q1.108.534,3.015,1.272a37.077,37.077,0,0,1,4.389,1.969,8.784,8.784,0,0,1,2.891,2.584,6.951,6.951,0,0,1,1.21,4.2,8.076,8.076,0,0,1-1.353,4.655,8.655,8.655,0,0,1-3.63,3.056A11.93,11.93,0,0,1,151.3,29.828Z" transform="translate(-0.114 -0.092)" fill="#43c9d5"/></svg>