<svg xmlns="http://www.w3.org/2000/svg" xmlns:xlink="http://www.w3.org/1999/xlink" width="139" height="99" viewBox="0 0 139 99"><defs><clipPath id="a"><rect width="139" height="99" transform="translate(0 0)" fill="none"/></clipPath></defs><g transform="translate(0 0)"><g transform="translate(0 0)" clip-path="url(#a)"><g transform="translate(0 0)"><path d="M66.559,15.481V58.62H30.764ZM66.559,0a17.847,17.847,0,0,1-5.242,12.633,17.912,17.912,0,0,1-12.656,5.233,17.911,17.911,0,0,1-12.655-5.233A17.847,17.847,0,0,1,30.764,0Zm5.9,58.624a17.9,17.9,0,0,1,35.8,0Zm0-15.481V0h35.8l-35.8,43.139Zm20.019,52.39a6.984,6.984,0,0,0,4.959-1.911l2.458,2.649a9.679,9.679,0,0,1-7.375,2.9c-6,0-9.879-3.976-9.879-9.35a9.185,9.185,0,0,1,9.332-9.353c5.958,0,9.335,4.526,9.037,10.8H86.923c.5,2.607,2.336,4.269,5.541,4.269Zm4.277-7.251c-.383-2.435-1.838-4.228-4.748-4.228a4.822,4.822,0,0,0-5.081,4.228h9.829ZM0,95.33,10.837,84.337H.257V80.889H15.864v3.517L5.028,95.395H16.017v3.452H0Zm28.183.2a6.986,6.986,0,0,0,4.959-1.911L35.6,96.267a9.679,9.679,0,0,1-7.375,2.9c-6,0-9.879-3.975-9.879-9.35a9.187,9.187,0,0,1,9.331-9.353c5.959,0,9.336,4.526,9.037,10.8H22.638c.5,2.607,2.336,4.27,5.541,4.27Zm4.285-7.251c-.383-2.435-1.838-4.227-4.748-4.227a4.823,4.823,0,0,0-5.082,4.227h9.83Zm27.658,1.541a8.993,8.993,0,0,1,9.037-9.342,7.789,7.789,0,0,1,6,2.694v-10.6h3.83V98.8h-3.83V96.324a7.7,7.7,0,0,1-6.034,2.836,9.06,9.06,0,0,1-9-9.338Zm15.252-.035a5.715,5.715,0,1,0-5.709,5.856,5.7,5.7,0,0,0,5.709-5.856Zm28.133,5.2,3.469-1.8a5.147,5.147,0,0,0,4.626,2.622c2.167,0,3.293-1.108,3.293-2.37,0-1.437-2.1-1.758-4.373-2.228-3.063-.65-6.253-1.655-6.253-5.351,0-2.84,2.707-5.466,6.969-5.428,3.358,0,5.859,1.33,7.276,3.478L115.3,85.667a4.668,4.668,0,0,0-4.047-2.048c-2.06,0-3.11,1-3.11,2.155,0,1.292,1.662,1.652,4.266,2.229,2.964.65,6.318,1.617,6.318,5.351,0,2.477-2.167,5.818-7.3,5.784-3.753,0-6.395-1.51-7.915-4.167Zm25.621-4.167L126.1,94.123v4.663h-3.83V72.564h3.83V89.738l8.129-8.906h4.664l-7.046,7.683,7.23,10.275h-4.335l-5.6-7.974ZM48.554,80.473c-4.556,0-8.366,2.943-8.366,7.836V98.8h3.9V88.794c0-2.943,1.7-4.709,4.6-4.709s4.339,1.758,4.339,4.709V98.8H56.91V88.309c0-4.885-3.83-7.836-8.367-7.836" fill="#03363d"/></g></g></g></svg>