<svg xmlns="http://www.w3.org/2000/svg" xmlns:xlink="http://www.w3.org/1999/xlink" width="305" height="169" viewBox="0 0 305 169"><defs><clipPath id="a"><rect width="305" height="169" transform="translate(0 0)" fill="none"/></clipPath><linearGradient id="b" x1="102.428" y1="-371.475" x2="119.944" y2="-435.387" gradientUnits="objectBoundingBox"><stop offset="0" stop-color="#debcff"/><stop offset="0.23" stop-color="#dfaaf8"/><stop offset="0.68" stop-color="#ca7ce5"/><stop offset="1" stop-color="#b657d7"/></linearGradient><linearGradient id="c" x1="252.486" y1="0.852" x2="303.915" y2="0.852" gradientUnits="objectBoundingBox"><stop offset="0" stop-color="#f4e9fd"/><stop offset="0.36" stop-color="#ead2f9"/><stop offset="0.71" stop-color="#eac4f7"/><stop offset="1" stop-color="#ebbff6"/></linearGradient><linearGradient id="d" x1="0.5" y1="1.959" x2="0.5" y2="1.05" gradientUnits="objectBoundingBox"><stop offset="0" stop-color="#f5e9fd" stop-opacity="0"/><stop offset="0.515" stop-color="#f4e9fd"/><stop offset="1" stop-color="#f7e9fd"/></linearGradient><clipPath id="e"><rect width="14.102" height="12.56" fill="none"/></clipPath><linearGradient id="f" x1="102.45" y1="-306.402" x2="119.966" y2="-360.547" gradientUnits="objectBoundingBox"><stop offset="0" stop-color="#bcbeff"/><stop offset="0.23" stop-color="#aaadf8"/><stop offset="0.68" stop-color="#7c83e5"/><stop offset="1" stop-color="#5761d7"/></linearGradient><linearGradient id="g" x1="252.484" y1="7.726" x2="303.913" y2="7.726" gradientUnits="objectBoundingBox"><stop offset="0" stop-color="#e9e9fd"/><stop offset="0.36" stop-color="#d3d2f9"/><stop offset="0.71" stop-color="#c5c4f7"/><stop offset="1" stop-color="#c0bff6"/></linearGradient><linearGradient id="h" y1="4.056" x2="1" y2="4.056" gradientUnits="objectBoundingBox"><stop offset="0" stop-color="#bcbeff"/><stop offset="0.513" stop-color="#a6a4e2"/><stop offset="1" stop-color="#8987c9"/></linearGradient><linearGradient id="i" x1="252.49" y1="4.42" x2="303.92" y2="4.42" xlink:href="#g"/><linearGradient id="j" x1="252.488" y1="4.768" x2="303.917" y2="4.768" xlink:href="#g"/><linearGradient id="k" y1="4.808" y2="4.808" xlink:href="#h"/><linearGradient id="l" x1="252.49" y1="5.139" x2="303.92" y2="5.139" xlink:href="#g"/><linearGradient id="m" x1="252.488" y1="5.541" x2="303.917" y2="5.541" xlink:href="#g"/><linearGradient id="n" y1="5.636" y2="5.636" xlink:href="#h"/><linearGradient id="o" x1="252.49" y1="5.93" x2="303.92" y2="5.93" xlink:href="#g"/><linearGradient id="p" x1="252.488" y1="6.391" x2="303.917" y2="6.391" xlink:href="#g"/><linearGradient id="q" x1="102.426" y1="-378.879" x2="119.941" y2="-442.791" xlink:href="#b"/><linearGradient id="r" x1="252.493" y1="-4.253" x2="303.924" y2="-4.253" xlink:href="#c"/><linearGradient id="s" x1="0.5" y1="0.429" x2="0.5" y2="-0.48" xlink:href="#d"/><linearGradient id="u" x1="102.448" y1="-312.675" x2="119.964" y2="-366.82" xlink:href="#f"/><linearGradient id="v" x1="252.493" y1="2.622" x2="303.923" y2="2.622" xlink:href="#g"/><linearGradient id="w" y1="-1.643" y2="-1.643" xlink:href="#h"/><linearGradient id="x" x1="252.487" y1="-1.023" x2="303.917" y2="-1.023" xlink:href="#g"/><linearGradient id="y" x1="252.494" y1="-1.084" x2="303.925" y2="-1.084" xlink:href="#g"/><linearGradient id="z" y1="-0.891" y2="-0.891" xlink:href="#h"/><linearGradient id="aa" x1="252.487" y1="-0.305" x2="303.917" y2="-0.305" xlink:href="#g"/><linearGradient id="ab" x1="252.494" y1="-0.311" x2="303.925" y2="-0.311" xlink:href="#g"/><linearGradient id="ac" y1="-0.063" y2="-0.063" xlink:href="#h"/><linearGradient id="ad" x1="252.487" y1="0.486" x2="303.917" y2="0.486" xlink:href="#g"/><linearGradient id="ae" x1="252.494" y1="0.539" x2="303.925" y2="0.539" xlink:href="#g"/></defs><g transform="translate(0 0)"><g transform="translate(0 0)" clip-path="url(#a)"><g transform="translate(0.201 0)"><path d="M.2,129.177,220.306,0" transform="translate(-0.201)" fill="none" stroke="#5d64d2" stroke-width="0.528"/><path d="M20.454,96.021,182.642,2.39a2.019,2.019,0,0,1,1.829,0l40.921,23.623a.557.557,0,0,1,0,1.056L63.2,120.7a2.019,2.019,0,0,1-1.829,0L20.454,97.077A.557.557,0,0,1,20.454,96.021Z" transform="translate(-0.201)" fill="#5d64d2" opacity="0.1" style="isolation:isolate"/><path d="M77.976,96.875h0a4.406,4.406,0,0,0,3.984,0h0l10.447-6.029a1.314,1.314,0,0,0,0-2.478L81.964,82.339h0l0,0a4.41,4.41,0,0,0-3.982,0h0l0,0-10.444,6.03a1.486,1.486,0,0,0-.874,1.231h0v.01a1.514,1.514,0,0,0,.874,1.236Zm14.3-6.3h0l-.01.006L81.822,96.624a4.111,4.111,0,0,1-3.705,0L67.672,90.583h0l-.011,0a1.035,1.035,0,0,1,0-1.964h0l.009-.006,10.445-6.03a4.111,4.111,0,0,1,3.705,0l10.445,6.03h0l.01,0a1.035,1.035,0,0,1,0,1.964Z" transform="translate(-0.201)" fill="#b160f0" stroke="#b160f0" stroke-width="0.106"/><path d="M93.549,87.291V83.715l-.655-.364c-.185,1.114-1.495,1.854-2.6,2.007l-7.483,4.373-3.269,1.183L69.117,85.532l.243-.137a4.781,4.781,0,0,1-1.854-2.24l-.7.418-.417.116v3.639a1.583,1.583,0,0,0,.919,1.283l10.441,6.031a4.931,4.931,0,0,0,4.436,0L92.63,88.611a1.589,1.589,0,0,0,.914-1.257v-.063Z" transform="translate(-0.201)" fill="#b160f0" opacity="0.2" style="isolation:isolate"/><path d="M93.549,84.111V81.745l-.655-.364c-.185,1.114-1.495,1.854-2.6,2.007l-7.483,4.378-3.269,1.178L69.117,83.562l.243-.137a4.759,4.759,0,0,1-1.854-2.239l-.7.417-.417.121v2.424a1.582,1.582,0,0,0,.919,1.284l10.441,6.031a4.931,4.931,0,0,0,4.436,0L92.63,85.432a1.584,1.584,0,0,0,.914-1.262v-.059Z" transform="translate(-0.201)" fill="url(#b)"/><path d="M90.3,83.388l-7.484,4.378-2.841,1.025v3.2a4.532,4.532,0,0,0,2.218-.528l10.446-6.031a1.584,1.584,0,0,0,.914-1.262V81.746l-.6-.333h-.063A2.981,2.981,0,0,1,90.3,83.388Z" transform="translate(-0.201)" fill="#0f054c" opacity="0.3" style="isolation:isolate"/><path d="M77.747,89.044,67.306,83.023a1.351,1.351,0,0,1,0-2.561l10.441-6.031a4.931,4.931,0,0,1,4.436,0L92.63,80.462a1.354,1.354,0,0,1,0,2.561L82.189,89.044a4.9,4.9,0,0,1-4.442,0Z" transform="translate(-0.201)" fill="url(#c)"/><path d="M92.635,83.023,82.189,89.044a4.9,4.9,0,0,1-4.436,0L67.306,83.023a1.636,1.636,0,0,1-.908-1.13,1.439,1.439,0,0,0,.908,1.426l10.441,6.032a4.908,4.908,0,0,0,4.437,0L92.63,83.319a1.467,1.467,0,0,0,.9-1.426,1.641,1.641,0,0,1-.9,1.13Z" transform="translate(-0.201)" fill="#fff"/><rect width="7.922" height="13.732" transform="translate(75.399 53.499)" fill="#e8ebfa"/><path d="M90.307,79.271V30.912H69.184V79.334c0,1.385.921,1.246,2.823,2.306,3.766,2.077,11.718,2.077,15.484,0C89.421,80.566,90.357,80.677,90.307,79.271Z" transform="translate(-0.201)" opacity="0.4" fill="url(#d)" style="isolation:isolate"/><g transform="translate(72.834 53.749)"><g clip-path="url(#e)"><g transform="translate(0 0)"><path d="M84.63,57.815c-.15-.051-.3-.1-.454-.143.026-.1.049-.208.07-.309.344-1.668.119-3.012-.648-3.455-.736-.424-1.939.018-3.154,1.076-.12.1-.237.212-.351.322q-.116-.109-.234-.216c-1.273-1.13-2.55-1.607-3.316-1.163-.735.425-.953,1.689-.644,3.269q.046.236.1.468-.271.076-.522.164c-1.493.52-2.447,1.336-2.447,2.182,0,.874,1.024,1.751,2.579,2.282q.189.064.381.12c-.042.166-.078.334-.111.5-.294,1.553-.064,2.787.669,3.21.757.436,2.028-.012,3.265-1.094.1-.088.2-.178.294-.271q.186.178.381.348c1.2,1.031,2.383,1.447,3.115,1.023.756-.437,1-1.763.683-3.375-.025-.126-.053-.252-.085-.377.09-.026.177-.053.263-.082,1.616-.535,2.668-1.4,2.668-2.287C87.137,59.161,86.153,58.34,84.63,57.815Zm-.351,3.911c-.077.025-.156.05-.237.074a14.045,14.045,0,0,0-.714-1.787,14.125,14.125,0,0,0,.687-1.76c.144.042.284.086.419.132,1.305.449,2.1,1.113,2.1,1.625C86.535,60.555,85.675,61.263,84.279,61.726ZM83.7,62.873a5.119,5.119,0,0,1,.068,1.862,1.245,1.245,0,0,1-.462.875c-.444.257-1.395-.077-2.42-.959-.121-.105-.239-.212-.354-.323a14.307,14.307,0,0,0,1.182-1.5,14.135,14.135,0,0,0,1.91-.295C83.652,62.648,83.678,62.762,83.7,62.873Zm-5.857,2.693a1.248,1.248,0,0,1-.989.037c-.445-.257-.63-1.247-.378-2.576.03-.157.065-.313.1-.468a14.064,14.064,0,0,0,1.9.275,14.627,14.627,0,0,0,1.21,1.5c-.087.085-.177.167-.268.247A5.112,5.112,0,0,1,77.843,65.566Zm-2.034-3.844a5.084,5.084,0,0,1-1.645-.874,1.24,1.24,0,0,1-.526-.838c0-.513.765-1.168,2.042-1.613q.232-.081.485-.153a14.439,14.439,0,0,0,.688,1.781,14.69,14.69,0,0,0-.7,1.806C76.04,61.8,75.924,61.762,75.809,61.722Zm.682-4.641c-.265-1.355-.089-2.376.354-2.633.471-.273,1.514.116,2.614,1.093.072.064.142.129.212.195a14.424,14.424,0,0,0-1.2,1.487,14.657,14.657,0,0,0-1.881.292c-.036-.144-.069-.289-.1-.434Zm6.083,1.5q-.207-.357-.429-.705c.45.056.881.132,1.286.224a12.83,12.83,0,0,1-.452,1.215C82.849,59.069,82.714,58.825,82.574,58.583Zm-2.481-2.416c.278.3.556.637.83,1-.555-.026-1.112-.026-1.667,0C79.53,56.807,79.811,56.471,80.093,56.167Zm-2.5,2.42q-.207.36-.4.729c-.175-.416-.325-.825-.448-1.22.4-.09.832-.164,1.279-.22q-.225.351-.433.711Zm.446,3.6a12.82,12.82,0,0,1-1.3-.209c.124-.4.278-.82.457-1.245.128.246.261.49.4.73S77.89,61.951,78.042,62.187ZM80.11,63.9c-.286-.308-.571-.649-.849-1.015.27.01.546.016.825.016s.572-.007.852-.019A12.949,12.949,0,0,1,80.11,63.9Zm2.875-3.185a12.943,12.943,0,0,1,.474,1.241,12.948,12.948,0,0,1-1.316.224c.149-.236.294-.475.433-.717S82.854,60.963,82.985,60.711Zm-.931.447q-.319.556-.676,1.091-.645.046-1.292.046c-.439,0-.866-.014-1.277-.041q-.364-.533-.689-1.093h0q-.323-.556-.6-1.136.278-.581.6-1.137h0c.214-.371.443-.735.684-1.089.419-.031.849-.048,1.284-.048h0c.437,0,.867.017,1.287.049q.358.53.679,1.085t.608,1.131Q82.378,60.6,82.054,61.158ZM83.3,54.43c.472.273.656,1.371.359,2.811-.019.092-.04.186-.063.28a14.376,14.376,0,0,0-1.886-.3,14.048,14.048,0,0,0-1.192-1.488q.159-.153.324-.3C81.881,54.532,82.854,54.175,83.3,54.43Zm-3.211,4.321a1.26,1.26,0,1,1-1.259,1.259A1.259,1.259,0,0,1,80.086,58.751Z" transform="translate(-73.035 -53.748)" fill="#b160f0"/></g></g></g><path d="M169.654,45.118h0a4.406,4.406,0,0,0,3.984,0h0l10.448-6.029a1.315,1.315,0,0,0,0-2.478l-10.448-6.029h0l0,0a4.412,4.412,0,0,0-3.983,0h0l0,0-10.444,6.03a1.486,1.486,0,0,0-.874,1.231h0v.01a1.515,1.515,0,0,0,.873,1.236Zm14.3-6.3v0l-.01.006L173.5,44.867a4.111,4.111,0,0,1-3.705,0L159.35,38.826h0l-.01,0a1.035,1.035,0,0,1,0-1.965h0l.01-.006,10.445-6.03a4.111,4.111,0,0,1,3.705,0l10.445,6.03h0l.01,0a1.035,1.035,0,0,1,0,1.965Z" transform="translate(-0.201)" fill="#5d64d2" stroke="#5d64d2" stroke-width="0.106"/><path d="M185.226,35.534V31.958l-.654-.364c-.185,1.114-1.5,1.854-2.6,2.007l-7.484,4.373-3.269,1.183-10.425-5.382.243-.137a4.78,4.78,0,0,1-1.854-2.24l-.7.418-.418.116v3.639a1.588,1.588,0,0,0,.919,1.283l10.442,6.031a4.931,4.931,0,0,0,4.436,0l10.447-6.031a1.585,1.585,0,0,0,.913-1.257v-.063Z" transform="translate(-0.201)" fill="#5d64d2" opacity="0.2" style="isolation:isolate"/><path d="M185.226,32.354V27.48s-2.181,2.751-3.285,2.9l-7.658,4.754h-2.64l-8.451-3.507-1.32-1.643a4.149,4.149,0,0,1-2.113-1.716l-1.7-.792v4.911a1.588,1.588,0,0,0,.919,1.284l10.442,6.031a4.931,4.931,0,0,0,4.436,0l10.447-6.031a1.585,1.585,0,0,0,.913-1.263v-.058Z" transform="translate(-0.201)" fill="url(#f)"/><path d="M175.869,34.082l-5.281,1.584,1.062-.319v4.887a4.532,4.532,0,0,0,2.218-.528l8.339-4.832a25.314,25.314,0,0,0,2.731-1.71,1.577,1.577,0,0,0,.29-.751V27.744C185.028,28.842,176.962,33.928,175.869,34.082Z" transform="translate(-0.201)" fill="#0f054c" opacity="0.3" style="isolation:isolate"/><path d="M169.425,35.175l-10.442-6.021a1.352,1.352,0,0,1,0-2.562l10.442-6.031a4.931,4.931,0,0,1,4.436,0l10.447,6.031a1.354,1.354,0,0,1,0,2.562l-10.442,6.021a4.9,4.9,0,0,1-4.441,0Z" transform="translate(-0.201)" fill="url(#g)"/><path d="M171.761,22.318l-.613-.354.613-.354.615.354Z" transform="translate(-0.201)" fill="#a8a8c1"/><path d="M172.987,23.03l-.612-.354.612-.357.616.357Z" transform="translate(-0.201)" fill="#a8a8c1" opacity="0.1" style="isolation:isolate"/><path d="M174.216,23.738l-.612-.354.612-.354.615.354Z" transform="translate(-0.201)" fill="#a8a8c1" opacity="0.4" style="isolation:isolate"/><path d="M175.444,24.446l-.612-.354.612-.354.616.354Z" transform="translate(-0.201)" fill="#a8a8c1"/><path d="M176.671,25.154l-.612-.354.612-.354.615.354Z" transform="translate(-0.201)" fill="#a8a8c1" opacity="0.4" style="isolation:isolate"/><path d="M177.9,25.862l-.612-.354.612-.354.616.354Z" transform="translate(-0.201)" fill="#a8a8c1"/><path d="M179.124,26.574l-.612-.355.612-.357.615.357Z" transform="translate(-0.201)" fill="#a8a8c1"/><path d="M180.354,27.282l-.612-.355.612-.354.616.354Z" transform="translate(-0.201)" fill="#a8a8c1"/><path d="M181.581,27.99l-.612-.354.612-.354.615.354Z" transform="translate(-0.201)" fill="#a8a8c1" opacity="0.1" style="isolation:isolate"/><path d="M170.528,23.03l-.616-.354.616-.354.612.354Z" transform="translate(-0.201)" fill="#a8a8c1"/><path d="M171.758,23.741l-.615-.354.615-.357.612.357Z" transform="translate(-0.201)" fill="#a8a8c1"/><path d="M172.985,24.449l-.616-.354.616-.354.612.354Z" transform="translate(-0.201)" fill="#a8a8c1"/><path d="M174.211,25.157,173.6,24.8l.615-.354.612.354Z" transform="translate(-0.201)" fill="#a8a8c1"/><path d="M175.438,25.865l-.616-.354.616-.354.612.354Z" transform="translate(-0.201)" fill="#a8a8c1"/><path d="M176.664,26.574l-.615-.354.615-.354.612.354Z" transform="translate(-0.201)" fill="#a8a8c1"/><path d="M177.893,27.285l-.616-.357.616-.354.612.354Z" transform="translate(-0.201)" fill="#a8a8c1"/><path d="M179.121,27.993l-.615-.354.615-.354.612.354Z" transform="translate(-0.201)" fill="#a8a8c1"/><path d="M180.35,28.7l-.616-.354.616-.354.612.354Z" transform="translate(-0.201)" fill="#a8a8c1"/><path d="M169.3,23.745l-.612-.354.612-.358.615.358Z" transform="translate(-0.201)" fill="#a8a8c1"/><path d="M170.522,24.453l-.612-.355.612-.354.616.354Z" transform="translate(-0.201)" fill="#a8a8c1"/><path d="M171.749,25.161l-.612-.354.612-.354.615.354Z" transform="translate(-0.201)" fill="#a8a8c1"/><path d="M172.979,25.869l-.612-.354.612-.354.616.354Z" transform="translate(-0.201)" fill="#a8a8c1" opacity="0.1" style="isolation:isolate"/><path d="M174.206,26.577l-.612-.354.612-.354.615.354Z" transform="translate(-0.201)" fill="#a8a8c1" opacity="0.4" style="isolation:isolate"/><path d="M175.432,27.285l-.612-.354.612-.354.616.354Z" transform="translate(-0.201)" fill="#a8a8c1" opacity="0.4" style="isolation:isolate"/><path d="M176.659,28l-.612-.354.612-.357.615.357Z" transform="translate(-0.201)" fill="#a8a8c1"/><path d="M177.886,28.7l-.613-.354.613-.354.615.354Z" transform="translate(-0.201)" fill="#a8a8c1"/><path d="M179.116,29.412l-.612-.354.612-.354.615.354Z" transform="translate(-0.201)" fill="#a8a8c1"/><path d="M168.067,24.456l-.616-.354.616-.357.612.357Z" transform="translate(-0.201)" fill="#a8a8c1" opacity="0.4" style="isolation:isolate"/><path d="M169.293,25.164l-.615-.354.615-.354.612.354Z" transform="translate(-0.201)" fill="#a8a8c1" opacity="0.4" style="isolation:isolate"/><path d="M170.52,25.872l-.616-.354.616-.354.612.354Z" transform="translate(-0.201)" fill="#a8a8c1" opacity="0.1" style="isolation:isolate"/><path d="M171.746,26.58l-.615-.354.615-.354.612.354Z" transform="translate(-0.201)" fill="#a8a8c1"/><path d="M172.973,27.288l-.616-.354.616-.354.612.354Z" transform="translate(-0.201)" fill="#a8a8c1"/><path d="M174.2,28l-.615-.358.615-.354.612.354Z" transform="translate(-0.201)" fill="#a8a8c1"/><path d="M175.43,28.708l-.616-.354L175.43,28l.612.354Z" transform="translate(-0.201)" fill="#a8a8c1" opacity="0.4" style="isolation:isolate"/><path d="M176.656,29.416l-.615-.354.615-.354.613.354Z" transform="translate(-0.201)" fill="#a8a8c1"/><path d="M177.885,30.124l-.615-.354.615-.354.612.354Z" transform="translate(-0.201)" fill="#a8a8c1"/><path d="M166.831,25.167l-.612-.354.612-.354.615.354Z" transform="translate(-0.201)" fill="#a8a8c1"/><path d="M168.057,25.875l-.612-.354.612-.354.616.354Z" transform="translate(-0.201)" fill="#a8a8c1"/><path d="M169.284,26.583l-.612-.354.612-.354.615.354Z" transform="translate(-0.201)" fill="#a8a8c1"/><path d="M170.511,27.291l-.613-.354.613-.354.615.354Z" transform="translate(-0.201)" fill="#a8a8c1"/><path d="M171.741,28l-.612-.354.612-.354.615.354Z" transform="translate(-0.201)" fill="#a8a8c1"/><path d="M172.968,28.711l-.613-.354.613-.358.615.358Z" transform="translate(-0.201)" fill="#a8a8c1"/><path d="M174.194,29.419l-.612-.354.612-.354.616.354Z" transform="translate(-0.201)" fill="#a8a8c1"/><path d="M175.421,30.127l-.612-.354.612-.354.615.354Z" transform="translate(-0.201)" fill="#a8a8c1"/><path d="M176.649,30.835l-.612-.354.612-.354.616.354Z" transform="translate(-0.201)" fill="#a8a8c1"/><path d="M165.6,25.879l-.616-.354.616-.358.612.358Z" transform="translate(-0.201)" fill="#a8a8c1"/><path d="M166.828,26.587l-.615-.354.615-.354.612.354Z" transform="translate(-0.201)" fill="#a8a8c1"/><path d="M168.055,27.3l-.616-.354.616-.354.612.354Z" transform="translate(-0.201)" fill="#a8a8c1" opacity="0.4" style="isolation:isolate"/><path d="M169.281,28l-.615-.354.615-.354.613.354Z" transform="translate(-0.201)" fill="#a8a8c1"/><path d="M170.508,28.711l-.615-.354.615-.354.612.354Z" transform="translate(-0.201)" fill="#a8a8c1" opacity="0.1" style="isolation:isolate"/><path d="M171.735,29.422l-.616-.354.616-.357.612.357Z" transform="translate(-0.201)" fill="#a8a8c1"/><path d="M172.965,30.13l-.615-.354.615-.354.612.354Z" transform="translate(-0.201)" fill="#a8a8c1"/><path d="M174.192,30.838l-.616-.354.616-.354.612.354Z" transform="translate(-0.201)" fill="#a8a8c1"/><path d="M175.42,31.546l-.615-.354.615-.354.612.354Z" transform="translate(-0.201)" fill="#a8a8c1"/><path d="M164.366,26.59l-.612-.354.612-.354.615.354Z" transform="translate(-0.201)" fill="#a8a8c1"/><path d="M165.593,27.3l-.613-.354.613-.354.615.354Z" transform="translate(-0.201)" fill="#a8a8c1"/><path d="M166.819,28.006l-.612-.354.612-.354.616.354Z" transform="translate(-0.201)" fill="#a8a8c1" opacity="0.4" style="isolation:isolate"/><path d="M168.05,28.714l-.612-.354.612-.354.615.354Z" transform="translate(-0.201)" fill="#a8a8c1"/><path d="M169.276,29.426l-.612-.357.612-.354.616.354Z" transform="translate(-0.201)" fill="#a8a8c1"/><path d="M170.5,30.134l-.612-.354.612-.354.615.354Z" transform="translate(-0.201)" fill="#a8a8c1" opacity="0.1" style="isolation:isolate"/><path d="M171.729,30.842l-.612-.354.612-.354.616.354Z" transform="translate(-0.201)" fill="#a8a8c1" opacity="0.4" style="isolation:isolate"/><path d="M172.956,31.55l-.612-.354.612-.354.615.354Z" transform="translate(-0.201)" fill="#a8a8c1"/><path d="M174.186,32.258l-.612-.354.612-.354.616.354Z" transform="translate(-0.201)" fill="#a8a8c1" opacity="0.1" style="isolation:isolate"/><path d="M163.133,27.3l-.615-.354.615-.354.612.354Z" transform="translate(-0.201)" fill="#a8a8c1"/><path d="M164.36,28.009l-.616-.354.616-.354.612.354Z" transform="translate(-0.201)" fill="#a8a8c1" opacity="0.4" style="isolation:isolate"/><path d="M165.59,28.718l-.615-.354.615-.354.612.354Z" transform="translate(-0.201)" fill="#a8a8c1"/><path d="M166.817,29.426l-.616-.354.616-.354.612.354Z" transform="translate(-0.201)" fill="#a8a8c1"/><path d="M168.043,30.137l-.615-.354.615-.358.612.358Z" transform="translate(-0.201)" fill="#a8a8c1"/><path d="M169.27,30.845l-.616-.354.616-.354.612.354Z" transform="translate(-0.201)" fill="#a8a8c1"/><path d="M170.5,31.553l-.615-.354.615-.354.612.354Z" transform="translate(-0.201)" fill="#a8a8c1"/><path d="M171.727,32.261l-.616-.354.616-.354.612.354Z" transform="translate(-0.201)" fill="#a8a8c1" opacity="0.4" style="isolation:isolate"/><path d="M172.955,32.969l-.615-.354.615-.354.612.354Z" transform="translate(-0.201)" fill="#a8a8c1"/><path d="M161.9,28.013l-.612-.354.612-.354.616.354Z" transform="translate(-0.201)" fill="#a8a8c1"/><path d="M163.128,28.721l-.612-.354.612-.354.615.354Z" transform="translate(-0.201)" fill="#a8a8c1" opacity="0.1" style="isolation:isolate"/><path d="M164.354,29.429l-.612-.354.612-.354.616.354Z" transform="translate(-0.201)" fill="#a8a8c1"/><path d="M165.581,30.137l-.612-.354.612-.354.615.354Z" transform="translate(-0.201)" fill="#a8a8c1"/><path d="M166.811,30.848l-.612-.357.612-.354.616.354Z" transform="translate(-0.201)" fill="#a8a8c1"/><path d="M168.038,31.556l-.612-.354.612-.354.615.354Z" transform="translate(-0.201)" fill="#a8a8c1"/><path d="M169.264,32.264l-.612-.354.612-.354.616.354Z" transform="translate(-0.201)" fill="#a8a8c1" opacity="0.4" style="isolation:isolate"/><path d="M170.491,32.973l-.612-.354.612-.354.615.354Z" transform="translate(-0.201)" fill="#a8a8c1"/><path d="M171.72,33.681l-.613-.354.613-.355.615.355Z" transform="translate(-0.201)" fill="#a8a8c1"/><path d="M171.661,34.316a2.444,2.444,0,0,1-1.2-.274l-9.751-5.625a.854.854,0,0,1-.489-.715,1.151,1.151,0,0,1,.685-.923l9.36-5.407a3.074,3.074,0,0,1,2.753-.112l9.747,5.625a.843.843,0,0,1,.346.291.858.858,0,0,1,.147.427,1.158,1.158,0,0,1-.685.92l-9.363,5.406A3.207,3.207,0,0,1,171.661,34.316Zm.162-13.235a3.117,3.117,0,0,0-1.509.377l-9.36,5.407a1.07,1.07,0,0,0-.642.844.765.765,0,0,0,.447.638l9.75,5.625a2.964,2.964,0,0,0,2.647-.112l9.374-5.414a1.075,1.075,0,0,0,.639-.843.771.771,0,0,0-.134-.382.76.76,0,0,0-.31-.26l-9.751-5.625a2.339,2.339,0,0,0-1.151-.268Z" transform="translate(-0.201)" fill="#a8a8c1"/><path d="M184.313,31.266l-10.446,6.021a4.9,4.9,0,0,1-4.437,0l-10.446-6.021a1.641,1.641,0,0,1-.909-1.13,1.439,1.439,0,0,0,.909,1.426l10.441,6.031a4.9,4.9,0,0,0,4.436,0l10.447-6.031a1.467,1.467,0,0,0,.9-1.426,1.641,1.641,0,0,1-.9,1.13Z" transform="translate(-0.201)" fill="#fff"/><path d="M116.067,56.465h0c-3.007,1.4-4.684,3.258-4.684,5.266s1.6,3.89,4.677,5.292A30.5,30.5,0,0,0,138.443,67h0c2.967-1.4,4.637-3.254,4.637-5.266s-1.671-3.875-4.67-5.271h0a30.229,30.229,0,0,0-22.343,0ZM127.232,54.6h0a27.177,27.177,0,0,1,11.015,2.113c2.924,1.366,4.51,3.158,4.51,5.017s-1.586,3.656-4.51,5.011h0a29.78,29.78,0,0,1-22.025,0c-2.924-1.36-4.5-3.142-4.5-5.011s1.58-3.657,4.5-5.023A27.173,27.173,0,0,1,127.232,54.6Z" transform="translate(-0.201)" fill="#5d64d2" stroke="#5d64d2" stroke-width="0.106"/><path d="M121.019,56.565a17.1,17.1,0,0,1,12.664,0,7.335,7.335,0,0,1,1.448.861c1.974-1.584,1.5-3.654-1.429-5.012a17.119,17.119,0,0,0-12.663,0c-2.936,1.358-3.409,3.423-1.428,5.012A6.868,6.868,0,0,1,121.019,56.565Z" transform="translate(-0.201)" fill="#5351af"/><path d="M140.856,55.372a12.794,12.794,0,0,0-2.3-1.352,22.033,22.033,0,0,0-4.68-1.5c3.258,1.658,3.159,4.225-.3,5.809a17.466,17.466,0,0,1-12.907,0c-3.31-1.515-3.547-3.971-.625-5.629a21.26,21.26,0,0,0-3.9,1.32,12.715,12.715,0,0,0-2.3,1.347h-2.35v3.85c0,1.88,1.547,3.755,4.647,5.191,6.187,2.868,16.224,2.868,22.418,0,3.093-1.436,4.647-3.311,4.647-5.191V55.372Z" transform="translate(-0.201)" fill="url(#h)"/><path d="M138.559,50.492c-6.194-2.868-16.231-2.868-22.418,0s-6.194,7.521,0,10.394,16.224,2.867,22.418,0S144.752,53.36,138.559,50.492Zm-4.871,8.186a17.466,17.466,0,0,1-12.907,0c-3.567-1.648-3.561-4.331,0-5.978a17.441,17.441,0,0,1,12.907,0C137.249,54.353,137.255,57.025,133.688,58.678Z" transform="translate(-0.201)" fill="url(#i)"/><path d="M138.56,60.484c-6.194,2.868-16.231,2.868-22.418,0-2.988-1.383-4.535-3.168-4.607-5-.145,1.944,1.4,3.908,4.607,5.4,6.187,2.868,16.224,2.868,22.418,0,3.205-1.484,4.752-3.444,4.607-5.392C143.1,57.305,141.548,59.1,138.56,60.484Z" transform="translate(-0.201)" fill="#fff"/><path d="M133.69,52.3a17.417,17.417,0,0,0-12.907,0c-1.889.871-2.778,2.038-2.633,3.168.1-1.014.987-2.017,2.633-2.788a17.417,17.417,0,0,1,12.907,0c1.672.771,2.56,1.774,2.633,2.788C136.448,54.342,135.585,53.175,133.69,52.3Z" transform="translate(-0.201)" fill="#fff"/><path d="M137.841,50.492c-5.765-2.672-15.138-2.672-20.871,0s-5.766,7,0,9.665,15.138,2.672,20.871,0S143.607,53.159,137.841,50.492Zm-4.206,7.721a16.935,16.935,0,0,1-12.466,0c-3.442-1.584-3.442-4.193,0-5.778a16.945,16.945,0,0,1,12.466,0C137.078,54.02,137.1,56.618,133.635,58.213Z" transform="translate(-0.201)" fill="url(#j)"/><path d="M127.4,59.407c4.867,0,8.813-1.828,8.813-4.083s-3.946-4.082-8.813-4.082-8.813,1.828-8.813,4.082S122.536,59.407,127.4,59.407Z" transform="translate(-0.201)" fill="#42e8e0" opacity="0.4" style="isolation:isolate"/><path d="M121.019,51.284a17.1,17.1,0,0,1,12.664,0,7.287,7.287,0,0,1,1.448.861c1.974-1.584,1.5-3.655-1.429-5.012a17.119,17.119,0,0,0-12.663,0c-2.936,1.357-3.409,3.422-1.428,5.012A6.868,6.868,0,0,1,121.019,51.284Z" transform="translate(-0.201)" fill="#5351af"/><path d="M140.856,50.091a12.735,12.735,0,0,0-2.3-1.352,21.976,21.976,0,0,0-4.68-1.5c3.258,1.658,3.159,4.225-.3,5.809a17.466,17.466,0,0,1-12.907,0c-3.31-1.516-3.547-3.971-.625-5.63a21.188,21.188,0,0,0-3.9,1.321,12.77,12.77,0,0,0-2.3,1.346h-2.35v3.85c0,1.881,1.547,3.755,4.647,5.192,6.187,2.868,16.224,2.868,22.418,0,3.093-1.437,4.647-3.311,4.647-5.192V50.091Z" transform="translate(-0.201)" fill="url(#k)"/><path d="M138.559,45.211c-6.194-2.868-16.231-2.868-22.418,0s-6.194,7.52,0,10.393,16.224,2.868,22.418,0S144.752,48.078,138.559,45.211ZM133.688,53.4a17.476,17.476,0,0,1-12.907,0c-3.567-1.648-3.561-4.331,0-5.979a17.441,17.441,0,0,1,12.907,0C137.249,49.071,137.255,51.744,133.688,53.4Z" transform="translate(-0.201)" fill="url(#l)"/><path d="M138.56,55.2c-6.194,2.868-16.231,2.868-22.418,0-2.988-1.384-4.535-3.169-4.607-5-.145,1.943,1.4,3.908,4.607,5.4,6.187,2.868,16.224,2.868,22.418,0,3.205-1.484,4.752-3.443,4.607-5.392C143.1,52.024,141.548,53.819,138.56,55.2Z" transform="translate(-0.201)" fill="#fff"/><path d="M133.69,47.022a17.417,17.417,0,0,0-12.907,0c-1.889.872-2.778,2.039-2.633,3.169.1-1.014.987-2.018,2.633-2.789a17.417,17.417,0,0,1,12.907,0c1.672.771,2.56,1.775,2.633,2.789C136.448,49.061,135.585,47.894,133.69,47.022Z" transform="translate(-0.201)" fill="#fff"/><path d="M137.841,45.211c-5.765-2.673-15.138-2.673-20.871,0s-5.766,7,0,9.664,15.138,2.673,20.871,0S143.607,47.878,137.841,45.211Zm-4.206,7.721a16.945,16.945,0,0,1-12.466,0c-3.442-1.585-3.442-4.194,0-5.778a16.945,16.945,0,0,1,12.466,0C137.078,48.738,137.1,51.337,133.635,52.932Z" transform="translate(-0.201)" fill="url(#m)"/><path d="M127.4,54.126c4.867,0,8.813-1.828,8.813-4.083s-3.946-4.082-8.813-4.082-8.813,1.827-8.813,4.082S122.536,54.126,127.4,54.126Z" transform="translate(-0.201)" fill="#42e8e0" opacity="0.4" style="isolation:isolate"/><path d="M121.019,45.475a17.088,17.088,0,0,1,12.664,0,7.283,7.283,0,0,1,1.448.86c1.974-1.584,1.5-3.654-1.429-5.012a17.119,17.119,0,0,0-12.663,0c-2.936,1.358-3.409,3.423-1.428,5.012A6.821,6.821,0,0,1,121.019,45.475Z" transform="translate(-0.201)" fill="#5351af"/><path d="M140.856,44.281a12.794,12.794,0,0,0-2.3-1.352,22.033,22.033,0,0,0-4.68-1.5c3.258,1.658,3.159,4.225-.3,5.81a17.476,17.476,0,0,1-12.907,0c-3.31-1.516-3.547-3.972-.625-5.63a21.26,21.26,0,0,0-3.9,1.32,12.773,12.773,0,0,0-2.3,1.347h-2.35v3.85c0,1.88,1.547,3.755,4.647,5.191,6.187,2.868,16.224,2.868,22.418,0,3.093-1.436,4.647-3.311,4.647-5.191V44.281Z" transform="translate(-0.201)" fill="url(#n)"/><path d="M138.559,39.4c-6.194-2.868-16.231-2.868-22.418,0s-6.194,7.521,0,10.394,16.224,2.868,22.418,0S144.752,42.269,138.559,39.4Zm-4.871,8.186a17.466,17.466,0,0,1-12.907,0c-3.567-1.648-3.561-4.331,0-5.978a17.441,17.441,0,0,1,12.907,0C137.249,43.262,137.255,45.934,133.688,47.587Z" transform="translate(-0.201)" fill="url(#o)"/><path d="M138.56,49.393c-6.194,2.868-16.231,2.868-22.418,0-2.988-1.383-4.535-3.168-4.607-5-.145,1.944,1.4,3.908,4.607,5.4,6.187,2.867,16.224,2.867,22.418,0,3.205-1.484,4.752-3.444,4.607-5.393C143.1,46.214,141.548,48.01,138.56,49.393Z" transform="translate(-0.201)" fill="#fff"/><path d="M133.69,41.213a17.407,17.407,0,0,0-12.907,0c-1.889.871-2.778,2.038-2.633,3.168.1-1.014.987-2.017,2.633-2.788a17.417,17.417,0,0,1,12.907,0c1.672.771,2.56,1.774,2.633,2.788C136.448,43.251,135.585,42.084,133.69,41.213Z" transform="translate(-0.201)" fill="#fff"/><path d="M137.841,39.4c-5.765-2.672-15.138-2.672-20.871,0s-5.766,7,0,9.665,15.138,2.672,20.871,0S143.607,42.068,137.841,39.4Zm-4.206,7.721a16.935,16.935,0,0,1-12.466,0c-3.442-1.584-3.442-4.193,0-5.778a16.945,16.945,0,0,1,12.466,0C137.078,42.929,137.1,45.527,133.635,47.122Z" transform="translate(-0.201)" fill="url(#p)"/><path d="M127.4,48.316c4.867,0,8.813-1.828,8.813-4.083s-3.946-4.082-8.813-4.082-8.813,1.828-8.813,4.082S122.536,48.316,127.4,48.316Z" transform="translate(-0.201)" fill="#5d64d2" opacity="0.4" style="isolation:isolate"/><path d="M103.558,159.509l196.8-115.55" transform="translate(-0.201)" fill="none" stroke="#5d64d2" stroke-width="0.528"/><path d="M99.145,136.025,261.333,42.394a2.021,2.021,0,0,1,1.83,0l40.921,23.624a.557.557,0,0,1,0,1.056L141.9,160.705a2.027,2.027,0,0,1-1.83,0L99.145,137.081A.557.557,0,0,1,99.145,136.025Z" transform="translate(-0.201)" fill="#5d64d2" opacity="0.1" style="isolation:isolate"/><path d="M156.671,136.879h0a4.406,4.406,0,0,0,3.984,0h0l10.447-6.029a1.314,1.314,0,0,0,0-2.478l-10.447-6.029h0l0,0a4.41,4.41,0,0,0-3.982,0h0l0,0-10.444,6.03a1.488,1.488,0,0,0-.873,1.231h0v.009a1.51,1.51,0,0,0,.873,1.236Zm14.3-6.3h0l-.009.005-10.446,6.041a4.109,4.109,0,0,1-3.7,0l-10.446-6.041h0l-.01,0a1.035,1.035,0,0,1-.513-1.588,1.025,1.025,0,0,1,.513-.377h0l.009-.005,10.446-6.031a4.109,4.109,0,0,1,3.7,0l10.446,6.031h0l.011,0a1.036,1.036,0,0,1,.513,1.588A1.045,1.045,0,0,1,170.973,130.583Z" transform="translate(-0.201)" fill="#b160f0" stroke="#b160f0" stroke-width="0.106"/><path d="M172.244,127.295V123.72l-.655-.365c-.185,1.115-1.494,1.854-2.6,2.007l-7.484,4.373-3.269,1.183-10.426-5.382.243-.137a4.775,4.775,0,0,1-1.853-2.239l-.7.417-.417.116v3.639a1.583,1.583,0,0,0,.919,1.283l10.441,6.032a4.933,4.933,0,0,0,4.437,0l10.446-6.032a1.58,1.58,0,0,0,.914-1.257v-.063Z" transform="translate(-0.201)" fill="#b160f0" opacity="0.2" style="isolation:isolate"/><path d="M172.244,124.116V121.75l-.655-.365c-.185,1.115-1.494,1.854-2.6,2.007l-7.484,4.379-3.269,1.177-10.426-5.381.243-.138a4.751,4.751,0,0,1-1.853-2.239l-.7.417-.417.122v2.424a1.583,1.583,0,0,0,.919,1.283l10.441,6.031a4.933,4.933,0,0,0,4.437,0l10.446-6.031a1.584,1.584,0,0,0,.914-1.262v-.058Z" transform="translate(-0.201)" fill="url(#q)"/><path d="M168.991,123.392l-7.484,4.378-2.841,1.025V132a4.533,4.533,0,0,0,2.218-.529l10.447-6.031a1.585,1.585,0,0,0,.622-.511,1.568,1.568,0,0,0,.291-.751V121.75l-.6-.333h-.064A2.978,2.978,0,0,1,168.991,123.392Z" transform="translate(-0.201)" fill="#0f054c" opacity="0.3" style="isolation:isolate"/><path d="M156.442,129.048,146,123.028a1.352,1.352,0,0,1,0-2.562l10.441-6.031a4.933,4.933,0,0,1,4.437,0l10.446,6.031a1.354,1.354,0,0,1,0,2.562l-10.441,6.02a4.894,4.894,0,0,1-4.442,0Z" transform="translate(-0.201)" fill="url(#r)"/><path d="M171.331,123.028l-10.447,6.021a4.906,4.906,0,0,1-4.436,0L146,123.028a1.636,1.636,0,0,1-.908-1.13,1.44,1.44,0,0,0,.908,1.426l10.442,6.031a4.9,4.9,0,0,0,4.436,0l10.446-6.031a1.472,1.472,0,0,0,.9-1.426,1.647,1.647,0,0,1-.9,1.13Z" transform="translate(-0.201)" fill="#fff"/><path d="M169,119.276V70.917H147.875v48.421c0,1.385.922,1.247,2.823,2.306,3.767,2.077,11.718,2.077,15.485,0C168.113,120.571,169.049,120.681,169,119.276Z" transform="translate(-0.201)" opacity="0.4" fill="url(#s)" style="isolation:isolate"/><g transform="translate(151.529 93.753)"><g clip-path="url(#e)"><g transform="translate(0 0)"><path d="M163.325,97.82q-.225-.078-.454-.143c.026-.105.05-.209.07-.31.344-1.668.119-3.012-.648-3.454-.736-.425-1.939.018-3.154,1.075q-.18.158-.351.322c-.076-.073-.154-.145-.234-.215-1.273-1.131-2.55-1.608-3.316-1.164-.735.425-.953,1.689-.643,3.27.03.156.065.312.1.467q-.271.077-.522.164c-1.493.52-2.447,1.336-2.447,2.182,0,.874,1.024,1.751,2.579,2.283.126.042.253.082.381.119-.041.167-.078.334-.11.5-.295,1.554-.065,2.787.668,3.21.757.437,2.028-.012,3.265-1.094.1-.088.2-.178.295-.271q.185.179.381.348c1.2,1.031,2.382,1.448,3.114,1.024.757-.438,1-1.763.683-3.375-.025-.127-.053-.252-.084-.377.089-.027.177-.054.262-.082,1.617-.536,2.669-1.4,2.669-2.288C165.833,99.165,164.848,98.344,163.325,97.82Zm-.35,3.91-.237.074a14.349,14.349,0,0,0-.714-1.787,14.115,14.115,0,0,0,.686-1.76c.144.042.284.086.419.132,1.305.449,2.1,1.114,2.1,1.625C165.23,100.56,164.371,101.267,162.975,101.73Zm-.58,1.148a5.069,5.069,0,0,1,.068,1.861,1.243,1.243,0,0,1-.462.875c-.444.258-1.394-.077-2.419-.959-.121-.1-.24-.212-.355-.323a14.177,14.177,0,0,0,1.182-1.5,14.136,14.136,0,0,0,1.91-.295C162.348,102.652,162.373,102.766,162.4,102.878Zm-5.857,2.692a1.244,1.244,0,0,1-.989.037c-.445-.257-.63-1.247-.377-2.575.03-.157.064-.314.1-.469a14.2,14.2,0,0,0,1.9.276,14.616,14.616,0,0,0,1.211,1.5c-.088.085-.178.167-.269.248A5.114,5.114,0,0,1,156.538,105.57Zm-2.034-3.843a5.133,5.133,0,0,1-1.645-.874,1.248,1.248,0,0,1-.526-.839c0-.513.765-1.168,2.042-1.613q.232-.081.486-.153a14.428,14.428,0,0,0,.687,1.781,14.638,14.638,0,0,0-.7,1.807C154.735,101.8,154.619,101.766,154.5,101.727Zm.682-4.642c-.265-1.355-.089-2.376.354-2.633.472-.273,1.515.117,2.614,1.093.072.064.143.129.212.195a14.288,14.288,0,0,0-1.2,1.487,14.675,14.675,0,0,0-1.882.292c-.036-.144-.068-.288-.1-.434Zm6.083,1.5q-.207-.357-.429-.7c.45.057.881.132,1.286.224-.122.39-.273.8-.451,1.215Q161.479,98.95,161.269,98.587Zm-2.481-2.416a12.852,12.852,0,0,1,.83,1q-.832-.04-1.667,0C158.225,96.811,158.506,96.475,158.788,96.171Zm-2.5,2.42c-.139.24-.271.483-.4.729a12.959,12.959,0,0,1-.448-1.22c.4-.09.831-.164,1.278-.219q-.225.35-.432.71Zm.445,3.6a12.547,12.547,0,0,1-1.3-.209c.125-.4.278-.82.457-1.245q.192.371.4.73T156.737,102.191Zm2.068,1.71c-.286-.309-.57-.649-.849-1.016.27.011.546.016.826.016s.571-.006.851-.019A12.971,12.971,0,0,1,158.8,103.9Zm2.875-3.185a12.572,12.572,0,0,1,.474,1.24,12.631,12.631,0,0,1-1.316.224c.149-.236.294-.475.433-.717S161.55,100.968,161.68,100.716Zm-.93.446q-.321.556-.677,1.091-.645.046-1.291.046c-.439,0-.866-.014-1.277-.041q-.366-.533-.69-1.093h0q-.322-.557-.6-1.136c.185-.387.386-.766.6-1.137h0q.321-.556.683-1.089c.42-.031.85-.048,1.284-.048h0c.436,0,.867.017,1.286.049q.359.529.68,1.085c.214.37.417.748.607,1.131Q161.073,100.6,160.75,101.162Zm1.242-6.728c.472.273.656,1.371.359,2.811-.019.092-.04.186-.063.281a14.346,14.346,0,0,0-1.886-.3,14.048,14.048,0,0,0-1.192-1.488q.159-.153.325-.3C160.576,94.536,161.549,94.179,161.992,94.434Zm-3.21,4.321a1.26,1.26,0,1,1-1.26,1.259A1.259,1.259,0,0,1,158.782,98.755Z" transform="translate(-151.73 -93.753)" fill="#b160f0"/></g></g></g><path d="M248.343,85.121h0a4.112,4.112,0,0,0,1.995.477,4.069,4.069,0,0,0,1.989-.477h0l10.447-6.029a1.315,1.315,0,0,0,0-2.479l-10.447-6.029h0a4.41,4.41,0,0,0-3.982,0h0L237.9,76.615a1.492,1.492,0,0,0-.873,1.231h0v.01a1.506,1.506,0,0,0,.873,1.235Zm14.3-6.3h0l-.009.006-10.446,6.041a4.109,4.109,0,0,1-3.7,0L238.039,78.83h0l-.01,0a1.034,1.034,0,0,1,0-1.964h0l.009-.006,10.446-6.03a4.1,4.1,0,0,1,3.7,0l10.446,6.03h0l.01,0a1.034,1.034,0,0,1,0,1.964Z" transform="translate(-0.201)" fill="#5d64d2" stroke="#5d64d2" stroke-width="0.106"/><path d="M263.916,75.538V71.962l-.655-.364c-.185,1.114-1.495,1.854-2.6,2.007l-7.484,4.373-3.269,1.183-10.426-5.382.243-.137a4.778,4.778,0,0,1-1.853-2.24l-.7.418-.417.116v3.639a1.583,1.583,0,0,0,.919,1.283l10.441,6.031a4.931,4.931,0,0,0,4.436,0L263,76.858a1.589,1.589,0,0,0,.914-1.257v-.063Z" transform="translate(-0.201)" fill="#5d64d2" opacity="0.2" style="isolation:isolate"/><path d="M263.916,72.358V67.484s-2.182,2.751-3.286,2.9l-7.658,4.754h-2.64l-8.451-3.507-1.32-1.643a4.147,4.147,0,0,1-2.112-1.716l-1.7-.792v4.911a1.586,1.586,0,0,0,.919,1.284l10.441,6.031a4.931,4.931,0,0,0,4.436,0L263,73.679a1.584,1.584,0,0,0,.914-1.263v-.058Z" transform="translate(-0.201)" fill="url(#u)"/><path d="M254.559,74.085l-5.282,1.585,1.063-.319v4.887a4.535,4.535,0,0,0,2.218-.528l8.338-4.832a25.214,25.214,0,0,0,2.731-1.71,1.593,1.593,0,0,0,.291-.752V67.748C263.717,68.846,255.652,73.932,254.559,74.085Z" transform="translate(-0.201)" fill="#0f054c" opacity="0.3" style="isolation:isolate"/><path d="M248.114,75.179l-10.441-6.021a1.352,1.352,0,0,1,0-2.562l10.441-6.031a4.931,4.931,0,0,1,4.436,0L263,66.6a1.354,1.354,0,0,1,0,2.562l-10.441,6.021a4.9,4.9,0,0,1-4.442,0Z" transform="translate(-0.201)" fill="url(#v)"/><path d="M250.454,62.322l-.612-.354.612-.354.615.354Z" transform="translate(-0.201)" fill="#a8a8c1"/><path d="M251.68,63.033l-.612-.354.612-.357.616.357Z" transform="translate(-0.201)" fill="#a8a8c1" opacity="0.1" style="isolation:isolate"/><path d="M252.907,63.742l-.612-.354.612-.354.615.354Z" transform="translate(-0.201)" fill="#a8a8c1" opacity="0.4" style="isolation:isolate"/><path d="M254.134,64.45l-.613-.354.613-.354.615.354Z" transform="translate(-0.201)" fill="#a8a8c1"/><path d="M255.364,65.158l-.612-.354.612-.354.615.354Z" transform="translate(-0.201)" fill="#a8a8c1" opacity="0.4" style="isolation:isolate"/><path d="M256.591,65.866l-.612-.354.612-.354.615.354Z" transform="translate(-0.201)" fill="#a8a8c1"/><path d="M257.817,66.577l-.612-.354.612-.357.616.357Z" transform="translate(-0.201)" fill="#a8a8c1"/><path d="M259.046,67.285l-.612-.354.612-.354.615.354Z" transform="translate(-0.201)" fill="#a8a8c1"/><path d="M260.272,67.993l-.612-.354.612-.354.616.354Z" transform="translate(-0.201)" fill="#a8a8c1" opacity="0.1" style="isolation:isolate"/><path d="M249.221,63.034l-.616-.354.616-.354.612.354Z" transform="translate(-0.201)" fill="#a8a8c1"/><path d="M250.447,63.745l-.615-.354.615-.357.613.357Z" transform="translate(-0.201)" fill="#a8a8c1"/><path d="M251.674,64.453l-.615-.354.615-.354.612.354Z" transform="translate(-0.201)" fill="#a8a8c1"/><path d="M252.9,65.161l-.615-.354.615-.354.613.354Z" transform="translate(-0.201)" fill="#a8a8c1"/><path d="M254.131,65.869l-.615-.354.615-.354.612.354Z" transform="translate(-0.201)" fill="#a8a8c1"/><path d="M255.358,66.577l-.616-.354.616-.354.612.354Z" transform="translate(-0.201)" fill="#a8a8c1"/><path d="M256.586,67.288l-.615-.357.615-.354.612.354Z" transform="translate(-0.201)" fill="#a8a8c1"/><path d="M257.813,68l-.616-.354.616-.354.612.354Z" transform="translate(-0.201)" fill="#a8a8c1"/><path d="M259.039,68.705l-.615-.354.615-.354.612.354Z" transform="translate(-0.201)" fill="#a8a8c1"/><path d="M247.989,63.748l-.612-.354.612-.357.615.357Z" transform="translate(-0.201)" fill="#a8a8c1"/><path d="M249.216,64.456,248.6,64.1l.612-.354.615.354Z" transform="translate(-0.201)" fill="#a8a8c1"/><path d="M250.442,65.164l-.612-.354.612-.354.616.354Z" transform="translate(-0.201)" fill="#a8a8c1"/><path d="M251.669,65.873l-.612-.354.612-.354.615.354Z" transform="translate(-0.201)" fill="#a8a8c1" opacity="0.1" style="isolation:isolate"/><path d="M252.9,66.581l-.612-.354.612-.354.616.354Z" transform="translate(-0.201)" fill="#a8a8c1" opacity="0.4" style="isolation:isolate"/><path d="M254.126,67.289l-.612-.354.612-.354.615.354Z" transform="translate(-0.201)" fill="#a8a8c1" opacity="0.4" style="isolation:isolate"/><path d="M255.352,68l-.612-.354.612-.357.616.357Z" transform="translate(-0.201)" fill="#a8a8c1"/><path d="M256.581,68.708l-.612-.354.612-.354.615.354Z" transform="translate(-0.201)" fill="#a8a8c1"/><path d="M257.807,69.416l-.612-.354.612-.354.616.354Z" transform="translate(-0.201)" fill="#a8a8c1"/><path d="M246.756,64.46l-.615-.354.615-.358.612.358Z" transform="translate(-0.201)" fill="#a8a8c1" opacity="0.4" style="isolation:isolate"/><path d="M247.983,65.168l-.616-.354.616-.354.612.354Z" transform="translate(-0.201)" fill="#a8a8c1" opacity="0.4" style="isolation:isolate"/><path d="M249.209,65.876l-.615-.354.615-.354.612.354Z" transform="translate(-0.201)" fill="#a8a8c1" opacity="0.1" style="isolation:isolate"/><path d="M250.44,66.584l-.616-.354.616-.354.612.354Z" transform="translate(-0.201)" fill="#a8a8c1"/><path d="M251.666,67.292l-.615-.354.615-.354.612.354Z" transform="translate(-0.201)" fill="#a8a8c1"/><path d="M252.893,68l-.616-.357.616-.354.612.354Z" transform="translate(-0.201)" fill="#a8a8c1"/><path d="M254.121,68.711l-.615-.354.615-.354.612.354Z" transform="translate(-0.201)" fill="#a8a8c1" opacity="0.4" style="isolation:isolate"/><path d="M255.348,69.419l-.616-.354.616-.354.612.354Z" transform="translate(-0.201)" fill="#a8a8c1"/><path d="M256.578,70.128l-.615-.354.615-.354.612.354Z" transform="translate(-0.201)" fill="#a8a8c1"/><path d="M245.52,65.171l-.612-.354.612-.354.616.354Z" transform="translate(-0.201)" fill="#a8a8c1"/><path d="M246.747,65.879l-.612-.354.612-.354.615.354Z" transform="translate(-0.201)" fill="#a8a8c1"/><path d="M247.973,66.587l-.612-.354.612-.354.616.354Z" transform="translate(-0.201)" fill="#a8a8c1"/><path d="M249.2,67.295l-.612-.354.612-.354.615.354Z" transform="translate(-0.201)" fill="#a8a8c1"/><path d="M250.43,68l-.612-.354.612-.354.616.354Z" transform="translate(-0.201)" fill="#a8a8c1"/><path d="M251.657,68.715l-.612-.354.612-.358.615.358Z" transform="translate(-0.201)" fill="#a8a8c1"/><path d="M252.886,69.423l-.613-.354.613-.354.615.354Z" transform="translate(-0.201)" fill="#a8a8c1"/><path d="M254.112,70.131l-.612-.354.612-.354.616.354Z" transform="translate(-0.201)" fill="#a8a8c1"/><path d="M255.343,70.839l-.613-.354.613-.354.615.354Z" transform="translate(-0.201)" fill="#a8a8c1"/><path d="M244.291,65.882l-.615-.354.615-.357.612.357Z" transform="translate(-0.201)" fill="#a8a8c1"/><path d="M245.518,66.59l-.616-.354.616-.354.612.354Z" transform="translate(-0.201)" fill="#a8a8c1"/><path d="M246.744,67.3l-.615-.354.615-.354.612.354Z" transform="translate(-0.201)" fill="#a8a8c1" opacity="0.4" style="isolation:isolate"/><path d="M247.975,68.006l-.616-.354.616-.354.612.354Z" transform="translate(-0.201)" fill="#a8a8c1"/><path d="M249.2,68.714l-.615-.354.615-.354.612.354Z" transform="translate(-0.201)" fill="#a8a8c1" opacity="0.1" style="isolation:isolate"/><path d="M250.428,69.426l-.616-.354.616-.358.612.358Z" transform="translate(-0.201)" fill="#a8a8c1"/><path d="M251.656,70.134l-.615-.354.615-.354.613.354Z" transform="translate(-0.201)" fill="#a8a8c1"/><path d="M252.883,70.842l-.615-.354.615-.354.612.354Z" transform="translate(-0.201)" fill="#a8a8c1"/><path d="M254.11,71.55l-.616-.354.616-.354.612.354Z" transform="translate(-0.201)" fill="#a8a8c1"/><path d="M243.059,66.594l-.612-.354.612-.354.616.354Z" transform="translate(-0.201)" fill="#a8a8c1"/><path d="M244.286,67.3l-.612-.354.612-.354.615.354Z" transform="translate(-0.201)" fill="#a8a8c1"/><path d="M245.513,68.01l-.613-.354.613-.354.615.354Z" transform="translate(-0.201)" fill="#a8a8c1" opacity="0.4" style="isolation:isolate"/><path d="M246.739,68.718l-.612-.354.612-.354.615.354Z" transform="translate(-0.201)" fill="#a8a8c1"/><path d="M247.966,69.429l-.612-.357.612-.354.615.354Z" transform="translate(-0.201)" fill="#a8a8c1"/><path d="M249.2,70.137l-.612-.354.612-.354.616.354Z" transform="translate(-0.201)" fill="#a8a8c1" opacity="0.1" style="isolation:isolate"/><path d="M250.423,70.846l-.612-.354.612-.354.615.354Z" transform="translate(-0.201)" fill="#a8a8c1" opacity="0.4" style="isolation:isolate"/><path d="M251.649,71.554l-.612-.354.612-.354.616.354Z" transform="translate(-0.201)" fill="#a8a8c1"/><path d="M252.878,72.262l-.612-.354.612-.354.615.354Z" transform="translate(-0.201)" fill="#a8a8c1" opacity="0.1" style="isolation:isolate"/><path d="M241.826,67.305l-.615-.354.615-.354.612.354Z" transform="translate(-0.201)" fill="#a8a8c1"/><path d="M243.053,68.013l-.615-.354.615-.354.612.354Z" transform="translate(-0.201)" fill="#a8a8c1" opacity="0.4" style="isolation:isolate"/><path d="M244.279,68.721l-.615-.354.615-.354.613.354Z" transform="translate(-0.201)" fill="#a8a8c1"/><path d="M245.508,69.429l-.615-.354.615-.354.612.354Z" transform="translate(-0.201)" fill="#a8a8c1"/><path d="M246.737,70.141l-.616-.354.616-.358.612.358Z" transform="translate(-0.201)" fill="#a8a8c1"/><path d="M247.963,70.849l-.615-.354.615-.354.612.354Z" transform="translate(-0.201)" fill="#a8a8c1"/><path d="M249.192,71.557l-.616-.354.616-.354.612.354Z" transform="translate(-0.201)" fill="#a8a8c1"/><path d="M250.418,72.265l-.615-.354.615-.354.612.354Z" transform="translate(-0.201)" fill="#a8a8c1" opacity="0.4" style="isolation:isolate"/><path d="M251.645,72.973l-.616-.354.616-.354.612.354Z" transform="translate(-0.201)" fill="#a8a8c1"/><path d="M240.6,68.016l-.613-.354.613-.354.615.354Z" transform="translate(-0.201)" fill="#a8a8c1"/><path d="M241.821,68.725l-.612-.354.612-.354.616.354Z" transform="translate(-0.201)" fill="#a8a8c1" opacity="0.1" style="isolation:isolate"/><path d="M243.048,69.433l-.612-.354.612-.354.615.354Z" transform="translate(-0.201)" fill="#a8a8c1"/><path d="M244.274,70.141l-.612-.354.612-.354.616.354Z" transform="translate(-0.201)" fill="#a8a8c1"/><path d="M245.5,70.852l-.612-.357.612-.354.615.354Z" transform="translate(-0.201)" fill="#a8a8c1"/><path d="M246.729,71.56l-.612-.354.612-.354.616.354Z" transform="translate(-0.201)" fill="#a8a8c1"/><path d="M247.958,72.268l-.612-.354.612-.354.615.354Z" transform="translate(-0.201)" fill="#a8a8c1" opacity="0.4" style="isolation:isolate"/><path d="M249.184,72.976l-.612-.354.612-.354.616.354Z" transform="translate(-0.201)" fill="#a8a8c1"/><path d="M250.413,73.684l-.612-.354.612-.354.615.354Z" transform="translate(-0.201)" fill="#a8a8c1"/><path d="M250.352,74.32a2.43,2.43,0,0,1-1.2-.275L239.4,68.42a.849.849,0,0,1-.49-.714,1.151,1.151,0,0,1,.685-.923l9.36-5.407a3.074,3.074,0,0,1,2.753-.112l9.748,5.625a.852.852,0,0,1,.493.718,1.16,1.16,0,0,1-.685.919L251.9,73.933A3.207,3.207,0,0,1,250.352,74.32Zm.162-13.235a3.1,3.1,0,0,0-1.508.377l-9.361,5.407a1.076,1.076,0,0,0-.642.843.771.771,0,0,0,.137.381.763.763,0,0,0,.31.258l9.751,5.625a2.961,2.961,0,0,0,2.647-.113l9.373-5.413a1.074,1.074,0,0,0,.639-.843.766.766,0,0,0-.443-.642l-9.751-5.625a2.332,2.332,0,0,0-1.152-.268Z" transform="translate(-0.201)" fill="#a8a8c1"/><path d="M263,71.27l-10.447,6.021a4.9,4.9,0,0,1-4.436,0L237.673,71.27a1.636,1.636,0,0,1-.908-1.13,1.44,1.44,0,0,0,.908,1.426L248.114,77.6a4.9,4.9,0,0,0,4.437,0L263,71.566a1.467,1.467,0,0,0,.9-1.426,1.643,1.643,0,0,1-.9,1.13Z" transform="translate(-0.201)" fill="#fff"/><path d="M194.758,96.469h0c-3.006,1.4-4.684,3.258-4.684,5.266s1.6,3.89,4.678,5.292a30.5,30.5,0,0,0,22.383-.021h0c2.967-1.4,4.638-3.253,4.638-5.266s-1.671-3.875-4.671-5.271h0a30.232,30.232,0,0,0-22.344,0Zm11.165-1.864h0a27.179,27.179,0,0,1,11.016,2.113c2.923,1.366,4.51,3.158,4.51,5.017s-1.587,3.656-4.511,5.011h0a29.78,29.78,0,0,1-22.025,0c-2.924-1.36-4.5-3.142-4.5-5.011s1.58-3.657,4.5-5.023A27.176,27.176,0,0,1,205.923,94.605Z" transform="translate(-0.201)" fill="#5d64d2" stroke="#5d64d2" stroke-width="0.106"/><path d="M199.711,96.569a17.1,17.1,0,0,1,12.663,0,7.307,7.307,0,0,1,1.448.861c1.975-1.584,1.5-3.654-1.428-5.012a17.122,17.122,0,0,0-12.664,0c-2.935,1.358-3.409,3.423-1.428,5.012A6.876,6.876,0,0,1,199.711,96.569Z" transform="translate(-0.201)" fill="#5351af"/><path d="M219.547,95.376a12.793,12.793,0,0,0-2.3-1.352,22.015,22.015,0,0,0-4.68-1.5c3.258,1.658,3.16,4.225-.3,5.809a17.466,17.466,0,0,1-12.907,0c-3.311-1.515-3.548-3.971-.626-5.629a21.286,21.286,0,0,0-3.9,1.32,12.843,12.843,0,0,0-2.3,1.347h-2.349v3.85c0,1.88,1.546,3.755,4.646,5.191,6.187,2.868,16.225,2.868,22.418,0,3.094-1.436,4.647-3.311,4.647-5.191V95.376Z" transform="translate(-0.201)" fill="url(#w)"/><path d="M217.25,90.5c-6.194-2.868-16.231-2.868-22.418,0s-6.193,7.521,0,10.394,16.224,2.868,22.418,0S223.444,93.364,217.25,90.5Zm-4.871,8.186a17.466,17.466,0,0,1-12.907,0c-3.567-1.648-3.56-4.331,0-5.978a17.441,17.441,0,0,1,12.907,0C215.94,94.357,215.947,97.029,212.379,98.682Z" transform="translate(-0.201)" fill="url(#x)"/><path d="M217.251,100.488c-6.193,2.868-16.231,2.868-22.418,0-2.988-1.383-4.535-3.168-4.607-5-.145,1.944,1.4,3.908,4.607,5.4,6.187,2.868,16.225,2.868,22.418,0,3.206-1.484,4.752-3.444,4.608-5.392C221.786,97.309,220.239,99.105,217.251,100.488Z" transform="translate(-0.201)" fill="#fff"/><path d="M212.381,92.308a17.417,17.417,0,0,0-12.907,0c-1.889.871-2.777,2.038-2.633,3.168.1-1.014.988-2.017,2.633-2.788a17.417,17.417,0,0,1,12.907,0c1.672.771,2.561,1.774,2.633,2.788C215.139,94.346,214.277,93.179,212.381,92.308Z" transform="translate(-0.201)" fill="#fff"/><path d="M216.533,90.5c-5.766-2.672-15.139-2.672-20.871,0s-5.766,7,0,9.665,15.138,2.672,20.871,0S222.3,93.163,216.533,90.5Zm-4.206,7.721a16.935,16.935,0,0,1-12.466,0c-3.443-1.584-3.443-4.193,0-5.778a16.945,16.945,0,0,1,12.466,0C215.769,94.024,215.795,96.622,212.327,98.217Z" transform="translate(-0.201)" fill="url(#y)"/><path d="M206.094,99.411c4.868,0,8.813-1.828,8.813-4.083s-3.945-4.082-8.813-4.082-8.813,1.828-8.813,4.082S201.227,99.411,206.094,99.411Z" transform="translate(-0.201)" fill="#42e8e0" opacity="0.4" style="isolation:isolate"/><path d="M199.711,91.288a17.1,17.1,0,0,1,12.663,0,7.259,7.259,0,0,1,1.448.861c1.975-1.584,1.5-3.655-1.428-5.012a17.122,17.122,0,0,0-12.664,0c-2.935,1.357-3.409,3.422-1.428,5.012A6.876,6.876,0,0,1,199.711,91.288Z" transform="translate(-0.201)" fill="#5351af"/><path d="M219.547,90.1a12.735,12.735,0,0,0-2.3-1.352,21.958,21.958,0,0,0-4.68-1.5c3.258,1.658,3.16,4.225-.3,5.809a17.466,17.466,0,0,1-12.907,0c-3.311-1.516-3.548-3.971-.626-5.63a21.213,21.213,0,0,0-3.9,1.321,12.84,12.84,0,0,0-2.3,1.346h-2.349v3.85c0,1.881,1.546,3.755,4.646,5.192,6.187,2.868,16.225,2.868,22.418,0,3.094-1.437,4.647-3.311,4.647-5.192V90.1Z" transform="translate(-0.201)" fill="url(#z)"/><path d="M217.25,85.215c-6.194-2.868-16.231-2.868-22.418,0s-6.193,7.52,0,10.393,16.224,2.868,22.418,0S223.444,88.082,217.25,85.215ZM212.379,93.4a17.466,17.466,0,0,1-12.907,0c-3.567-1.648-3.56-4.331,0-5.979a17.441,17.441,0,0,1,12.907,0C215.94,89.075,215.947,91.748,212.379,93.4Z" transform="translate(-0.201)" fill="url(#aa)"/><path d="M217.251,95.207c-6.193,2.868-16.231,2.868-22.418,0-2.988-1.384-4.535-3.169-4.607-5-.145,1.943,1.4,3.908,4.607,5.4,6.187,2.868,16.225,2.868,22.418,0,3.206-1.484,4.752-3.443,4.608-5.392C221.786,92.028,220.239,93.823,217.251,95.207Z" transform="translate(-0.201)" fill="#fff"/><path d="M212.381,87.026a17.417,17.417,0,0,0-12.907,0c-1.889.872-2.777,2.039-2.633,3.169.1-1.014.988-2.018,2.633-2.789a17.417,17.417,0,0,1,12.907,0c1.672.771,2.561,1.775,2.633,2.789C215.139,89.065,214.277,87.9,212.381,87.026Z" transform="translate(-0.201)" fill="#fff"/><path d="M216.533,85.215c-5.766-2.673-15.139-2.673-20.871,0s-5.766,7,0,9.664,15.138,2.673,20.871,0S222.3,87.882,216.533,85.215Zm-4.206,7.721a16.945,16.945,0,0,1-12.466,0c-3.443-1.585-3.443-4.193,0-5.778a16.945,16.945,0,0,1,12.466,0C215.769,88.743,215.795,91.341,212.327,92.936Z" transform="translate(-0.201)" fill="url(#ab)"/><path d="M206.094,94.13c4.868,0,8.813-1.828,8.813-4.083s-3.945-4.082-8.813-4.082-8.813,1.827-8.813,4.082S201.227,94.13,206.094,94.13Z" transform="translate(-0.201)" fill="#42e8e0" opacity="0.4" style="isolation:isolate"/><path d="M199.711,85.479a17.085,17.085,0,0,1,12.663,0,7.256,7.256,0,0,1,1.448.86c1.975-1.584,1.5-3.654-1.428-5.012a17.122,17.122,0,0,0-12.664,0c-2.935,1.358-3.409,3.423-1.428,5.012A6.829,6.829,0,0,1,199.711,85.479Z" transform="translate(-0.201)" fill="#5351af"/><path d="M219.547,84.285a12.793,12.793,0,0,0-2.3-1.352,22.015,22.015,0,0,0-4.68-1.5c3.258,1.658,3.16,4.225-.3,5.81a17.476,17.476,0,0,1-12.907,0c-3.311-1.516-3.548-3.972-.626-5.63a21.286,21.286,0,0,0-3.9,1.32,12.843,12.843,0,0,0-2.3,1.347h-2.349v3.85c0,1.88,1.546,3.755,4.646,5.191,6.187,2.868,16.225,2.868,22.418,0,3.094-1.436,4.647-3.311,4.647-5.191V84.285Z" transform="translate(-0.201)" fill="url(#ac)"/><path d="M217.25,79.4c-6.194-2.868-16.231-2.868-22.418,0s-6.193,7.521,0,10.394,16.224,2.868,22.418,0S223.444,82.273,217.25,79.4Zm-4.871,8.186a17.466,17.466,0,0,1-12.907,0c-3.567-1.648-3.56-4.331,0-5.978a17.441,17.441,0,0,1,12.907,0C215.94,83.266,215.947,85.938,212.379,87.591Z" transform="translate(-0.201)" fill="url(#ad)"/><path d="M217.251,89.4c-6.193,2.868-16.231,2.868-22.418,0-2.988-1.383-4.535-3.168-4.607-5-.145,1.944,1.4,3.908,4.607,5.4,6.187,2.868,16.225,2.868,22.418,0,3.206-1.484,4.752-3.444,4.608-5.393C221.786,86.218,220.239,88.014,217.251,89.4Z" transform="translate(-0.201)" fill="#fff"/><path d="M212.381,81.217a17.407,17.407,0,0,0-12.907,0c-1.889.871-2.777,2.038-2.633,3.168.1-1.014.988-2.017,2.633-2.788a17.417,17.417,0,0,1,12.907,0c1.672.771,2.561,1.774,2.633,2.788C215.139,83.255,214.277,82.088,212.381,81.217Z" transform="translate(-0.201)" fill="#fff"/><path d="M216.533,79.4c-5.766-2.672-15.139-2.672-20.871,0s-5.766,7,0,9.665,15.138,2.672,20.871,0S222.3,82.072,216.533,79.4Zm-4.206,7.721a16.935,16.935,0,0,1-12.466,0c-3.443-1.584-3.443-4.193,0-5.777a16.935,16.935,0,0,1,12.466,0C215.769,82.933,215.795,85.531,212.327,87.126Z" transform="translate(-0.201)" fill="url(#ae)"/><path d="M206.094,88.32c4.868,0,8.813-1.828,8.813-4.083s-3.945-4.082-8.813-4.082-8.813,1.828-8.813,4.082S201.227,88.32,206.094,88.32Z" transform="translate(-0.201)" fill="#5d64d2" opacity="0.4" style="isolation:isolate"/><line x2="79.427" y2="46.418" transform="translate(24.227 113.142)" fill="none" stroke="#5d64d2" stroke-width="0.528"/><circle cx="1.897" cy="1.897" r="1.897" transform="translate(22.313 110.927)" fill="#5d64d2"/></g></g></g></svg>