<svg xmlns="http://www.w3.org/2000/svg" xmlns:xlink="http://www.w3.org/1999/xlink" width="260.539" height="232.156" viewBox="0 0 260.539 232.156"><defs><clipPath id="a"><rect width="22.573" height="21.765" fill="none"/></clipPath></defs><path d="M1.247,156.528,128.794,82.851a2.752,2.752,0,0,1,2.493,0l128.646,74.311a.761.761,0,0,1,0,1.441L132.386,232.28a2.754,2.754,0,0,1-2.494,0L1.247,157.968A.76.76,0,0,1,1.247,156.528Z" transform="translate(-0.73 -0.423)" fill="#8686b3" opacity="0.05" style="isolation:isolate"/><path d="M82.149,122.383l48.433-27.977a2.754,2.754,0,0,1,2.494,0L180.3,121.683a.761.761,0,0,1,0,1.441L131.865,151.1a2.754,2.754,0,0,1-2.494,0L82.149,123.823A.76.76,0,0,1,82.149,122.383Z" transform="translate(-0.73 -0.423)" fill="#357aff" opacity="0.4" style="isolation:isolate"/><path d="M23.872,156.979,72.305,129a2.754,2.754,0,0,1,2.494,0l47.222,27.277a.761.761,0,0,1,0,1.441L73.588,185.7a2.754,2.754,0,0,1-2.494,0L23.872,158.419A.76.76,0,0,1,23.872,156.979Z" transform="translate(-0.73 -0.423)" fill="#357aff" opacity="0.4" style="isolation:isolate"/><path d="M80.919,190.653l48.433-27.977a2.754,2.754,0,0,1,2.494,0l47.222,27.277a.761.761,0,0,1,0,1.441l-48.433,27.977a2.754,2.754,0,0,1-2.494,0L80.919,192.093A.76.76,0,0,1,80.919,190.653Z" transform="translate(-0.73 -0.423)" fill="#594e9b" opacity="0.4" style="isolation:isolate"/><path d="M138.786,156.569l48.433-27.978a2.76,2.76,0,0,1,2.494,0l47.222,27.278a.761.761,0,0,1,0,1.441L188.5,185.287a2.754,2.754,0,0,1-2.494,0l-47.222-27.278A.76.76,0,0,1,138.786,156.569Z" transform="translate(-0.73 -0.423)" fill="#266371" opacity="0.4" style="isolation:isolate"/><path d="M187.06,144.04a.318.318,0,0,1,.166-.054.315.315,0,0,1,.17.043.905.905,0,0,1,.321.412,3.249,3.249,0,0,1,.242,1,4.654,4.654,0,0,1-.126,1.637,7.465,7.465,0,0,1,3.387,1.191,4.386,4.386,0,0,1,.7-1.265,3.407,3.407,0,0,1,.954-.876.7.7,0,0,1,.266-.111.694.694,0,0,1,.287.007.425.425,0,0,1,.215.426,2.4,2.4,0,0,1-.274.968,4.58,4.58,0,0,1-1.237,1.563,7.572,7.572,0,0,1,1.358,1.643l-1.019.62a6.263,6.263,0,0,0-10.614-.149l-1-.647a7.562,7.562,0,0,1,1.362-1.57,4.712,4.712,0,0,1-1.065-1.375,2.6,2.6,0,0,1-.317-1.027.473.473,0,0,1,.028-.241.484.484,0,0,1,.144-.2.548.548,0,0,1,.484.029,2.751,2.751,0,0,1,.835.658,4.716,4.716,0,0,1,.893,1.415,7.446,7.446,0,0,1,3.415-1.087,4.712,4.712,0,0,1-.12-1.609,3.311,3.311,0,0,1,.233-.989.956.956,0,0,1,.309-.42Z" transform="translate(-0.73 -0.423)" fill="#277a9f"/><path d="M177.193,151.876h1.435v2.02h1.617v-2.02h1.435V157.3h-1.435v-2.153h-1.617V157.3h-1.435Z" transform="translate(-0.73 -0.423)" fill="#277a9f"/><path d="M182.85,151.876h3.5v1.2h-2.067v.852h1.768v1.2h-1.768v.967h2.151v1.2H182.85Z" transform="translate(-0.73 -0.423)" fill="#277a9f"/><path d="M187.508,151.876h1.434V156.1h2.05v1.2h-3.484Z" transform="translate(-0.73 -0.423)" fill="#277a9f"/><path d="M191.934,151.876h1.534l.717,1.946c.157.4.259.827.391,1.24a.294.294,0,0,0,.058-.119c.083-.291.169-.582.261-.872q.385-1.1.774-2.195h1.536V157.3h-1.3a24.785,24.785,0,0,1,.06-2.5c.033-.353.091-.7.12-1.059a.467.467,0,0,0-.082.169q-.505,1.485-1.068,2.948c-.255,0-.509,0-.764,0l-.656-1.767c-.128-.372-.252-.752-.377-1.127a.55.55,0,0,0-.1-.218,19.626,19.626,0,0,1,.18,2.055v1.5h-1.283Z" transform="translate(-0.73 -0.423)" fill="#277a9f"/><path d="M181,158.723l.978-.681a6.261,6.261,0,0,0,10.289-.009l.979.679a7.608,7.608,0,0,1-1.025,1.191,4.685,4.685,0,0,1,1.105,1.408,2.61,2.61,0,0,1,.318,1.025.466.466,0,0,1-.194.447.65.65,0,0,1-.553-.083,3.3,3.3,0,0,1-.931-.832,4.661,4.661,0,0,1-.706-1.2,7.411,7.411,0,0,1-3.392,1.215,4.506,4.506,0,0,1,.107,1.117,3.731,3.731,0,0,1-.229,1.3,1.019,1.019,0,0,1-.332.472.313.313,0,0,1-.19.055.325.325,0,0,1-.187-.067,1.179,1.179,0,0,1-.347-.548,4.661,4.661,0,0,1-.1-2.311,7.447,7.447,0,0,1-3.426-1.112,4.758,4.758,0,0,1-1,1.462,2.181,2.181,0,0,1-.786.533.394.394,0,0,1-.457-.092.85.85,0,0,1-.05-.643,4.05,4.05,0,0,1,.747-1.476,4.421,4.421,0,0,1,.511-.565A7.8,7.8,0,0,1,181,158.723Z" transform="translate(-0.73 -0.423)" fill="#277a9f"/><path d="M126.6,180.279l7.208,4.123v8.1l-7.208-4.127v-8.093Z" transform="translate(-0.73 -0.423)" fill="#813cf3"/><path d="M134.191,192.457l7.146-4.11V180.3l-7.146,4.08Z" transform="translate(-0.73 -0.423)" fill="#813cf3"/><path d="M118.967,184.008l7.209,4.123v-8.093l-7.209-4.123Z" transform="translate(-0.73 -0.423)" fill="#813cf3"/><path d="M126.6,196.944l7.208,4.123v-8.123l-7.208-4.123v8.123Z" transform="translate(-0.73 -0.423)" fill="#813cf3"/><g transform="translate(60.063 143.717)"><g clip-path="url(#a)"><g transform="translate(0.402 0.332)"><path d="M68.032,165.549a1.725,1.725,0,0,1-1.355-.649l-5.1-6.28a1.685,1.685,0,0,1-.335-1.473l1.821-7.839a1.711,1.711,0,0,1,.946-1.169l7.369-3.494a1.745,1.745,0,0,1,1.515,0l7.369,3.479a1.711,1.711,0,0,1,.946,1.17l1.821,7.839A1.73,1.73,0,0,1,82.7,158.6l-5.1,6.28a1.77,1.77,0,0,1-1.355.65l-8.213.014Z" transform="translate(-61.195 -144.472)" fill="#326de6"/><path d="M79.507,156.6h-.015c-.015,0-.029,0-.029-.015-.029,0-.058-.014-.088-.014a1.92,1.92,0,0,0-.276-.029.531.531,0,0,1-.146-.015h-.015a3.837,3.837,0,0,1-.786-.129.286.286,0,0,1-.16-.159c0-.015-.015-.015-.015-.029l-.189-.058a5.643,5.643,0,0,0-.1-2.035,5.935,5.935,0,0,0-.815-1.892l.145-.13v-.028a.325.325,0,0,1,.073-.217,4.264,4.264,0,0,1,.655-.448c.044-.028.088-.043.131-.072a2.037,2.037,0,0,0,.248-.144.926.926,0,0,0,.073-.058c.014-.014.029-.014.029-.029a.478.478,0,0,0,.1-.649.416.416,0,0,0-.335-.159.543.543,0,0,0-.32.115l-.029.029c-.03.015-.044.044-.073.058a2.345,2.345,0,0,0-.19.2.65.65,0,0,1-.1.1,3.65,3.65,0,0,1-.582.52.237.237,0,0,1-.131.043.2.2,0,0,1-.088-.014h-.029l-.175.115a6.956,6.956,0,0,0-.6-.548,5.842,5.842,0,0,0-3.043-1.2l-.015-.187-.029-.029a.3.3,0,0,1-.116-.188,4.965,4.965,0,0,1,.043-.779v-.015a.526.526,0,0,1,.029-.144c.015-.087.03-.173.044-.274v-.13a.445.445,0,0,0-.772-.332.455.455,0,0,0-.131.332v.115a.833.833,0,0,0,.044.274c.014.044.014.087.029.145v.014a3.721,3.721,0,0,1,.044.78.3.3,0,0,1-.117.187l-.029.029-.014.188a7.576,7.576,0,0,0-.787.115,5.631,5.631,0,0,0-2.883,1.617l-.146-.1H67.8c-.029,0-.058.015-.087.015a.239.239,0,0,1-.132-.044,3.8,3.8,0,0,1-.582-.534.651.651,0,0,0-.1-.1,2.331,2.331,0,0,0-.189-.2.926.926,0,0,1-.073-.058c-.015-.014-.029-.014-.029-.028a.513.513,0,0,0-.321-.116.416.416,0,0,0-.335.159.479.479,0,0,0,.1.649c.015,0,.015.015.029.015s.044.043.073.058a2.362,2.362,0,0,0,.248.144.568.568,0,0,1,.131.072,4.263,4.263,0,0,1,.655.448.262.262,0,0,1,.073.216v.029l.146.13a.475.475,0,0,0-.073.116,5.585,5.585,0,0,0-.816,3.811l-.189.058c0,.014-.014.014-.014.028a.338.338,0,0,1-.161.159,3.716,3.716,0,0,1-.786.13h-.015a.478.478,0,0,0-.145.015,2.061,2.061,0,0,0-.277.028c-.029,0-.058.015-.087.015a.056.056,0,0,0-.044.014.475.475,0,0,0-.379.534.448.448,0,0,0,.466.333.314.314,0,0,0,.117-.015c.014,0,.029,0,.029-.014.029,0,.058-.015.087-.015a1.394,1.394,0,0,0,.263-.1c.043-.014.087-.043.13-.058h.015a3.611,3.611,0,0,1,.757-.216h.03a.326.326,0,0,1,.189.072c.014,0,.014.015.029.015l.2-.029a5.7,5.7,0,0,0,1.908,2.714,5.875,5.875,0,0,0,.626.418l-.088.188c0,.014.015.014.015.029a.3.3,0,0,1,.029.231,3.982,3.982,0,0,1-.379.678v.015c-.029.043-.058.072-.087.115-.058.072-.1.145-.16.231a.348.348,0,0,0-.044.072.049.049,0,0,1-.014.029.454.454,0,0,0,.189.621.386.386,0,0,0,.175.043.525.525,0,0,0,.437-.274.053.053,0,0,1,.014-.029.323.323,0,0,1,.044-.072c.043-.1.058-.173.087-.26l.044-.13a3.422,3.422,0,0,1,.306-.722.369.369,0,0,1,.189-.129c.014,0,.014,0,.029-.015l.1-.188A5.724,5.724,0,0,0,72.2,161a5.337,5.337,0,0,0,1.267-.145,6.462,6.462,0,0,0,.757-.216l.088.159c.014,0,.014,0,.029.014a.269.269,0,0,1,.189.13,4.992,4.992,0,0,1,.306.722v.014l.044.13a1.764,1.764,0,0,0,.087.26c.014.029.029.043.044.072a.049.049,0,0,0,.014.029.5.5,0,0,0,.437.274.389.389,0,0,0,.175-.043.429.429,0,0,0,.218-.26.521.521,0,0,0-.029-.361c0-.014-.014-.014-.014-.029a.4.4,0,0,0-.044-.072,1.354,1.354,0,0,0-.16-.231c-.029-.043-.059-.072-.088-.115v-.015a3.2,3.2,0,0,1-.378-.678.4.4,0,0,1,.014-.231c0-.015.015-.015.015-.029l-.073-.173a5.741,5.741,0,0,0,2.534-3.162l.175.029c.014,0,.014-.014.029-.014a.371.371,0,0,1,.189-.073h.029a3.626,3.626,0,0,1,.758.217h.014c.044.014.087.043.131.058a1.426,1.426,0,0,0,.262.1c.029,0,.058.014.088.014a.051.051,0,0,1,.043.015.336.336,0,0,0,.117.014.49.49,0,0,0,.466-.332.556.556,0,0,0-.422-.476Zm-6.743-.708-.641.3-.641-.3-.16-.678.437-.549h.714l.437.549-.146.678Zm3.8-1.5a4.526,4.526,0,0,1,.1,1.458l-2.228-.635a.391.391,0,0,1-.277-.462.342.342,0,0,1,.087-.159l1.762-1.574a4.62,4.62,0,0,1,.554,1.372Zm-1.253-2.238L73.4,153.495a.39.39,0,0,1-.51-.087.319.319,0,0,1-.073-.159l-.131-2.353a4.432,4.432,0,0,1,2.621,1.256Zm-4.223-1.184.466-.086-.131,2.31a.4.4,0,0,1-.393.375.36.36,0,0,1-.175-.043l-1.937-1.372a4.456,4.456,0,0,1,2.17-1.184Zm-2.869,2.05,1.733,1.531a.382.382,0,0,1,.044.534.292.292,0,0,1-.175.115l-2.257.65a4.62,4.62,0,0,1,.655-2.83Zm-.393,3.913,2.316-.39a.39.39,0,0,1,.407.3.406.406,0,0,1-.014.231l-.889,2.122a4.561,4.561,0,0,1-1.82-2.266Zm5.316,2.872a4.746,4.746,0,0,1-1.02.116,4.985,4.985,0,0,1-1.471-.231l1.151-2.064a.384.384,0,0,1,.466-.1.611.611,0,0,1,.174.158l1.122,2.007c-.131.043-.277.072-.423.115Zm2.839-2.006a4.61,4.61,0,0,1-1.4,1.4l-.917-2.18a.386.386,0,0,1,.2-.447.466.466,0,0,1,.2-.044l2.33.39a2.889,2.889,0,0,1-.423.881Z" transform="translate(-61.195 -144.472)" fill="#fff"/></g></g></g><line y2="70.222" transform="translate(73.697 86.226)" fill="none" stroke="#8686b3" stroke-width="1" stroke-dasharray="5 5" opacity="0.2" style="isolation:isolate"/><line y2="62.83" transform="translate(189.022 91.564)" fill="none" stroke="#8686b3" stroke-width="1" stroke-dasharray="5 5" opacity="0.2" style="isolation:isolate"/><line y2="62.831" transform="translate(130.745 128.933)" fill="none" stroke="#8686b3" stroke-width="1" stroke-dasharray="5 5" opacity="0.2" style="isolation:isolate"/><path d="M2.067,74.4,129.613.721a2.754,2.754,0,0,1,2.494,0L260.752,75.032a.761.761,0,0,1,0,1.441L133.207,150.149a2.754,2.754,0,0,1-2.494,0L2.067,75.837A.76.76,0,0,1,2.067,74.4Z" transform="translate(-0.73 -0.423)" fill="#8686b3" opacity="0.05" style="isolation:isolate"/><path d="M24.692,74.03,131.6,12.275a2.754,2.754,0,0,1,2.494,0L239.413,73.111a.761.761,0,0,1,0,1.441L132.505,136.307a2.754,2.754,0,0,1-2.494,0L24.692,75.47A.76.76,0,0,1,24.692,74.03Z" transform="translate(-0.73 -0.423)" fill="#7173cd" opacity="0.9" style="isolation:isolate"/><path d="M140.24,60.522V81.1l10.022-5.814V54.336Z" transform="translate(-0.73 -0.423)" fill="#33369f"/><path d="M131.673,43.175,112.094,53.931l10.733,6.591,8.815-4.974,8.6,4.974,10.022-6.186Z" transform="translate(-0.73 -0.423)" fill="#b7b9e7"/><path d="M112.094,53.931l10.764,6.591-.093,10.166,12,6.529.123,11.13-22.8-13Z" transform="translate(-0.73 -0.423)" fill="#7173cd"/><path d="M131.643,55.548l8.6,4.974s.024,10.3.024,10.149c.624.3-8.5-4.553-8.5-4.553Z" transform="translate(-0.73 -0.423)" fill="#7173cd"/><path d="M122.766,70.688l9-4.57-.123-10.57-8.785,4.974Z" transform="translate(-0.73 -0.423)" fill="#33369f"/><path d="M134.767,77.217l-12-6.529,9-4.57,11.507,6.156Z" transform="translate(-0.73 -0.423)" fill="#b7b9e7"/><path d="M134.889,88.347l8.228-5.565.154-10.508-8.5,4.943Z" transform="translate(-0.73 -0.423)" fill="#33369f"/></svg>