<svg xmlns="http://www.w3.org/2000/svg" xmlns:xlink="http://www.w3.org/1999/xlink" width="770" height="166" viewBox="0 0 770 166"><defs><clipPath id="a"><rect width="770" height="166" transform="translate(-0.104 -0.333)" fill="none"/></clipPath></defs><g transform="translate(0.104 0.333)" clip-path="url(#a)" style="mix-blend-mode:hard-light;isolation:isolate"><g transform="translate(-16.078 -4.346)"><line x1="506.226" y2="305.845" transform="translate(136.305 19.84)" fill="none" stroke="#707070" stroke-width="1"/><line x1="325.091" y2="196.409" transform="translate(13.227)" fill="none" stroke="#707070" stroke-width="1"/><line x1="325.091" y2="196.409" transform="translate(0 92.587)" fill="none" stroke="#707070" stroke-width="1"/><line x1="408.023" y1="224.412" transform="translate(176.642 37.482)" fill="none" stroke="#dedff4" stroke-width="1" stroke-dasharray="7 7"/><line x1="408.023" y1="224.412" transform="translate(459.031 13.013)" fill="none" stroke="#707070" stroke-width="1" stroke-dasharray="7 7"/><line x1="268.95" y1="147.922" transform="translate(505.518 102.73)" fill="none" stroke="#dedff4" stroke-width="1"/><line x1="506.226" y2="305.845" transform="translate(109.852 112.427)" fill="none" stroke="#707070" stroke-width="1" stroke-dasharray="7 7"/><path d="M684.5,280.731a1.46,1.46,0,0,1-.389.15l.155.216a2.721,2.721,0,0,1-1.23,0l.155-.216a1.463,1.463,0,0,1-.39-.15l-1.938-1.119-.286.165L676.7,277.54l.286-.165-3.876-2.238-.286.165-3.877-2.238.286-.165-3.876-2.238-.286.165-3.877-2.237.286-.165-3.876-2.238-.286.165-3.877-2.238.286-.165-3.876-2.238-.286.165-3.877-2.238.286-.165-3.876-2.238-.286.165-3.877-2.237.286-.165-3.876-2.238-.286.165-3.877-2.238.286-.165-3.876-2.238-.286.165-3.877-2.238.286-.165-3.876-2.238-.286.165-3.877-2.237.286-.165-3.876-2.238-.286.165-3.877-2.238.286-.165-3.876-2.238-.286.165-3.877-2.238.286-.165-3.876-2.238-.286.165-3.877-2.237.286-.165-1.938-1.119a.828.828,0,0,1-.261-.225l-.374.089a.58.58,0,0,1,0-.71l.374.089a.827.827,0,0,1,.261-.225l2.167-1.251-.286-.165,4.334-2.5.286.165,4.335-2.5-.286-.165,4.334-2.5.286.165,4.335-2.5-.286-.165,4.334-2.5.286.165,4.335-2.5-.286-.165,4.335-2.5.286.165,4.334-2.5-.286-.165,4.335-2.5.286.165,2.167-1.251a1.455,1.455,0,0,1,.39-.15l-.155-.216a2.718,2.718,0,0,1,1.229,0l-.155.216a1.454,1.454,0,0,1,.39.15l1.938,1.119.286-.165,3.876,2.238-.286.165,3.877,2.238.286-.165,3.876,2.238-.286.165,3.877,2.237.286-.165,3.876,2.238-.286.165,3.877,2.238.286-.165,3.876,2.238-.286.165,3.877,2.238.286-.165,3.876,2.238-.286.165,3.877,2.237.286-.165,3.876,2.238-.286.165,3.877,2.238.286-.165,3.876,2.238-.286.165,3.877,2.238.286-.165,3.876,2.238-.286.165,3.877,2.237.286-.165,3.876,2.237-.286.165,3.876,2.238.287-.165,3.876,2.238-.286.165,3.876,2.238.286-.165,3.877,2.238-.286.165,3.876,2.237.286-.165,3.877,2.237-.286.165,1.938,1.119a.817.817,0,0,1,.261.225l.374-.089a.578.578,0,0,1,0,.71l-.374-.09a.809.809,0,0,1-.261.225l-2.168,1.251.286.165-4.334,2.5-.286-.165-4.335,2.5.286.165-4.334,2.5-.286-.165-4.335,2.5.286.165-4.334,2.5L704,269.47l-4.335,2.5.286.165-4.334,2.5-.286-.165-4.335,2.5.286.165-4.334,2.5-.286-.165Z" transform="translate(-183.399 -63.584)" fill="rgba(69,72,176,0.1)" stroke="#5d64d2" stroke-width="1" stroke-dasharray="7 7"/><path d="M151.293,253.227a1.461,1.461,0,0,1-.387.157l.159.213a2.727,2.727,0,0,1-1.229.022l.151-.219a1.457,1.457,0,0,1-.392-.143l-1.96-1.087-.284.17-3.922-2.173.284-.171-3.922-2.173-.283.17-3.922-2.173.283-.17-3.921-2.174-.284.171-3.922-2.174.284-.17L124.1,239.13l-.283.17-3.922-2.173.283-.171-3.921-2.173-.284.17-3.922-2.173.284-.17-3.922-2.174-.283.171-3.922-2.174.283-.17-3.921-2.173-.284.17-3.922-2.173.284-.171-3.922-2.173-.283.171-3.922-2.174.284-.17L84.89,217.4l-.284.171-3.922-2.173.284-.171-1.961-1.087a.819.819,0,0,1-.265-.22l-.372.1a.578.578,0,0,1-.013-.71l.376.083a.816.816,0,0,1,.257-.229l1.97-1.184-.289-.16,3.94-2.368.289.16,3.94-2.368-.29-.16,3.94-2.368.29.161,3.94-2.368-.289-.161,3.94-2.368.289.161,3.94-2.368-.289-.16,3.94-2.368.289.16,3.94-2.368-.29-.16,3.94-2.368.29.161,3.94-2.368-.289-.161,3.94-2.367.289.16,3.94-2.368-.289-.16,3.94-2.368.29.16,3.94-2.368-.29-.16,3.94-2.368.289.161,3.94-2.368-.289-.161,3.94-2.367.289.16,3.94-2.368-.289-.16,3.94-2.368.29.16,3.94-2.367-.29-.161,3.94-2.368.289.161,1.97-1.184a1.48,1.48,0,0,1,.387-.157l-.159-.214a2.721,2.721,0,0,1,1.23-.021l-.151.219a1.449,1.449,0,0,1,.392.144l1.961,1.087.284-.171,3.921,2.174-.283.17,3.921,2.174.284-.171,3.922,2.173-.284.171,3.922,2.173.284-.17,3.921,2.173-.283.171,3.921,2.173.284-.171,3.922,2.174-.284.17,3.922,2.174.284-.171,3.921,2.173-.283.171,3.921,2.173.284-.17,3.922,2.173-.284.171,3.922,2.173.283-.171,3.922,2.174-.283.17,3.921,2.174.284-.171,3.922,2.173-.284.171,3.922,2.173.283-.17,3.922,2.173-.283.171,1.96,1.087a.821.821,0,0,1,.265.22l.372-.1a.577.577,0,0,1,.013.71l-.376-.083a.812.812,0,0,1-.257.229l-1.969,1.184.289.16-3.94,2.368-.289-.161-3.94,2.368.289.161-3.94,2.367-.289-.16-3.94,2.368.29.16-3.94,2.368-.29-.16-3.94,2.368.289.16-3.94,2.368-.289-.161-3.94,2.368.289.161-3.94,2.367-.289-.16L196.6,226l.29.16-3.94,2.368-.29-.16-3.94,2.367.289.161-3.94,2.368-.289-.161-3.94,2.368.289.16L177.193,238l-.289-.16-3.94,2.368.29.16-3.94,2.368-.29-.16-3.94,2.367.289.161-3.94,2.368-.289-.161-3.94,2.368.289.16-3.94,2.368-.29-.16Z" transform="translate(-10.42 -50.05)" fill="rgba(69,72,176,0.1)" stroke="#5d64d2" stroke-width="1" stroke-dasharray="7 7"/></g></g></svg>